<svg version="1.1" id="Layer_1" xmlns="http://www.w3.org/2000/svg" xmlns:xlink="http://www.w3.org/1999/xlink" x="0px" y="0px"
	 width="100%" viewBox="0 0 200 200" enable-background="new 0 0 200 200" xml:space="preserve">
<path fill="#FEFEFE" opacity="1.000000" stroke="none" 
	d="
M93.000000,201.000000 
	C62.019073,201.000000 31.538143,201.000000 1.028608,201.000000 
	C1.028608,134.394104 1.028608,67.788193 1.028608,1.091139 
	C67.564110,1.091139 134.128387,1.091139 200.846329,1.091139 
	C200.846329,67.666397 200.846329,134.333160 200.846329,201.000000 
	C165.121811,201.000000 129.310898,201.000000 93.000000,201.000000 
M109.419220,116.971977 
	C108.611359,117.314919 107.803505,117.657860 106.503006,118.217537 
	C106.148346,118.247749 105.793678,118.277962 104.774529,118.126541 
	C104.179062,118.370239 103.583603,118.613937 102.357811,119.037903 
	C101.923050,119.071144 101.488281,119.104385 100.643501,118.571854 
	C99.418610,119.011551 98.193718,119.451256 96.338875,120.081474 
	C95.901810,120.096870 95.464752,120.112267 94.774147,119.652176 
	C94.150146,119.942123 93.526154,120.232071 92.276039,120.692604 
	C91.845337,120.686745 91.414642,120.680878 90.309151,120.224907 
	C85.544701,120.374054 80.780243,120.523209 75.370613,120.732506 
	C74.946037,120.662895 74.521461,120.593277 73.823059,119.876785 
	C70.200317,119.521164 66.577583,119.165543 62.277683,118.816673 
	C61.202000,118.483971 60.126312,118.151276 58.956886,117.244431 
	C58.278976,117.210152 57.601067,117.175873 56.181747,117.082733 
	C55.458939,116.928947 54.736134,116.775169 53.741577,116.282906 
	C53.500252,116.088661 53.226685,116.016418 53.004650,116.011848 
	C53.004650,116.011848 52.938656,116.087524 52.837242,115.318527 
	C50.876659,114.892258 48.916073,114.465988 47.001926,114.002502 
	C47.001926,114.002502 46.966690,114.051041 46.857506,113.302773 
	C45.233917,112.870026 43.610325,112.437279 41.496029,111.911583 
	C41.496029,111.911583 41.067623,111.654877 40.880146,111.011757 
	C38.670002,109.628227 36.466484,108.233971 34.247917,106.864075 
	C31.848663,105.382614 30.400400,106.205566 30.132923,108.856514 
	C29.923073,110.936325 35.315666,114.987831 38.613155,115.116409 
	C39.409622,115.739693 40.206089,116.362976 41.054977,117.643272 
	C42.052971,118.052376 43.050964,118.461487 44.642952,118.987350 
	C45.038303,119.060135 45.433651,119.132912 46.285595,119.713051 
	C70.412788,132.273605 94.566811,131.728622 119.496742,119.897209 
	C120.426025,119.550217 121.332092,119.034447 122.290962,118.902550 
	C123.298630,118.763931 124.559959,118.682732 125.316353,119.178146 
	C125.765831,119.472534 125.529800,120.932678 125.467148,121.859589 
	C125.389496,123.008324 125.172256,124.147629 125.015320,125.291008 
	C126.363762,124.970116 128.182968,125.079178 128.955994,124.232758 
	C130.287094,122.775253 130.966751,120.722809 131.957886,118.952911 
	C131.957886,118.952911 131.912720,118.960060 132.478851,118.646172 
	C132.619827,118.039177 132.760803,117.432175 132.945206,116.413681 
	C132.945206,116.413681 133.131180,116.044052 133.836197,115.859665 
	C134.862762,112.925514 138.295212,110.049332 133.680145,106.683456 
	C133.442474,106.469727 133.214493,106.246109 132.884537,105.296028 
	C131.244797,105.218475 129.605072,105.140923 127.327217,105.164543 
	C126.898094,105.140831 126.468964,105.117119 125.543304,104.514374 
	C123.464043,104.167007 121.045021,102.652046 119.984627,106.044785 
	C119.984627,106.044785 120.083145,106.084145 119.317917,105.991028 
	C118.222893,106.673233 117.127869,107.355431 115.838837,108.499374 
	C115.892372,109.044785 115.945915,109.590202 116.416992,110.658440 
	C118.731117,112.140198 118.278931,113.347015 116.081306,114.459007 
	C114.675095,115.170547 113.317474,115.978111 111.347824,116.927513 
	C110.938843,116.972191 110.529861,117.016876 109.419220,116.971977 
M69.750008,103.819771 
	C72.164299,103.819771 74.578598,103.819771 77.172417,103.819771 
	C77.172417,94.964424 77.333267,86.478851 77.107414,78.003578 
	C76.986877,73.480202 73.985062,70.672127 69.659546,70.991142 
	C66.385483,71.232597 63.236855,73.175034 59.634571,74.507668 
	C55.608715,69.280899 51.157101,68.954361 45.269680,74.480919 
	C43.678104,70.665955 42.648369,70.362427 37.229931,72.054314 
	C37.229931,82.673126 37.229931,93.259613 37.229931,103.766586 
	C39.978664,103.766586 42.381588,103.766586 45.089680,103.766586 
	C45.089680,100.951942 45.081406,98.476578 45.091534,96.001274 
	C45.108574,91.836891 44.701096,87.602577 45.353104,83.539017 
	C45.659260,81.630890 48.015350,80.051674 49.442474,78.323410 
	C50.614204,80.055183 52.123093,81.658409 52.848335,83.560425 
	C53.403656,85.016808 52.973160,86.850670 52.973858,88.516640 
	C52.976002,93.617859 52.974640,98.719086 52.974640,103.758621 
	C56.075581,103.758621 58.472546,103.758621 61.190506,103.758621 
	C61.190506,100.277817 61.185078,97.133568 61.191986,93.989357 
	C61.199303,90.657585 61.091923,87.319016 61.271210,83.996170 
	C61.421860,81.204102 62.176659,78.370918 65.706512,78.504311 
	C69.243271,78.637970 69.031189,81.561440 69.047646,84.101410 
	C69.088661,90.429756 69.136459,96.758057 69.750008,103.819771 
M21.318731,80.736031 
	C20.199522,81.756599 19.241926,83.233002 17.926260,83.699455 
	C15.458178,84.574486 12.652233,84.527443 10.220700,85.468338 
	C4.928807,87.516075 2.487371,93.120171 4.122101,98.624825 
	C5.477487,103.188835 10.205079,105.574081 15.890379,104.149246 
	C18.222092,103.564873 20.341908,102.135002 22.761169,100.993973 
	C23.804741,101.952995 25.112049,103.154381 27.097027,104.978531 
	C28.887939,102.708847 31.849888,100.668488 31.861309,98.611740 
	C31.892618,92.973541 30.395044,87.346497 30.040684,81.681389 
	C29.626125,75.053909 27.757113,72.150070 22.033173,70.856140 
	C14.753029,69.210426 8.046069,71.620857 5.617496,76.879143 
	C5.121959,77.952057 5.110227,79.248421 4.773914,80.958061 
	C8.395109,80.635674 11.515793,82.723640 13.824675,78.356262 
	C15.329668,75.509491 18.999348,76.525917 21.318731,80.736031 
M108.886993,82.747032 
	C108.665543,73.868019 104.871300,70.048012 96.521942,70.298004 
	C88.635124,70.534149 83.999992,74.412010 84.343407,81.696487 
	C86.953949,80.934349 89.378304,80.293159 91.756828,79.512367 
	C93.891182,78.811722 96.111435,77.151237 98.029884,77.475517 
	C99.168785,77.668030 99.797066,80.881393 100.816925,83.086838 
	C93.018921,84.563629 85.050903,83.809654 82.955605,92.793221 
	C82.053558,96.660774 82.447815,100.692574 86.292870,102.969765 
	C91.769844,106.213463 96.808609,104.556679 101.340897,100.679382 
	C102.687164,101.946793 103.973938,103.158203 105.576965,104.667328 
	C107.680588,102.856041 109.601738,101.201859 111.522888,99.547676 
	C110.983940,99.418823 110.444992,99.289978 109.906052,99.161133 
	C109.566383,94.000374 109.226715,88.839622 108.886993,82.747032 
M185.898331,71.306206 
	C184.515213,72.427124 183.132111,73.548042 182.810120,73.808983 
	C180.298508,72.711815 178.599518,71.512550 176.809891,71.357147 
	C175.714310,71.262001 173.478424,72.745529 173.459579,73.559532 
	C173.226501,83.632812 173.307419,93.713348 173.307419,103.793404 
	C176.492416,103.793404 178.900208,103.793404 181.800751,103.793404 
	C181.800751,101.510132 181.775665,99.549026 181.805664,97.588760 
	C181.881958,92.602028 181.662445,87.576836 182.259293,82.651611 
	C182.451157,81.068573 184.822495,79.749664 186.196747,78.309921 
	C187.388901,79.675224 188.923370,80.879837 189.663818,82.457176 
	C190.246140,83.697624 189.877518,85.398018 189.880966,86.894226 
	C189.893890,92.497749 189.886124,98.101318 189.886124,103.845062 
	C192.850281,103.845062 195.249451,103.845062 198.075684,103.845062 
	C198.075684,95.966805 198.197525,88.353348 198.042007,80.745544 
	C197.880905,72.863914 194.683273,70.268074 185.898331,71.306206 
M167.222733,96.456551 
	C169.861801,90.267410 169.629684,84.058029 166.820312,78.070908 
	C164.499405,73.124817 160.449234,70.602623 154.804245,70.741913 
	C149.349228,70.876518 145.224976,73.438683 143.629990,78.393806 
	C142.296448,82.536797 141.848862,87.187241 142.073090,91.558372 
	C142.428116,98.479073 146.719925,103.252411 152.546906,104.552429 
	C158.319489,105.840309 162.901077,103.495743 167.222733,96.456551 
M118.888260,71.124077 
	C113.758537,71.610535 116.753868,75.083481 116.062462,77.922943 
	C119.925201,77.922943 123.294785,77.922943 126.797508,77.922943 
	C123.484688,86.864929 113.020401,91.996765 115.368156,103.663467 
	C123.152176,99.721970 130.710220,100.192192 138.181473,103.342857 
	C139.525497,96.169296 139.525497,96.169296 127.471863,92.750465 
	C130.005737,85.325272 138.922226,81.005943 137.983536,71.121864 
	C131.722961,71.121864 125.771065,71.121864 118.888260,71.124077 
z"/>
<path fill="#060606" opacity="1.000000" stroke="none" 
	d="
M69.465775,103.453079 
	C69.136459,96.758057 69.088661,90.429756 69.047646,84.101410 
	C69.031189,81.561440 69.243271,78.637970 65.706512,78.504311 
	C62.176659,78.370918 61.421860,81.204102 61.271210,83.996170 
	C61.091923,87.319016 61.199303,90.657585 61.191986,93.989357 
	C61.185078,97.133568 61.190506,100.277817 61.190506,103.758621 
	C58.472546,103.758621 56.075581,103.758621 52.974640,103.758621 
	C52.974640,98.719086 52.976002,93.617859 52.973858,88.516640 
	C52.973160,86.850670 53.403656,85.016808 52.848335,83.560425 
	C52.123093,81.658409 50.614204,80.055183 49.442474,78.323410 
	C48.015350,80.051674 45.659260,81.630890 45.353104,83.539017 
	C44.701096,87.602577 45.108574,91.836891 45.091534,96.001274 
	C45.081406,98.476578 45.089680,100.951942 45.089680,103.766586 
	C42.381588,103.766586 39.978664,103.766586 37.229931,103.766586 
	C37.229931,93.259613 37.229931,82.673126 37.229931,72.054314 
	C42.648369,70.362427 43.678104,70.665955 45.269680,74.480919 
	C51.157101,68.954361 55.608715,69.280899 59.634571,74.507668 
	C63.236855,73.175034 66.385483,71.232597 69.659546,70.991142 
	C73.985062,70.672127 76.986877,73.480202 77.107414,78.003578 
	C77.333267,86.478851 77.172417,94.964424 77.172417,103.819771 
	C74.578598,103.819771 72.164299,103.819771 69.465775,103.453079 
z"/>
<path fill="#0B0B0B" opacity="1.000000" stroke="none" 
	d="
M21.243431,80.302681 
	C18.999348,76.525917 15.329668,75.509491 13.824675,78.356262 
	C11.515793,82.723640 8.395109,80.635674 4.773914,80.958061 
	C5.110227,79.248421 5.121959,77.952057 5.617496,76.879143 
	C8.046069,71.620857 14.753029,69.210426 22.033173,70.856140 
	C27.757113,72.150070 29.626125,75.053909 30.040684,81.681389 
	C30.395044,87.346497 31.892618,92.973541 31.861309,98.611740 
	C31.849888,100.668488 28.887939,102.708847 27.097027,104.978531 
	C25.112049,103.154381 23.804741,101.952995 22.761169,100.993973 
	C20.341908,102.135002 18.222092,103.564873 15.890379,104.149246 
	C10.205079,105.574081 5.477487,103.188835 4.122101,98.624825 
	C2.487371,93.120171 4.928807,87.516075 10.220700,85.468338 
	C12.652233,84.527443 15.458178,84.574486 17.926260,83.699455 
	C19.241926,83.233002 20.199522,81.756599 21.243431,80.302681 
M17.999958,97.989922 
	C21.742311,95.634026 21.583887,92.133354 21.024300,88.012909 
	C17.180206,88.678810 13.244211,88.574219 12.695877,93.511902 
	C12.350484,96.622139 13.488027,98.758385 17.999958,97.989922 
z"/>
<path fill="#0B0B0B" opacity="1.000000" stroke="none" 
	d="
M108.887024,83.212952 
	C109.226715,88.839622 109.566383,94.000374 109.906052,99.161133 
	C110.444992,99.289978 110.983940,99.418823 111.522888,99.547676 
	C109.601738,101.201859 107.680588,102.856041 105.576965,104.667328 
	C103.973938,103.158203 102.687164,101.946793 101.340897,100.679382 
	C96.808609,104.556679 91.769844,106.213463 86.292870,102.969765 
	C82.447815,100.692574 82.053558,96.660774 82.955605,92.793221 
	C85.050903,83.809654 93.018921,84.563629 100.816925,83.086838 
	C99.797066,80.881393 99.168785,77.668030 98.029884,77.475517 
	C96.111435,77.151237 93.891182,78.811722 91.756828,79.512367 
	C89.378304,80.293159 86.953949,80.934349 84.343407,81.696487 
	C83.999992,74.412010 88.635124,70.534149 96.521942,70.298004 
	C104.871300,70.048012 108.665543,73.868019 108.887024,83.212952 
M91.351997,94.492455 
	C91.908890,97.387741 93.455330,99.404388 96.509438,98.006294 
	C100.834236,96.026512 100.487282,92.135590 99.791809,88.052879 
	C95.831467,88.569145 92.119102,88.908875 91.351997,94.492455 
z"/>
<path fill="#0C0C0C" opacity="1.000000" stroke="none" 
	d="
M186.246628,71.183075 
	C194.683273,70.268074 197.880905,72.863914 198.042007,80.745544 
	C198.197525,88.353348 198.075684,95.966805 198.075684,103.845062 
	C195.249451,103.845062 192.850281,103.845062 189.886124,103.845062 
	C189.886124,98.101318 189.893890,92.497749 189.880966,86.894226 
	C189.877518,85.398018 190.246140,83.697624 189.663818,82.457176 
	C188.923370,80.879837 187.388901,79.675224 186.196747,78.309921 
	C184.822495,79.749664 182.451157,81.068573 182.259293,82.651611 
	C181.662445,87.576836 181.881958,92.602028 181.805664,97.588760 
	C181.775665,99.549026 181.800751,101.510132 181.800751,103.793404 
	C178.900208,103.793404 176.492416,103.793404 173.307419,103.793404 
	C173.307419,93.713348 173.226501,83.632812 173.459579,73.559532 
	C173.478424,72.745529 175.714310,71.262001 176.809891,71.357147 
	C178.599518,71.512550 180.298508,72.711815 182.810120,73.808983 
	C183.132111,73.548042 184.515213,72.427124 186.246628,71.183075 
z"/>
<path fill="#0B0B0B" opacity="1.000000" stroke="none" 
	d="
M167.088959,96.817879 
	C162.901077,103.495743 158.319489,105.840309 152.546906,104.552429 
	C146.719925,103.252411 142.428116,98.479073 142.073090,91.558372 
	C141.848862,87.187241 142.296448,82.536797 143.629990,78.393806 
	C145.224976,73.438683 149.349228,70.876518 154.804245,70.741913 
	C160.449234,70.602623 164.499405,73.124817 166.820312,78.070908 
	C169.629684,84.058029 169.861801,90.267410 167.088959,96.817879 
M151.058014,93.859566 
	C152.563751,95.323425 154.069489,96.787285 155.575226,98.251152 
	C156.947220,96.592941 159.243057,95.065742 159.500656,93.249474 
	C160.052567,89.357880 159.930527,85.255585 159.300522,81.366570 
	C159.038147,79.747063 156.774567,78.451744 155.420959,77.009026 
	C153.938934,78.512009 151.481934,79.840569 151.175430,81.553841 
	C150.513077,85.256386 150.953552,89.156227 151.058014,93.859566 
z"/>
<path fill="#0C0B0B" opacity="1.000000" stroke="none" 
	d="
M119.353714,71.122971 
	C125.771065,71.121864 131.722961,71.121864 137.983536,71.121864 
	C138.922226,81.005943 130.005737,85.325272 127.471863,92.750465 
	C139.525497,96.169296 139.525497,96.169296 138.181473,103.342857 
	C130.710220,100.192192 123.152176,99.721970 115.368156,103.663467 
	C113.020401,91.996765 123.484688,86.864929 126.797508,77.922943 
	C123.294785,77.922943 119.925201,77.922943 116.062462,77.922943 
	C116.753868,75.083481 113.758537,71.610535 119.353714,71.122971 
z"/>
<path fill="#E9A332" opacity="1.000000" stroke="none" 
	d="
M118.744011,119.861366 
	C94.566811,131.728622 70.412788,132.273605 46.137566,119.358429 
	C45.989540,119.003807 46.148884,118.801186 46.518417,118.863205 
	C54.222889,121.286415 61.413776,124.722374 68.930153,125.729752 
	C77.811714,126.920090 87.083000,126.876900 95.983444,125.759827 
	C104.148865,124.735001 112.390587,122.462677 119.142769,117.412689 
	C118.988197,118.464890 118.866104,119.163124 118.744011,119.861366 
z"/>
<path fill="#FEF4CF" opacity="1.000000" stroke="none" 
	d="
M119.120377,119.879288 
	C118.866104,119.163124 118.988197,118.464890 119.348526,117.215179 
	C118.728973,116.503693 117.871170,116.343681 116.692871,116.112976 
	C115.834129,116.310196 115.295883,116.578110 114.567703,116.867867 
	C114.377769,116.889717 114.008743,116.989899 113.666092,116.922745 
	C112.861649,116.817940 112.399864,116.780289 111.938080,116.742630 
	C113.317474,115.978111 114.675095,115.170547 116.081306,114.459007 
	C118.278931,113.347015 118.731117,112.140198 116.666000,110.312119 
	C119.407616,109.848999 121.902405,109.601776 124.392342,109.643517 
	C129.066269,109.721855 129.978012,111.067154 128.669434,115.508224 
	C128.068939,117.546158 127.540878,119.605438 126.979965,121.655029 
	C127.309837,121.801094 127.639702,121.947151 127.969566,122.093208 
	C129.286316,121.035492 130.603073,119.977768 131.919815,118.920052 
	C130.966751,120.722809 130.287094,122.775253 128.955994,124.232758 
	C128.182968,125.079178 126.363762,124.970116 125.015320,125.291008 
	C125.172256,124.147629 125.389496,123.008324 125.467148,121.859589 
	C125.529800,120.932678 125.765831,119.472534 125.316353,119.178146 
	C124.559959,118.682732 123.298630,118.763931 122.290962,118.902550 
	C121.332092,119.034447 120.426025,119.550217 119.120377,119.879288 
z"/>
<path fill="#E99F2B" opacity="1.000000" stroke="none" 
	d="
M131.938843,118.936478 
	C130.603073,119.977768 129.286316,121.035492 127.969566,122.093208 
	C127.639702,121.947151 127.309837,121.801094 126.979965,121.655029 
	C127.540878,119.605438 128.068939,117.546158 128.669434,115.508224 
	C129.978012,111.067154 129.066269,109.721855 124.392342,109.643517 
	C121.902405,109.601776 119.407616,109.848999 116.457237,110.050705 
	C115.945915,109.590202 115.892372,109.044785 116.264145,108.238060 
	C117.820679,107.345879 118.951912,106.715019 120.083145,106.084152 
	C120.083145,106.084145 119.984627,106.044785 120.419777,106.096565 
	C122.583229,105.796700 124.311539,105.445053 126.039841,105.093407 
	C126.468964,105.117119 126.898094,105.140831 127.944321,105.328850 
	C130.039673,105.666306 131.517944,105.839455 132.996201,106.012604 
	C133.214493,106.246109 133.442474,106.469727 133.858276,107.263077 
	C133.734680,110.576485 133.432938,113.310265 133.131195,116.044052 
	C133.131180,116.044052 132.945206,116.413681 132.673523,116.805939 
	C132.238800,117.785477 132.075760,118.372772 131.912720,118.960060 
	C131.912720,118.960060 131.957886,118.952911 131.938843,118.936478 
z"/>
<path fill="#E9A332" opacity="1.000000" stroke="none" 
	d="
M95.027687,120.127655 
	C95.464752,120.112267 95.901810,120.096870 97.011948,120.045639 
	C98.807854,119.719078 99.930687,119.428352 101.053520,119.137634 
	C101.488281,119.104385 101.923050,119.071144 102.996857,119.007629 
	C104.236931,118.754303 104.837975,118.531242 105.439018,118.308182 
	C105.793678,118.277962 106.148346,118.247749 107.091461,118.152405 
	C108.137123,118.111259 108.594337,118.135254 108.950012,118.518677 
	C104.808418,119.907257 100.806503,121.588318 96.720215,121.827431 
	C88.652893,122.299515 80.535011,122.114014 72.446388,121.893776 
	C69.912209,121.824760 67.404793,120.772949 64.957275,120.070694 
	C65.029419,119.970390 65.175987,119.771454 65.592529,119.780106 
	C68.705002,120.033722 71.400948,120.278694 74.096886,120.523666 
	C74.521461,120.593277 74.946037,120.662895 76.145309,120.818909 
	C81.607986,120.828552 86.295967,120.751785 90.983940,120.675018 
	C91.414642,120.680878 91.845337,120.686745 92.867531,120.700180 
	C93.981911,120.514381 94.504799,120.321014 95.027687,120.127655 
z"/>
<path fill="#FEF4CF" opacity="1.000000" stroke="none" 
	d="
M38.014797,114.974045 
	C35.315666,114.987831 29.923073,110.936325 30.132923,108.856514 
	C30.400400,106.205566 31.848663,105.382614 34.247917,106.864075 
	C36.466484,108.233971 38.670002,109.628227 40.604675,111.397034 
	C38.758179,111.459801 37.187145,111.137291 34.627842,110.611908 
	C36.248878,112.699677 37.131836,113.836861 38.014797,114.974045 
z"/>
<path fill="#E9A332" opacity="1.000000" stroke="none" 
	d="
M38.313976,115.045227 
	C37.131836,113.836861 36.248878,112.699677 34.627842,110.611908 
	C37.187145,111.137291 38.758179,111.459801 40.698418,111.718597 
	C41.067623,111.654877 41.496029,111.911583 41.953232,112.225868 
	C43.929188,113.043777 45.447941,113.547409 46.966690,114.051041 
	C46.966690,114.051041 47.001926,114.002502 47.163940,114.272034 
	C48.257420,114.973839 49.188877,115.406105 50.043991,115.932533 
	C49.967644,116.026688 49.808479,116.209572 49.447739,116.150452 
	C47.626240,116.472687 44.011997,114.519157 46.148884,118.801186 
	C46.148884,118.801186 45.989540,119.003807 45.909271,119.104752 
	C45.433651,119.132912 45.038303,119.060135 44.194435,118.655281 
	C42.831467,117.877563 41.917011,117.431908 41.002556,116.986252 
	C40.206089,116.362976 39.409622,115.739693 38.313976,115.045227 
z"/>
<path fill="#FEF4CF" opacity="1.000000" stroke="none" 
	d="
M73.959976,120.200226 
	C71.400948,120.278694 68.705002,120.033722 65.350739,119.592529 
	C64.113220,119.200844 63.534035,119.005379 62.954842,118.809921 
	C66.577583,119.165543 70.200317,119.521164 73.959976,120.200226 
z"/>
<path fill="#FEF4CF" opacity="1.000000" stroke="none" 
	d="
M133.483704,115.951859 
	C133.432938,113.310265 133.734680,110.576485 134.043182,107.415436 
	C138.295212,110.049332 134.862762,112.925514 133.483704,115.951859 
z"/>
<path fill="#FEF4CF" opacity="1.000000" stroke="none" 
	d="
M90.646545,120.449966 
	C86.295967,120.751785 81.607986,120.828552 76.467903,120.788834 
	C80.780243,120.523209 85.544701,120.374054 90.646545,120.449966 
z"/>
<path fill="#FEF4CF" opacity="1.000000" stroke="none" 
	d="
M125.791573,104.803894 
	C124.311539,105.445053 122.583229,105.796700 120.463493,106.127411 
	C121.045021,102.652046 123.464043,104.167007 125.791573,104.803894 
z"/>
<path fill="#E9A332" opacity="1.000000" stroke="none" 
	d="
M62.616264,118.813293 
	C63.534035,119.005379 64.113220,119.200844 64.934204,119.583878 
	C65.175987,119.771454 65.029419,119.970390 64.552849,120.027794 
	C61.661171,119.468758 59.246059,118.852325 56.891056,118.154572 
	C56.951160,118.073257 57.076302,117.914391 57.406673,117.908157 
	C58.174904,117.874146 58.612766,117.846367 59.050625,117.818581 
	C60.126312,118.151276 61.202000,118.483971 62.616264,118.813293 
z"/>
<path fill="#E9A332" opacity="1.000000" stroke="none" 
	d="
M54.013325,116.621384 
	C54.736134,116.775169 55.458939,116.928947 56.566971,117.310051 
	C56.952194,117.537369 57.076302,117.914391 57.076302,117.914391 
	C57.076302,117.914391 56.951160,118.073257 56.489262,118.095154 
	C53.954403,117.481216 51.881443,116.845390 49.808479,116.209564 
	C49.808479,116.209572 49.967644,116.026688 50.397186,115.962311 
	C51.530701,115.961128 52.234680,116.024330 52.938656,116.087524 
	C52.938656,116.087524 53.004650,116.011848 53.074684,116.240601 
	C53.144714,116.469353 53.555885,116.677513 53.555885,116.677513 
	C53.555885,116.677513 54.013325,116.621384 54.013325,116.621384 
z"/>
<path fill="#FEF4CF" opacity="1.000000" stroke="none" 
	d="
M132.940369,105.654312 
	C131.517944,105.839455 130.039673,105.666306 128.263367,105.278259 
	C129.605072,105.140923 131.244797,105.218475 132.940369,105.654312 
z"/>
<path fill="#FEF4CF" opacity="1.000000" stroke="none" 
	d="
M52.887947,115.703033 
	C52.234680,116.024330 51.530701,115.961128 50.473534,115.868149 
	C49.188877,115.406105 48.257420,114.973839 47.140724,114.290642 
	C48.916073,114.465988 50.876659,114.892258 52.887947,115.703033 
z"/>
<path fill="#FEF4CF" opacity="1.000000" stroke="none" 
	d="
M100.848511,118.854736 
	C99.930687,119.428352 98.807854,119.719078 97.326927,119.950378 
	C98.193718,119.451256 99.418610,119.011551 100.848511,118.854736 
z"/>
<path fill="#FEF4CF" opacity="1.000000" stroke="none" 
	d="
M41.028770,117.314758 
	C41.917011,117.431908 42.831467,117.877563 43.897438,118.596909 
	C43.050964,118.461487 42.052971,118.052376 41.028770,117.314758 
z"/>
<path fill="#FEF4CF" opacity="1.000000" stroke="none" 
	d="
M46.912098,113.676910 
	C45.447941,113.547409 43.929188,113.043777 42.198586,112.272346 
	C43.610325,112.437279 45.233917,112.870026 46.912098,113.676910 
z"/>
<path fill="#FEF4CF" opacity="1.000000" stroke="none" 
	d="
M119.700531,106.037590 
	C118.951912,106.715019 117.820679,107.345879 116.361145,108.007187 
	C117.127869,107.355431 118.222893,106.673233 119.700531,106.037590 
z"/>
<path fill="#E9A332" opacity="1.000000" stroke="none" 
	d="
M111.642952,116.835075 
	C112.399864,116.780289 112.861649,116.817940 113.418884,117.191162 
	C112.309540,117.663483 111.104744,117.800232 109.955902,117.718300 
	C110.011856,117.499626 110.120880,117.061562 110.120880,117.061562 
	C110.529861,117.016876 110.938843,116.972191 111.642952,116.835075 
z"/>
<path fill="#FEF4CF" opacity="1.000000" stroke="none" 
	d="
M57.406673,117.908157 
	C57.076302,117.914391 56.952194,117.537369 56.937675,117.339478 
	C57.601067,117.175873 58.278976,117.210152 59.003754,117.531509 
	C58.612766,117.846367 58.174904,117.874146 57.406673,117.908157 
z"/>
<path fill="#FEF4CF" opacity="1.000000" stroke="none" 
	d="
M94.900917,119.889915 
	C94.504799,120.321014 93.981911,120.514381 93.180588,120.614883 
	C93.526154,120.232071 94.150146,119.942123 94.900917,119.889915 
z"/>
<path fill="#FEF4CF" opacity="1.000000" stroke="none" 
	d="
M109.770050,117.016769 
	C110.120880,117.061562 110.011856,117.499626 109.734413,117.737732 
	C109.456970,117.975845 109.051552,118.159241 109.051552,118.159241 
	C108.594337,118.135254 108.137123,118.111259 107.337784,118.044029 
	C107.803505,117.657860 108.611359,117.314919 109.770050,117.016769 
z"/>
<path fill="#FEF4CF" opacity="1.000000" stroke="none" 
	d="
M132.195786,118.803116 
	C132.075760,118.372772 132.238800,117.785477 132.651810,117.011688 
	C132.760803,117.432175 132.619827,118.039177 132.195786,118.803116 
z"/>
<path fill="#FEF4CF" opacity="1.000000" stroke="none" 
	d="
M105.106773,118.217361 
	C104.837975,118.531242 104.236931,118.754303 103.312012,118.917503 
	C103.583603,118.613937 104.179062,118.370239 105.106773,118.217361 
z"/>
<path fill="#FEF4CF" opacity="1.000000" stroke="none" 
	d="
M53.877449,116.452148 
	C54.013325,116.621384 53.555885,116.677513 53.555885,116.677513 
	C53.555885,116.677513 53.144714,116.469353 53.032795,116.267761 
	C53.226685,116.016418 53.500252,116.088661 53.877449,116.452148 
z"/>
<path fill="#F3F3F3" opacity="1.000000" stroke="none" 
	d="
M17.591696,98.124298 
	C13.488027,98.758385 12.350484,96.622139 12.695877,93.511902 
	C13.244211,88.574219 17.180206,88.678810 21.024300,88.012909 
	C21.583887,92.133354 21.742311,95.634026 17.591696,98.124298 
z"/>
<path fill="#F3F3F3" opacity="1.000000" stroke="none" 
	d="
M91.377335,94.111603 
	C92.119102,88.908875 95.831467,88.569145 99.791809,88.052879 
	C100.487282,92.135590 100.834236,96.026512 96.509438,98.006294 
	C93.455330,99.404388 91.908890,97.387741 91.377335,94.111603 
z"/>
<path fill="#F7F7F7" opacity="1.000000" stroke="none" 
	d="
M151.000458,93.417465 
	C150.953552,89.156227 150.513077,85.256386 151.175430,81.553841 
	C151.481934,79.840569 153.938934,78.512009 155.420959,77.009018 
	C156.774567,78.451744 159.038147,79.747063 159.300522,81.366570 
	C159.930527,85.255585 160.052567,89.357880 159.500656,93.249474 
	C159.243057,95.065742 156.947220,96.592941 155.575226,98.251152 
	C154.069489,96.787285 152.563751,95.323425 151.000458,93.417465 
z"/>
<path fill="#F39704" opacity="1.000000" stroke="none" 
	d="
M108.950012,118.518677 
	C109.051552,118.159241 109.456970,117.975845 109.678467,117.956406 
	C111.104744,117.800232 112.309540,117.663483 113.761536,117.258316 
	C114.008743,116.989899 114.377769,116.889717 114.879150,116.900688 
	C115.924820,116.668991 116.469093,116.426331 117.013374,116.183670 
	C117.871170,116.343681 118.728973,116.503693 119.381012,116.861214 
	C112.390587,122.462677 104.148865,124.735001 95.983444,125.759827 
	C87.083000,126.876900 77.811714,126.920090 68.930153,125.729752 
	C61.413776,124.722374 54.222889,121.286415 46.518417,118.863205 
	C44.011997,114.519157 47.626240,116.472687 49.447739,116.150452 
	C51.881443,116.845390 53.954403,117.481216 56.429157,118.176468 
	C59.246059,118.852325 61.661171,119.468758 64.480705,120.128098 
	C67.404793,120.772949 69.912209,121.824760 72.446388,121.893776 
	C80.535011,122.114014 88.652893,122.299515 96.720215,121.827431 
	C100.806503,121.588318 104.808418,119.907257 108.950012,118.518677 
z"/>
<path fill="#E9A332" opacity="1.000000" stroke="none" 
	d="
M116.692871,116.112976 
	C116.469093,116.426331 115.924820,116.668991 115.069092,116.878838 
	C115.295883,116.578110 115.834129,116.310196 116.692871,116.112976 
z"/>
</svg>