<svg version="1.1" id="Layer_1" xmlns="http://www.w3.org/2000/svg" xmlns:xlink="http://www.w3.org/1999/xlink" x="0px" y="0px"
	 width="100%" viewBox="0 0 1500 1500" enable-background="new 0 0 1500 1500" xml:space="preserve">
<path fill="#BB0000" opacity="1.000000" stroke="none" 
	d="
M1024.000000,1501.000000 
	C682.666748,1501.000000 341.833466,1501.000000 1.000137,1501.000000 
	C1.000092,1001.000122 1.000092,501.000305 1.000046,1.000339 
	C500.999756,1.000226 1000.999512,1.000226 1500.999512,1.000113 
	C1500.999634,500.999664 1500.999634,1000.999329 1500.999756,1500.999512 
	C1342.166626,1501.000000 1183.333374,1501.000000 1024.000000,1501.000000 
M268.831512,667.223145 
	C259.188965,694.770630 249.546417,722.318115 239.613403,750.695312 
	C238.847031,748.656494 238.409531,747.584717 238.037918,746.490540 
	C222.364365,700.341919 206.663849,654.202271 191.094223,608.018555 
	C189.926376,604.554504 188.480072,603.101440 184.528015,603.140442 
	C161.701828,603.365662 138.872253,603.250244 116.043831,603.250183 
	C114.442352,603.250183 112.840874,603.250183 111.293457,603.250183 
	C111.293457,606.688232 111.293457,609.449219 111.293457,612.705994 
	C118.287094,612.705994 125.024887,612.705994 132.066681,612.705994 
	C132.066681,614.185059 132.066681,615.158203 132.066666,616.131287 
	C132.066544,673.618958 132.082260,731.106567 132.028839,788.594177 
	C132.025452,792.239319 131.752747,795.929749 131.140045,799.519653 
	C129.642761,808.292358 124.608643,812.882507 115.728241,813.967590 
	C114.288353,814.143494 112.835808,814.215759 111.306900,814.342773 
	C111.306900,817.409546 111.306900,820.144897 111.306900,822.864258 
	C129.326355,822.864258 147.053268,822.864258 164.666565,822.864258 
	C164.666565,819.789612 164.666565,817.080261 164.666565,813.959167 
	C161.280655,813.959167 158.280853,814.171631 155.320984,813.918030 
	C147.458405,813.244385 143.417831,809.825195 142.002151,802.119873 
	C141.165298,797.564941 140.820984,792.859558 140.814758,788.221069 
	C140.737808,730.900208 140.762405,673.579102 140.775131,616.258118 
	C140.775391,615.104309 140.947372,613.950500 141.146942,611.443970 
	C142.059021,613.731567 142.448135,614.612671 142.766235,615.518738 
	C166.515411,683.161011 190.271210,750.801025 213.963028,818.463379 
	C215.028671,821.506775 215.959778,823.413025 219.994949,823.424744 
	C224.092148,823.436646 224.965393,821.383850 226.005264,818.392700 
	C248.016129,755.078003 270.072083,691.778992 292.128906,628.480286 
	C293.563660,624.362854 295.075958,620.272522 296.552216,616.169556 
	C296.750183,616.238525 296.948120,616.307495 297.146057,616.376465 
	C297.146057,682.133545 297.146057,747.890686 297.146057,814.261230 
	C290.228851,814.261230 283.528412,814.261230 276.729797,814.261230 
	C276.729797,817.482727 276.729797,820.088745 276.729797,822.905579 
	C305.347412,822.905579 333.719482,822.905579 362.157227,822.905579 
	C362.157227,819.841553 362.157227,817.092102 362.157227,813.980530 
	C355.387085,813.980530 348.947205,813.980530 342.320679,813.980530 
	C342.320679,746.725342 342.320679,679.836548 342.320679,612.386597 
	C349.136108,612.386597 355.711090,612.386597 362.276459,612.386597 
	C362.276459,609.220459 362.276459,606.618530 362.276459,603.979126 
	C361.602966,603.817566 361.133698,603.606873 360.664215,603.606384 
	C338.502350,603.585632 316.339966,603.654785 294.179138,603.499207 
	C290.950073,603.476562 290.422607,605.295410 289.626404,607.587646 
	C282.803955,627.228577 275.916504,646.847046 268.831512,667.223145 
M1392.181885,1014.758911 
	C1397.501465,1002.376282 1402.570068,989.877686 1408.222412,977.648926 
	C1412.508911,968.375122 1416.900513,958.704834 1429.650269,959.594360 
	C1429.650269,956.280945 1429.650269,953.551575 1429.650269,950.821655 
	C1413.378784,950.821655 1397.439697,950.821655 1381.413818,950.821655 
	C1381.413818,953.866394 1381.413818,956.624207 1381.413818,959.377808 
	C1386.099121,959.902954 1390.556641,960.193481 1394.931641,960.956299 
	C1398.731567,961.618713 1400.860962,964.158752 1400.172729,968.118835 
	C1399.493896,972.025696 1398.788086,976.035583 1397.300415,979.675903 
	C1390.189209,997.076294 1382.813721,1014.368835 1375.508301,1031.689575 
	C1375.110596,1032.632568 1374.495361,1033.483643 1373.713623,1034.843262 
	C1362.532837,1009.653442 1351.627441,985.084290 1340.423828,959.842896 
	C1346.626343,959.842896 1352.043945,959.842896 1357.686768,959.842896 
	C1357.686768,956.629211 1357.686768,953.856323 1357.686768,950.356689 
	C1321.958740,950.356689 1286.259888,950.356689 1250.402344,950.356689 
	C1250.402344,938.637024 1250.402466,927.641113 1250.402466,916.645203 
	C1250.402466,905.706482 1250.402344,894.767700 1250.402344,883.750122 
	C1248.254028,883.750122 1246.656982,883.750122 1244.730347,883.750122 
	C1244.218140,899.979736 1239.911743,914.837158 1230.541992,927.936035 
	C1220.862915,941.467407 1208.150024,950.037659 1191.060303,950.721497 
	C1191.060303,953.957031 1191.060303,956.832458 1191.060303,960.013672 
	C1196.561401,960.013672 1201.682373,960.013672 1207.274658,960.013672 
	C1207.274658,962.105530 1207.274536,963.889587 1207.274536,965.673584 
	C1207.274048,996.172607 1207.233887,1026.671753 1207.288818,1057.170654 
	C1207.319702,1074.306519 1217.196411,1087.287720 1233.713867,1090.674194 
	C1239.746338,1091.911011 1246.359985,1091.754150 1252.486084,1090.801758 
	C1266.579956,1088.610596 1276.166870,1079.900879 1283.247559,1067.645264 
	C1280.764648,1066.325317 1278.727905,1065.242554 1276.691162,1064.159912 
	C1277.379639,1064.930664 1278.067993,1065.701538 1278.756348,1066.472290 
	C1274.780884,1069.265869 1270.869141,1072.155884 1266.816284,1074.832153 
	C1259.348999,1079.763062 1252.218506,1076.693481 1250.940918,1067.990234 
	C1250.531494,1065.201782 1250.426636,1062.347778 1250.423584,1059.523682 
	C1250.389038,1028.191406 1250.402100,996.859009 1250.402100,965.526672 
	C1250.402100,963.763977 1250.402100,962.001343 1250.402100,959.871460 
	C1264.491333,959.871460 1277.963745,959.769958 1291.429077,960.031677 
	C1292.747803,960.057251 1294.581665,962.073364 1295.237061,963.575439 
	C1313.270020,1004.897461 1331.215454,1046.257935 1349.004761,1087.685303 
	C1349.850708,1089.654907 1349.828613,1092.572144 1349.030029,1094.578003 
	C1344.539062,1105.858276 1339.689331,1116.995728 1334.953979,1128.178589 
	C1333.720947,1131.090698 1332.565186,1134.043701 1331.148804,1136.865112 
	C1330.696289,1137.766724 1329.523804,1138.844482 1328.670776,1138.852905 
	C1327.853760,1138.861206 1326.870239,1137.698120 1326.245117,1136.841553 
	C1325.678223,1136.064453 1325.576416,1134.966309 1325.130615,1134.079346 
	C1320.997437,1125.854858 1314.354004,1121.556641 1305.105225,1121.769531 
	C1295.858765,1121.982300 1289.200195,1126.483276 1285.709473,1134.999023 
	C1282.232300,1143.481812 1283.699463,1151.416626 1290.048462,1158.108643 
	C1299.929321,1168.523193 1318.878540,1167.882324 1328.746216,1155.772339 
	C1334.526489,1148.678711 1339.000977,1140.208496 1342.656860,1131.749878 
	C1359.356079,1093.112549 1375.557861,1054.260376 1392.181885,1014.758911 
M289.041260,948.500000 
	C289.041412,970.997559 289.118744,993.495483 288.989960,1015.992310 
	C288.955750,1021.971375 288.649963,1027.995483 287.851379,1033.915771 
	C283.870636,1063.427002 262.453461,1082.110229 233.415512,1081.650635 
	C206.743423,1081.228516 190.496033,1069.154663 183.876831,1043.249146 
	C181.057144,1032.213623 179.291748,1020.613647 179.144714,1009.243042 
	C178.599533,967.087830 178.927841,924.921265 178.928024,882.758972 
	C178.928040,880.973511 178.928024,879.188110 178.928024,876.840698 
	C185.933197,876.840698 192.481155,876.840698 199.022598,876.840698 
	C199.022598,873.682495 199.022598,871.108887 199.022598,868.558350 
	C169.580566,868.558350 140.477921,868.558350 111.300323,868.558350 
	C111.300323,871.407227 111.300323,873.979858 111.300323,876.999634 
	C118.490585,876.999634 125.411690,876.999634 132.814133,876.999634 
	C132.814133,879.236572 132.814133,881.023621 132.814133,882.810730 
	C132.813919,927.639404 132.786591,972.468140 132.822098,1017.296814 
	C132.850479,1053.130615 153.107452,1079.954834 187.551224,1089.315918 
	C208.937988,1095.128418 230.459244,1094.675049 251.670837,1088.442383 
	C275.101562,1081.557739 290.402130,1066.194580 296.323181,1042.376099 
	C298.231323,1034.700317 299.137238,1026.590942 299.194183,1018.670593 
	C299.476959,979.343384 299.273224,940.012878 299.387238,900.683960 
	C299.401093,895.894165 299.878326,891.016907 300.885468,886.340576 
	C302.230560,880.095337 305.787994,877.423035 312.188873,877.017029 
	C315.303223,876.819519 318.440491,876.982910 321.797058,876.982910 
	C321.797058,873.914429 321.797058,871.343445 321.797058,868.529114 
	C303.504028,868.529114 285.420227,868.529114 267.110596,868.529114 
	C267.110596,871.339417 267.110596,873.907532 267.110596,877.087646 
	C270.313812,877.087646 273.287537,876.883606 276.224091,877.127441 
	C283.808319,877.757141 286.933319,880.650024 288.219940,888.064026 
	C288.588196,890.186035 288.799805,892.361755 288.813446,894.514526 
	C288.925446,912.176086 288.973663,929.838135 289.041260,948.500000 
M113.540749,470.059814 
	C116.822105,479.983337 119.210747,490.315887 123.538124,499.760132 
	C143.136063,542.531250 185.627930,563.978333 231.626358,555.033142 
	C243.742645,552.676941 254.473068,547.074097 265.287598,541.485901 
	C275.631714,536.140808 280.161224,538.896790 280.935699,550.395813 
	C280.965240,550.834473 281.270447,551.254517 281.418304,551.613159 
	C284.178375,551.613159 286.763977,551.613159 289.476746,551.613159 
	C289.476746,525.749878 289.476746,500.180359 289.476746,474.399353 
	C286.577667,474.399353 283.962036,474.399353 281.319000,474.399353 
	C281.117645,474.934814 280.877594,475.376495 280.786591,475.846985 
	C280.154175,479.116241 279.612885,482.404053 278.931641,485.662781 
	C274.493195,506.894073 265.294586,525.388489 247.142685,538.184631 
	C216.285721,559.937195 181.293457,548.516846 172.062592,512.583557 
	C160.529434,467.688141 161.669235,422.204193 170.440552,376.882782 
	C171.598175,370.901337 173.886551,365.045532 176.316681,359.419006 
	C189.768021,328.274811 219.343765,328.525574 238.299057,338.810059 
	C252.744476,346.647675 262.879425,358.764496 269.840271,373.274292 
	C274.695221,383.394348 278.045197,394.236420 282.186615,405.067688 
	C283.696136,405.067688 286.120819,405.067688 288.585693,405.067688 
	C288.585693,380.195740 288.585693,355.617889 288.585693,330.823547 
	C286.031799,330.823547 283.736206,330.823547 281.427155,330.823547 
	C278.178314,339.616638 274.371521,341.848175 265.060852,339.094116 
	C258.392090,337.121552 252.135071,333.786194 245.503586,331.651489 
	C236.680954,328.811432 227.777542,324.917633 218.725220,324.336487 
	C189.660919,322.470551 165.022293,333.409973 145.699371,354.810577 
	C116.234619,387.443512 106.022919,425.975403 113.540749,470.059814 
M956.574402,494.730621 
	C948.403320,496.773560 940.670532,499.629852 934.869812,506.183411 
	C919.508728,523.538208 924.741150,550.768066 945.746704,562.473633 
	C942.804138,563.966492 939.790161,565.277954 936.991699,566.950012 
	C915.805298,579.608459 913.918396,603.490417 932.918335,619.233704 
	C935.972168,621.764099 939.369690,623.988464 942.879578,625.840149 
	C956.031433,632.778748 970.236694,634.863037 984.939270,634.596130 
	C1025.674194,633.856567 1053.983276,604.928223 1053.445190,564.508301 
	C1053.092773,538.024048 1038.791016,523.848083 1012.301514,523.781921 
	C997.471619,523.744873 982.641541,523.804993 967.811768,523.759644 
	C962.151855,523.742310 956.467407,523.846252 950.839417,523.365234 
	C944.300537,522.806335 941.477234,517.575806 944.016052,511.513580 
	C947.354248,503.542358 961.652100,496.668884 969.851074,499.603790 
	C986.186890,505.451447 1001.819946,502.763428 1016.750610,495.514282 
	C1041.859741,483.323273 1049.211060,454.984528 1033.657959,432.232544 
	C1032.476562,430.504272 1031.175903,428.857483 1029.535645,426.638245 
	C1034.358154,423.908203 1038.779541,421.405212 1043.200928,418.902222 
	C1043.813354,420.763885 1043.602783,421.517334 1043.326782,422.246002 
	C1040.417847,429.927338 1043.068481,437.310699 1049.854248,440.400665 
	C1056.406250,443.384155 1064.114380,440.849701 1067.512207,434.594574 
	C1071.090332,428.007751 1068.886597,420.305115 1062.021606,415.974426 
	C1056.437988,412.452087 1050.118042,410.820801 1043.852783,412.666565 
	C1037.133545,414.646088 1030.802734,417.944122 1023.891663,420.838867 
	C1007.451843,410.588928 988.956970,408.129150 969.479309,412.929169 
	C958.044189,415.747192 948.272461,421.580597 940.655884,430.742218 
	C926.470154,447.805603 926.808350,479.716827 956.574402,494.730621 
M701.764832,412.175812 
	C688.120361,416.686279 677.077271,424.631256 668.681641,436.826019 
	C668.681641,429.476654 668.681641,422.127289 668.681641,414.670929 
	C646.875000,414.670929 625.628418,414.670929 604.420288,414.670929 
	C604.420288,417.544373 604.420288,420.110565 604.420288,423.111603 
	C611.502197,423.111603 618.257019,423.111603 625.076782,423.111603 
	C625.076782,463.295532 625.076782,503.029602 625.076782,543.217773 
	C618.091553,543.217773 611.340149,543.217773 604.344971,543.217773 
	C604.344971,546.238403 604.344971,548.807251 604.344971,551.643188 
	C631.909485,551.643188 659.302612,551.643188 686.896973,551.643188 
	C686.896973,548.843262 686.896973,546.268921 686.896973,543.116089 
	C680.780029,543.116089 674.890564,543.116089 668.756287,543.116089 
	C668.756287,518.236511 668.905029,493.934326 668.707642,469.634979 
	C668.558777,451.318115 678.166931,438.344208 691.182068,427.136536 
	C692.895325,425.661194 695.143494,424.566467 697.328796,423.921326 
	C706.803284,421.124115 717.708069,422.816315 719.210083,436.761139 
	C719.548157,439.899445 719.906677,443.057037 719.912109,446.206329 
	C719.964539,476.691589 719.943542,507.176941 719.943542,537.662292 
	C719.943542,539.424072 719.943542,541.185852 719.943542,543.371704 
	C713.655945,543.371704 708.054199,543.371704 702.363403,543.371704 
	C702.363403,546.374939 702.363403,548.942505 702.363403,551.641785 
	C729.890869,551.641785 757.126465,551.641785 784.547607,551.641785 
	C784.547607,548.805847 784.547607,546.238403 784.547607,543.122009 
	C777.404846,543.122009 770.513733,543.122009 763.234375,543.122009 
	C763.234375,540.776733 763.234314,538.977722 763.234314,537.178711 
	C763.234436,510.858032 763.308594,484.536987 763.172668,458.217041 
	C763.145264,452.915131 762.688599,447.554688 761.797852,442.328949 
	C758.667480,423.963348 747.584717,412.927246 729.735901,410.250488 
	C720.582764,408.877869 711.473694,409.220184 701.764832,412.175812 
M889.143921,798.496460 
	C889.143677,777.671814 889.126709,756.847107 889.170471,736.022583 
	C889.174561,734.053650 889.220703,731.973633 889.825500,730.135437 
	C893.365295,719.376160 898.845825,709.674194 907.216797,701.981934 
	C910.436951,699.022949 914.430603,696.431885 918.534790,695.000427 
	C929.431091,691.200195 937.325378,696.118774 939.456787,707.363525 
	C939.796570,709.156372 940.092712,710.992065 940.097778,712.808716 
	C940.190918,746.123657 940.238525,779.438599 940.272156,812.753601 
	C940.272644,813.199951 939.970398,813.646545 939.652466,814.528442 
	C934.160156,814.528442 928.596558,814.528442 922.919434,814.528442 
	C922.919434,817.613953 922.919434,820.226013 922.919434,822.868896 
	C950.364929,822.868896 977.586609,822.868896 1004.773682,822.868896 
	C1004.773682,819.950928 1004.773682,817.376648 1004.773682,814.333984 
	C997.730164,814.333984 990.976868,814.333984 983.793030,814.333984 
	C983.793030,804.569397 983.857239,795.280090 983.780212,785.992004 
	C983.598022,764.012085 983.933899,742.005920 982.929749,720.062195 
	C982.208618,704.304138 976.152710,690.861694 960.234863,684.222778 
	C937.175842,674.605530 905.510376,684.468811 891.940735,705.470703 
	C891.280945,706.491882 890.568726,707.479126 889.152466,709.544312 
	C889.152466,700.842407 889.152466,693.438416 889.152466,685.885071 
	C867.339233,685.885071 845.914368,685.885071 824.547363,685.885071 
	C824.547363,688.765381 824.547363,691.349243 824.547363,694.409180 
	C831.757751,694.409180 838.684509,694.409180 845.631348,694.409180 
	C845.631348,734.624207 845.631348,774.350952 845.631348,814.604248 
	C838.396667,814.604248 831.472839,814.604248 824.603516,814.604248 
	C824.603516,817.718323 824.603516,820.298096 824.603516,822.870300 
	C852.336975,822.870300 879.729126,822.870300 907.172913,822.870300 
	C907.172913,819.953613 907.172913,817.380249 907.172913,814.342163 
	C901.101990,814.342163 895.352539,814.342163 889.143921,814.342163 
	C889.143921,809.086243 889.143921,804.290527 889.143921,798.496460 
M432.694702,1043.499878 
	C432.694702,1055.434814 432.694702,1067.369629 432.694702,1079.876099 
	C426.402527,1079.876099 420.667297,1079.876099 414.999329,1079.876099 
	C414.999329,1082.931030 414.999329,1085.403564 414.999329,1088.086426 
	C442.529480,1088.086426 469.900543,1088.086426 497.126556,1088.086426 
	C497.126556,1085.148926 497.126556,1082.582153 497.126556,1079.666748 
	C490.005066,1079.666748 483.224609,1079.666748 475.943268,1079.666748 
	C475.943268,1077.538940 475.943268,1075.751709 475.943268,1073.964478 
	C475.943298,1048.476074 475.995148,1022.987549 475.899933,997.499573 
	C475.880707,992.351379 475.639557,987.158081 474.923065,982.066956 
	C472.623596,965.728210 465.440308,952.956177 448.433228,948.087341 
	C424.015869,941.096985 397.757904,950.746887 383.483459,971.773682 
	C383.095734,972.344910 382.550323,972.809204 381.360596,974.105286 
	C381.360596,965.825745 381.360596,958.590210 381.360596,951.160889 
	C359.562958,951.160889 338.194580,951.160889 316.965698,951.160889 
	C316.965698,954.096985 316.965698,956.676697 316.965698,959.684204 
	C324.070038,959.684204 330.828186,959.684204 337.796143,959.684204 
	C337.796143,999.842834 337.796143,1039.559448 337.796143,1079.818481 
	C330.649719,1079.818481 323.736176,1079.818481 316.933350,1079.818481 
	C316.933350,1082.940796 316.933350,1085.513306 316.933350,1088.188721 
	C344.692200,1088.188721 372.128479,1088.188721 399.673950,1088.188721 
	C399.673950,1085.359009 399.673950,1082.779297 399.673950,1079.656860 
	C393.557800,1079.656860 387.654663,1079.656860 381.375397,1079.656860 
	C381.375397,1077.482666 381.375397,1075.852539 381.375397,1074.222290 
	C381.375366,1050.399780 380.749359,1026.555542 381.578033,1002.761963 
	C382.214447,984.487183 392.213776,970.617310 407.557281,961.504456 
	C419.423523,954.456848 430.423340,960.939819 432.033875,974.568665 
	C432.151123,975.560852 432.324585,976.555786 432.330688,977.550293 
	C432.464111,999.200073 432.577484,1020.849915 432.694702,1043.499878 
M435.918732,555.364075 
	C453.995972,553.437744 466.599945,539.804382 463.922119,525.117981 
	C461.493408,525.117981 459.078003,525.117981 457.498474,525.117981 
	C455.576874,529.951660 454.246979,534.427246 452.014160,538.394714 
	C451.028107,540.146729 447.944977,542.086853 446.295746,541.727905 
	C444.503265,541.337830 442.680756,538.582153 441.944397,536.481750 
	C441.036896,533.893311 441.005737,530.917480 440.994873,528.107483 
	C440.897736,502.945648 441.119659,477.780273 440.764862,452.622742 
	C440.558380,437.980774 434.002869,426.234467 420.644745,419.945435 
	C395.370178,408.046204 369.266296,407.061493 343.084778,417.068573 
	C334.865631,420.210083 327.873749,425.470184 323.734497,433.592255 
	C319.590790,441.723114 319.928436,449.934509 325.573486,457.099579 
	C331.134735,464.158203 339.095154,465.122253 347.386475,463.153015 
	C355.832458,461.147095 360.916626,454.062775 360.831696,445.048218 
	C360.753510,436.754303 356.455872,431.592865 347.634766,429.199829 
	C346.581726,428.914154 345.527924,428.631226 344.474487,428.347046 
	C344.297699,427.867279 344.120911,427.387543 343.944122,426.907806 
	C346.650940,425.330811 349.180450,423.175812 352.096588,422.281403 
	C362.265381,419.162537 372.744415,418.634705 383.239532,420.175446 
	C390.918976,421.302887 397.590332,425.045654 398.121979,433.307373 
	C398.959015,446.314392 398.344452,459.414795 398.344452,472.825500 
	C388.770264,473.591644 378.828735,474.331482 368.898010,475.195282 
	C354.745758,476.426270 340.680756,478.215698 328.016907,485.318176 
	C314.345367,492.985779 308.865967,505.068268 309.812073,520.405762 
	C310.677460,534.434143 317.984344,544.124146 330.411133,549.924011 
	C344.709656,556.597412 359.660706,557.199646 374.826385,553.336853 
	C384.986389,550.749023 393.713104,545.758972 399.961456,536.641174 
	C407.564331,551.570251 419.752960,556.510498 435.918732,555.364075 
M801.679199,700.818176 
	C783.121277,684.716736 761.445923,679.170837 737.528015,682.956116 
	C678.095215,692.361877 661.902893,755.390747 687.437073,794.114868 
	C704.636047,820.198120 730.253662,829.652832 760.537781,826.069031 
	C789.817932,822.603943 811.213806,807.103394 820.520996,778.852600 
	C830.047607,749.935669 824.580383,723.306885 801.679199,700.818176 
M655.495361,728.500427 
	C655.495361,687.052368 655.495361,645.604309 655.495361,604.217346 
	C633.583618,604.217346 612.199524,604.217346 590.986450,604.217346 
	C590.986450,606.883606 590.986450,609.158752 590.986450,611.975037 
	C598.138916,611.975037 605.031372,611.975037 611.825073,611.975037 
	C611.825073,679.584595 611.825073,746.645630 611.825073,814.233887 
	C604.631714,814.233887 597.740906,814.233887 591.103516,814.233887 
	C591.103516,817.514954 591.103516,820.248291 591.103516,822.895508 
	C619.910278,822.895508 648.323486,822.895508 676.814941,822.895508 
	C676.814941,819.845764 676.814941,817.108704 676.814941,813.909180 
	C669.632690,813.909180 662.704956,813.909180 655.495361,813.909180 
	C655.495361,785.459900 655.495361,757.480225 655.495361,728.500427 
M520.063599,706.500000 
	C520.063599,742.241028 520.063599,777.981995 520.063599,814.087646 
	C512.629822,814.087646 505.857025,814.087646 498.870178,814.087646 
	C498.870178,817.197632 498.870178,819.938904 498.870178,822.869019 
	C527.617554,822.869019 556.144165,822.869019 584.683228,822.869019 
	C584.683228,819.790833 584.683228,817.053650 584.683228,813.820190 
	C577.511108,813.820190 570.617065,813.820190 563.298279,813.820190 
	C563.298279,743.606384 563.298279,673.898254 563.298279,604.221130 
	C541.486206,604.221130 520.124268,604.221130 498.922333,604.221130 
	C498.922333,606.889954 498.922333,609.164612 498.922333,612.012817 
	C506.070953,612.012817 512.963623,612.012817 519.703979,612.012817 
	C519.905151,612.906433 520.038086,613.221619 520.038208,613.536804 
	C520.053162,644.191223 520.058105,674.845581 520.063599,706.500000 
M428.875946,826.704773 
	C432.534607,826.739868 436.202911,826.965515 439.850372,826.780151 
	C470.695099,825.212341 492.529022,805.987061 498.882843,772.434082 
	C491.004669,771.209106 491.190491,771.271362 488.850159,778.257568 
	C487.111237,783.448364 485.214752,788.661987 482.688324,793.499817 
	C473.385101,811.314636 457.602020,819.554688 438.236267,817.144958 
	C426.666870,815.705383 418.727661,809.576721 415.347656,798.430664 
	C410.326385,781.872253 412.675629,764.837219 412.110352,747.460449 
	C441.221375,747.460449 469.631897,747.460449 498.251465,747.460449 
	C498.238770,736.909485 495.367828,727.644104 490.824738,718.809631 
	C476.620819,691.188843 447.337219,676.739563 419.417908,683.571106 
	C385.848083,691.785400 363.248749,723.784912 365.265137,760.248901 
	C367.259705,796.317749 391.638519,822.108337 428.875946,826.704773 
M726.623108,999.148010 
	C723.078125,1011.379333 722.751465,1023.788574 724.990906,1036.238647 
	C730.532776,1067.048828 756.042908,1089.843140 787.094849,1091.921753 
	C821.705078,1094.238647 845.176392,1078.332642 855.505066,1045.506836 
	C856.318298,1042.922363 856.820312,1040.239746 857.496521,1037.482056 
	C854.193787,1037.482056 851.619690,1037.482056 849.290649,1037.482056 
	C847.139893,1043.431152 845.447205,1049.200195 843.011414,1054.636353 
	C837.028076,1067.990234 827.926880,1078.097656 813.009033,1081.615356 
	C791.671509,1086.646729 775.248962,1077.935791 772.428467,1058.435913 
	C770.281067,1043.589600 770.602905,1028.385986 769.802734,1012.887390 
	C785.291077,1012.887390 799.585938,1012.887390 813.880859,1012.887390 
	C828.120483,1012.887390 842.360107,1012.887390 856.727844,1012.887390 
	C856.407104,1001.914246 853.598022,992.446045 848.853882,983.508667 
	C833.822083,955.190491 804.174683,941.151489 775.247986,949.470032 
	C750.229065,956.664795 734.659851,973.829834 726.623108,999.148010 
M1246.088257,545.980652 
	C1224.010986,547.761963 1212.221680,539.585693 1209.704590,518.625732 
	C1208.066895,504.987854 1208.867065,491.056885 1208.608643,477.256592 
	C1208.604004,477.009766 1209.018921,476.755096 1209.638184,476.045715 
	C1237.627686,476.045715 1266.019043,476.045715 1294.409790,476.045715 
	C1294.254395,466.242706 1292.471924,458.922302 1288.099243,449.700928 
	C1268.014160,407.345459 1217.321655,397.395721 1184.097290,429.807831 
	C1163.440063,449.960114 1157.465820,475.196289 1163.709961,502.872681 
	C1172.974121,543.934570 1213.612915,564.392151 1253.833984,552.243286 
	C1275.638550,545.657288 1294.145508,521.969238 1294.814575,501.206726 
	C1287.094360,500.468323 1287.227417,500.512268 1284.937500,507.448181 
	C1283.429077,512.017151 1281.808838,516.608154 1279.649414,520.892212 
	C1272.825439,534.429688 1262.599731,543.730042 1246.088257,545.980652 
M796.820740,525.656860 
	C809.669495,544.396057 827.656738,554.114746 850.132874,555.477539 
	C889.672058,557.875061 912.470398,533.921265 918.506287,501.150116 
	C915.720825,501.150116 912.957947,501.150116 911.116760,501.150116 
	C907.698730,509.181671 905.132507,516.991943 901.217468,524.054688 
	C891.942932,540.786133 877.312744,547.957642 858.306580,545.943420 
	C846.318665,544.672974 838.324707,538.243347 834.845398,526.632812 
	C829.913696,510.175659 832.638062,493.318237 831.790405,476.337646 
	C846.629883,476.337646 860.779358,476.337646 874.928894,476.337646 
	C889.202332,476.337646 903.475708,476.337646 918.003052,476.337646 
	C917.749817,463.277740 913.883057,451.915771 906.947754,441.655914 
	C878.299988,399.275848 831.800964,404.380188 805.895508,431.374542 
	C781.813354,456.468994 777.981201,495.207581 796.820740,525.656860 
M488.363831,454.499756 
	C488.363831,484.075531 488.363831,513.651306 488.363831,543.614136 
	C480.842133,543.614136 474.058502,543.614136 467.142029,543.614136 
	C467.142029,546.630615 467.142029,549.253174 467.142029,551.980469 
	C498.237518,551.980469 529.131348,551.980469 560.023804,551.980469 
	C560.023804,549.083435 560.023804,546.470581 560.023804,543.403809 
	C550.556213,543.403809 541.320129,543.403809 532.308289,543.403809 
	C531.934814,542.671509 531.663147,542.388306 531.664856,542.106873 
	C531.823242,516.299561 531.396912,490.468231 532.425476,464.694977 
	C532.973694,450.956329 537.353455,437.822876 547.306763,427.438446 
	C548.646118,426.041107 550.743347,425.370239 552.489624,424.362976 
	C552.658142,426.319580 553.299988,428.375610 552.913513,430.215637 
	C551.205872,438.345337 552.547119,445.484833 559.065002,451.077148 
	C566.138611,457.146301 577.746277,457.936584 586.266602,453.077057 
	C594.574951,448.338409 598.553040,439.381866 597.107483,428.669495 
	C595.806152,419.025909 589.305420,412.067719 579.576050,409.904388 
	C562.400513,406.085358 543.161926,415.864929 533.846802,433.141876 
	C533.200806,434.339966 532.500854,435.508911 531.825989,436.691406 
	C531.560852,436.604401 531.295776,436.517395 531.030640,436.430389 
	C531.030640,429.371918 531.030640,422.313477 531.030640,415.215118 
	C509.447540,415.215118 488.257355,415.215118 467.294891,415.215118 
	C467.294891,418.186615 467.294891,420.762360 467.294891,423.730957 
	C474.399872,423.730957 481.161713,423.730957 488.363861,423.730957 
	C488.363861,433.931671 488.363861,443.715698 488.363831,454.499756 
M861.002014,950.374573 
	C860.537476,953.171509 860.072876,955.968445 859.503479,959.396729 
	C867.216187,959.396729 874.116455,959.396729 881.033569,959.396729 
	C881.033569,999.609314 881.033569,1039.290649 881.033569,1079.378662 
	C873.857300,1079.378662 867.090942,1079.378662 860.230469,1079.378662 
	C860.230469,1082.377930 860.230469,1084.961914 860.230469,1087.709839 
	C891.325989,1087.709839 922.177917,1087.709839 953.093628,1087.709839 
	C953.093628,1084.775757 953.093628,1082.167358 953.093628,1079.037476 
	C943.630493,1079.037476 934.406128,1079.037476 925.235352,1079.037476 
	C925.235352,1052.557251 924.602112,1026.579834 925.488037,1000.654358 
	C925.970032,986.549683 930.615784,973.149414 940.834839,962.545227 
	C942.005554,961.330444 944.122742,961.027771 945.801147,960.302124 
	C945.930237,961.966614 946.450012,963.711914 946.125427,965.282654 
	C943.899780,976.052795 947.012634,984.247559 955.345825,989.003845 
	C963.420227,993.612305 974.950500,992.693420 982.169556,986.865967 
	C989.637451,980.837524 992.391357,970.719055 989.330322,960.555786 
	C986.679932,951.755981 979.172302,945.923645 969.338623,945.025330 
	C951.802063,943.423218 935.143311,952.982666 926.498535,969.593323 
	C925.976807,970.595703 925.354919,971.546021 924.779602,972.520508 
	C924.514160,972.404480 924.248657,972.288513 923.983154,972.172485 
	C923.983154,965.043884 923.983154,957.915283 923.983154,950.916199 
	C923.463928,950.634216 923.179138,950.344421 922.893677,950.343811 
	C902.570435,950.302063 882.247070,950.283386 861.002014,950.374573 
M997.575378,997.134644 
	C999.532898,1020.584961 1009.737122,1032.213379 1032.832764,1037.169800 
	C1036.734009,1038.006958 1040.706909,1038.509521 1044.646606,1039.167969 
	C1053.829834,1040.702759 1063.061768,1042.000854 1072.177734,1043.864868 
	C1077.442139,1044.941284 1080.999512,1048.394409 1081.952637,1053.983643 
	C1084.015747,1066.082153 1078.532471,1075.990967 1066.916992,1079.984009 
	C1054.102905,1084.389038 1041.600586,1083.506836 1030.108887,1075.804688 
	C1018.829834,1068.244873 1012.185913,1057.272339 1007.963135,1044.641968 
	C1005.819702,1038.230835 1005.834106,1038.226074 998.933594,1039.840210 
	C998.933594,1057.109253 998.933594,1074.386353 998.933594,1092.937256 
	C1002.063782,1091.829102 1005.708557,1091.681519 1006.903198,1089.895386 
	C1010.129944,1085.071167 1014.385315,1083.841553 1019.412903,1084.770142 
	C1023.797668,1085.580078 1028.056274,1087.140137 1032.321411,1088.520630 
	C1072.497437,1101.524048 1107.007568,1073.232666 1101.942017,1031.343140 
	C1100.310303,1017.849060 1093.492310,1007.923645 1080.571777,1003.032410 
	C1074.694214,1000.807434 1068.514648,999.201355 1062.340820,997.976196 
	C1050.919922,995.709717 1039.268433,994.489990 1027.963379,991.787048 
	C1017.150146,989.201721 1013.108154,980.207703 1016.770020,969.647400 
	C1018.858704,963.623596 1023.302856,959.892029 1029.087280,958.172974 
	C1050.489624,951.812561 1068.607422,956.723450 1078.963623,977.333740 
	C1080.456177,980.304138 1082.245117,983.226929 1083.113281,986.387146 
	C1084.579956,991.725037 1087.762695,992.554138 1092.578613,990.978577 
	C1092.578613,976.373413 1092.578613,961.795044 1092.578613,947.268494 
	C1088.743530,946.379089 1085.958740,946.439087 1083.879761,950.572815 
	C1082.996948,952.328125 1079.367920,953.567383 1077.015259,953.523438 
	C1073.110352,953.450562 1069.210205,952.232361 1065.341064,951.350830 
	C1059.193604,949.950134 1053.134277,947.534241 1046.931396,947.113037 
	C1018.558716,945.186951 997.598999,966.290405 997.575378,997.134644 
M672.352356,1031.234253 
	C661.816223,1007.458130 651.280029,983.682007 640.395264,959.119263 
	C646.777466,959.119263 652.181213,959.119263 657.462524,959.119263 
	C657.462524,956.025085 657.462524,953.457153 657.462524,950.912842 
	C631.229004,950.912842 605.338501,950.912842 579.524780,950.912842 
	C579.524780,953.858704 579.524780,956.426880 579.524780,959.295959 
	C581.836182,959.295959 583.873413,959.587830 585.795959,959.242004 
	C591.899963,958.143860 594.675476,960.788452 597.081909,966.451172 
	C614.388306,1007.174866 632.177368,1047.693237 649.608948,1088.364380 
	C651.071228,1091.776123 653.094299,1091.931396 656.072021,1092.090210 
	C659.156921,1092.254639 660.421204,1090.964966 661.484924,1088.313965 
	C664.891357,1079.825073 668.515015,1071.422485 672.106018,1063.008545 
	C684.380554,1034.248169 696.501770,1005.420227 709.066284,976.786987 
	C713.106384,967.580017 717.977112,958.473694 730.111877,959.075256 
	C730.111877,955.921143 730.111877,953.352295 730.111877,950.807495 
	C713.782166,950.807495 697.856628,950.807495 681.709351,950.807495 
	C681.709351,953.657043 681.709351,956.241333 681.709351,959.295349 
	C684.054077,959.295349 686.184509,959.288269 688.314941,959.296509 
	C700.369263,959.342834 702.680481,962.429932 699.472656,974.192932 
	C699.341187,974.674988 699.257690,975.176880 699.069153,975.635620 
	C691.008850,995.258972 682.939026,1014.878418 674.542175,1035.296509 
	C673.627747,1033.600830 673.178406,1032.767578 672.352356,1031.234253 
M1138.800659,478.500092 
	C1138.800659,457.080505 1138.800659,435.660889 1138.800659,414.266479 
	C1118.438721,414.266479 1098.731934,414.266479 1079.008789,414.266479 
	C1079.008789,417.374481 1079.008789,420.129883 1079.008789,423.361328 
	C1084.542358,423.361328 1089.800049,423.361328 1095.006836,423.361328 
	C1095.006836,463.538727 1095.006836,503.232910 1095.006836,543.296570 
	C1087.881836,543.296570 1081.113770,543.296570 1074.129395,543.296570 
	C1074.129395,546.249878 1074.129395,548.832153 1074.129395,551.612061 
	C1102.845825,551.612061 1131.386841,551.612061 1159.896729,551.612061 
	C1159.896729,548.729187 1159.896729,546.148071 1159.896729,543.005493 
	C1152.705933,543.005493 1145.816650,543.005493 1138.800659,543.005493 
	C1138.800659,521.453735 1138.800659,500.476929 1138.800659,478.500092 
M1172.139160,956.612427 
	C1172.139160,954.657715 1172.139160,952.703003 1172.139160,950.586853 
	C1150.267212,950.586853 1128.877075,950.586853 1107.561768,950.586853 
	C1107.561768,953.832642 1107.561768,956.724548 1107.561768,960.137817 
	C1114.827881,960.137817 1121.725098,960.137817 1128.535889,960.137817 
	C1128.535889,1000.232239 1128.535889,1039.792236 1128.535889,1079.861084 
	C1121.306885,1079.861084 1114.391968,1079.861084 1107.457153,1079.861084 
	C1107.457153,1082.938354 1107.457153,1085.494507 1107.457153,1088.129395 
	C1136.321411,1088.129395 1164.912354,1088.129395 1193.407471,1088.129395 
	C1193.407471,1085.227661 1193.407471,1082.640625 1193.407471,1079.541992 
	C1186.185059,1079.541992 1179.264526,1079.541992 1172.139160,1079.541992 
	C1172.139160,1038.541504 1172.139160,998.065674 1172.139160,956.612427 
M533.500122,950.254272 
	C523.423401,950.254272 513.346680,950.254272 503.363190,950.254272 
	C503.363190,953.846558 503.363190,956.623047 503.363190,959.913452 
	C510.510437,959.913452 517.411377,959.913452 524.375793,959.913452 
	C524.375793,1000.119202 524.375793,1039.798218 524.375793,1079.974854 
	C517.076050,1079.974854 510.163391,1079.974854 503.217896,1079.974854 
	C503.217896,1082.946899 503.217896,1085.418823 503.217896,1088.035400 
	C532.022461,1088.035400 560.713257,1088.035400 589.373047,1088.035400 
	C589.373047,1085.177734 589.373047,1082.729492 589.373047,1079.741455 
	C582.275696,1079.741455 575.367920,1079.741455 567.937012,1079.741455 
	C567.937012,1036.338623 567.937012,993.478943 567.937012,950.254272 
	C556.435486,950.254272 545.467834,950.254272 533.500122,950.254272 
M1099.807739,358.404449 
	C1094.309570,367.149658 1094.230103,376.645386 1099.592041,384.131012 
	C1104.713989,391.281647 1114.017212,394.602844 1122.612671,392.349121 
	C1131.629272,389.984985 1138.015259,382.314850 1138.773560,372.938507 
	C1139.495605,364.010010 1134.271973,355.295624 1125.990356,351.612976 
	C1117.010742,347.619934 1107.580933,349.895050 1099.807739,358.404449 
M1133.891724,921.550659 
	C1141.065063,928.826904 1149.859619,930.981384 1158.452515,927.567566 
	C1166.648071,924.311646 1171.860962,916.659485 1171.949341,907.755188 
	C1172.038574,898.771240 1167.140259,891.154114 1158.981201,887.589172 
	C1150.450928,883.862122 1139.959961,886.260620 1133.948730,893.312256 
	C1127.310791,901.098999 1127.112061,911.544189 1133.891724,921.550659 
M567.600464,903.220398 
	C563.158081,886.293457 544.010010,880.076050 531.702148,891.564270 
	C524.240417,898.529175 522.608337,909.733948 527.778259,918.502991 
	C532.953735,927.281433 543.440430,931.183838 553.306824,928.002869 
	C563.210815,924.809753 568.824951,915.517212 567.600464,903.220398 
z"/>
<path fill="#FEFBFB" opacity="1.000000" stroke="none" 
	d="
M268.940002,666.847656 
	C275.916504,646.847046 282.803955,627.228577 289.626404,607.587646 
	C290.422607,605.295410 290.950073,603.476562 294.179138,603.499207 
	C316.339966,603.654785 338.502350,603.585632 360.664215,603.606384 
	C361.133698,603.606873 361.602966,603.817566 362.276459,603.979126 
	C362.276459,606.618530 362.276459,609.220459 362.276459,612.386597 
	C355.711090,612.386597 349.136108,612.386597 342.320679,612.386597 
	C342.320679,679.836548 342.320679,746.725342 342.320679,813.980530 
	C348.947205,813.980530 355.387085,813.980530 362.157227,813.980530 
	C362.157227,817.092102 362.157227,819.841553 362.157227,822.905579 
	C333.719482,822.905579 305.347412,822.905579 276.729797,822.905579 
	C276.729797,820.088745 276.729797,817.482727 276.729797,814.261230 
	C283.528412,814.261230 290.228851,814.261230 297.146057,814.261230 
	C297.146057,747.890686 297.146057,682.133545 297.146057,616.376465 
	C296.948120,616.307495 296.750183,616.238525 296.552216,616.169556 
	C295.075958,620.272522 293.563660,624.362854 292.128906,628.480286 
	C270.072083,691.778992 248.016129,755.078003 226.005264,818.392700 
	C224.965393,821.383850 224.092148,823.436646 219.994949,823.424744 
	C215.959778,823.413025 215.028671,821.506775 213.963028,818.463379 
	C190.271210,750.801025 166.515411,683.161011 142.766235,615.518738 
	C142.448135,614.612671 142.059021,613.731567 141.146942,611.443970 
	C140.947372,613.950500 140.775391,615.104309 140.775131,616.258118 
	C140.762405,673.579102 140.737808,730.900208 140.814758,788.221069 
	C140.820984,792.859558 141.165298,797.564941 142.002151,802.119873 
	C143.417831,809.825195 147.458405,813.244385 155.320984,813.918030 
	C158.280853,814.171631 161.280655,813.959167 164.666565,813.959167 
	C164.666565,817.080261 164.666565,819.789612 164.666565,822.864258 
	C147.053268,822.864258 129.326355,822.864258 111.306900,822.864258 
	C111.306900,820.144897 111.306900,817.409546 111.306900,814.342773 
	C112.835808,814.215759 114.288353,814.143494 115.728241,813.967590 
	C124.608643,812.882507 129.642761,808.292358 131.140045,799.519653 
	C131.752747,795.929749 132.025452,792.239319 132.028839,788.594177 
	C132.082260,731.106567 132.066544,673.618958 132.066666,616.131287 
	C132.066681,615.158203 132.066681,614.185059 132.066681,612.705994 
	C125.024887,612.705994 118.287094,612.705994 111.293457,612.705994 
	C111.293457,609.449219 111.293457,606.688232 111.293457,603.250183 
	C112.840874,603.250183 114.442352,603.250183 116.043831,603.250183 
	C138.872253,603.250244 161.701828,603.365662 184.528015,603.140442 
	C188.480072,603.101440 189.926376,604.554504 191.094223,608.018555 
	C206.663849,654.202271 222.364365,700.341919 238.037918,746.490540 
	C238.409531,747.584717 238.847031,748.656494 239.613403,750.695312 
	C249.546417,722.318115 259.188965,694.770630 268.940002,666.847656 
z"/>
<path fill="#FEFCFC" opacity="1.000000" stroke="none" 
	d="
M1392.060059,1015.122131 
	C1375.557861,1054.260376 1359.356079,1093.112549 1342.656860,1131.749878 
	C1339.000977,1140.208496 1334.526489,1148.678711 1328.746216,1155.772339 
	C1318.878540,1167.882324 1299.929321,1168.523193 1290.048462,1158.108643 
	C1283.699463,1151.416626 1282.232300,1143.481812 1285.709473,1134.999023 
	C1289.200195,1126.483276 1295.858765,1121.982300 1305.105225,1121.769531 
	C1314.354004,1121.556641 1320.997437,1125.854858 1325.130615,1134.079346 
	C1325.576416,1134.966309 1325.678223,1136.064453 1326.245117,1136.841553 
	C1326.870239,1137.698120 1327.853760,1138.861206 1328.670776,1138.852905 
	C1329.523804,1138.844482 1330.696289,1137.766724 1331.148804,1136.865112 
	C1332.565186,1134.043701 1333.720947,1131.090698 1334.953979,1128.178589 
	C1339.689331,1116.995728 1344.539062,1105.858276 1349.030029,1094.578003 
	C1349.828613,1092.572144 1349.850708,1089.654907 1349.004761,1087.685303 
	C1331.215454,1046.257935 1313.270020,1004.897461 1295.237061,963.575439 
	C1294.581665,962.073364 1292.747803,960.057251 1291.429077,960.031677 
	C1277.963745,959.769958 1264.491333,959.871460 1250.402100,959.871460 
	C1250.402100,962.001343 1250.402100,963.763977 1250.402100,965.526672 
	C1250.402100,996.859009 1250.389038,1028.191406 1250.423584,1059.523682 
	C1250.426636,1062.347778 1250.531494,1065.201782 1250.940918,1067.990234 
	C1252.218506,1076.693481 1259.348999,1079.763062 1266.816284,1074.832153 
	C1270.869141,1072.155884 1274.780884,1069.265869 1278.756348,1066.472290 
	C1278.067993,1065.701538 1277.379639,1064.930664 1276.691162,1064.159912 
	C1278.727905,1065.242554 1280.764648,1066.325317 1283.247559,1067.645264 
	C1276.166870,1079.900879 1266.579956,1088.610596 1252.486084,1090.801758 
	C1246.359985,1091.754150 1239.746338,1091.911011 1233.713867,1090.674194 
	C1217.196411,1087.287720 1207.319702,1074.306519 1207.288818,1057.170654 
	C1207.233887,1026.671753 1207.274048,996.172607 1207.274536,965.673584 
	C1207.274536,963.889587 1207.274658,962.105530 1207.274658,960.013672 
	C1201.682373,960.013672 1196.561401,960.013672 1191.060303,960.013672 
	C1191.060303,956.832458 1191.060303,953.957031 1191.060303,950.721497 
	C1208.150024,950.037659 1220.862915,941.467407 1230.541992,927.936035 
	C1239.911743,914.837158 1244.218140,899.979736 1244.730347,883.750122 
	C1246.656982,883.750122 1248.254028,883.750122 1250.402344,883.750122 
	C1250.402344,894.767700 1250.402466,905.706482 1250.402466,916.645203 
	C1250.402466,927.641113 1250.402344,938.637024 1250.402344,950.356689 
	C1286.259888,950.356689 1321.958740,950.356689 1357.686768,950.356689 
	C1357.686768,953.856323 1357.686768,956.629211 1357.686768,959.842896 
	C1352.043945,959.842896 1346.626343,959.842896 1340.423828,959.842896 
	C1351.627441,985.084290 1362.532837,1009.653442 1373.713623,1034.843262 
	C1374.495361,1033.483643 1375.110596,1032.632568 1375.508301,1031.689575 
	C1382.813721,1014.368835 1390.189209,997.076294 1397.300415,979.675903 
	C1398.788086,976.035583 1399.493896,972.025696 1400.172729,968.118835 
	C1400.860962,964.158752 1398.731567,961.618713 1394.931641,960.956299 
	C1390.556641,960.193481 1386.099121,959.902954 1381.413818,959.377808 
	C1381.413818,956.624207 1381.413818,953.866394 1381.413818,950.821655 
	C1397.439697,950.821655 1413.378784,950.821655 1429.650269,950.821655 
	C1429.650269,953.551575 1429.650269,956.280945 1429.650269,959.594360 
	C1416.900513,958.704834 1412.508911,968.375122 1408.222412,977.648926 
	C1402.570068,989.877686 1397.501465,1002.376282 1392.060059,1015.122131 
z"/>
<path fill="#FEFCFC" opacity="1.000000" stroke="none" 
	d="
M289.041260,948.000000 
	C288.973663,929.838135 288.925446,912.176086 288.813446,894.514526 
	C288.799805,892.361755 288.588196,890.186035 288.219940,888.064026 
	C286.933319,880.650024 283.808319,877.757141 276.224091,877.127441 
	C273.287537,876.883606 270.313812,877.087646 267.110596,877.087646 
	C267.110596,873.907532 267.110596,871.339417 267.110596,868.529114 
	C285.420227,868.529114 303.504028,868.529114 321.797058,868.529114 
	C321.797058,871.343445 321.797058,873.914429 321.797058,876.982910 
	C318.440491,876.982910 315.303223,876.819519 312.188873,877.017029 
	C305.787994,877.423035 302.230560,880.095337 300.885468,886.340576 
	C299.878326,891.016907 299.401093,895.894165 299.387238,900.683960 
	C299.273224,940.012878 299.476959,979.343384 299.194183,1018.670593 
	C299.137238,1026.590942 298.231323,1034.700317 296.323181,1042.376099 
	C290.402130,1066.194580 275.101562,1081.557739 251.670837,1088.442383 
	C230.459244,1094.675049 208.937988,1095.128418 187.551224,1089.315918 
	C153.107452,1079.954834 132.850479,1053.130615 132.822098,1017.296814 
	C132.786591,972.468140 132.813919,927.639404 132.814133,882.810730 
	C132.814133,881.023621 132.814133,879.236572 132.814133,876.999634 
	C125.411690,876.999634 118.490585,876.999634 111.300323,876.999634 
	C111.300323,873.979858 111.300323,871.407227 111.300323,868.558350 
	C140.477921,868.558350 169.580566,868.558350 199.022598,868.558350 
	C199.022598,871.108887 199.022598,873.682495 199.022598,876.840698 
	C192.481155,876.840698 185.933197,876.840698 178.928024,876.840698 
	C178.928024,879.188110 178.928040,880.973511 178.928024,882.758972 
	C178.927841,924.921265 178.599533,967.087830 179.144714,1009.243042 
	C179.291748,1020.613647 181.057144,1032.213623 183.876831,1043.249146 
	C190.496033,1069.154663 206.743423,1081.228516 233.415512,1081.650635 
	C262.453461,1082.110229 283.870636,1063.427002 287.851379,1033.915771 
	C288.649963,1027.995483 288.955750,1021.971375 288.989960,1015.992310 
	C289.118744,993.495483 289.041412,970.997559 289.041260,948.000000 
z"/>
<path fill="#FEFCFC" opacity="1.000000" stroke="none" 
	d="
M113.424850,469.648560 
	C106.022919,425.975403 116.234619,387.443512 145.699371,354.810577 
	C165.022293,333.409973 189.660919,322.470551 218.725220,324.336487 
	C227.777542,324.917633 236.680954,328.811432 245.503586,331.651489 
	C252.135071,333.786194 258.392090,337.121552 265.060852,339.094116 
	C274.371521,341.848175 278.178314,339.616638 281.427155,330.823547 
	C283.736206,330.823547 286.031799,330.823547 288.585693,330.823547 
	C288.585693,355.617889 288.585693,380.195740 288.585693,405.067688 
	C286.120819,405.067688 283.696136,405.067688 282.186615,405.067688 
	C278.045197,394.236420 274.695221,383.394348 269.840271,373.274292 
	C262.879425,358.764496 252.744476,346.647675 238.299057,338.810059 
	C219.343765,328.525574 189.768021,328.274811 176.316681,359.419006 
	C173.886551,365.045532 171.598175,370.901337 170.440552,376.882782 
	C161.669235,422.204193 160.529434,467.688141 172.062592,512.583557 
	C181.293457,548.516846 216.285721,559.937195 247.142685,538.184631 
	C265.294586,525.388489 274.493195,506.894073 278.931641,485.662781 
	C279.612885,482.404053 280.154175,479.116241 280.786591,475.846985 
	C280.877594,475.376495 281.117645,474.934814 281.319000,474.399353 
	C283.962036,474.399353 286.577667,474.399353 289.476746,474.399353 
	C289.476746,500.180359 289.476746,525.749878 289.476746,551.613159 
	C286.763977,551.613159 284.178375,551.613159 281.418304,551.613159 
	C281.270447,551.254517 280.965240,550.834473 280.935699,550.395813 
	C280.161224,538.896790 275.631714,536.140808 265.287598,541.485901 
	C254.473068,547.074097 243.742645,552.676941 231.626358,555.033142 
	C185.627930,563.978333 143.136063,542.531250 123.538124,499.760132 
	C119.210747,490.315887 116.822105,479.983337 113.424850,469.648560 
z"/>
<path fill="#FEFBFB" opacity="1.000000" stroke="none" 
	d="
M956.451294,494.387390 
	C926.808350,479.716827 926.470154,447.805603 940.655884,430.742218 
	C948.272461,421.580597 958.044189,415.747192 969.479309,412.929169 
	C988.956970,408.129150 1007.451843,410.588928 1023.891663,420.838867 
	C1030.802734,417.944122 1037.133545,414.646088 1043.852783,412.666565 
	C1050.118042,410.820801 1056.437988,412.452087 1062.021606,415.974426 
	C1068.886597,420.305115 1071.090332,428.007751 1067.512207,434.594574 
	C1064.114380,440.849701 1056.406250,443.384155 1049.854248,440.400665 
	C1043.068481,437.310699 1040.417847,429.927338 1043.326782,422.246002 
	C1043.602783,421.517334 1043.813354,420.763885 1043.200928,418.902222 
	C1038.779541,421.405212 1034.358154,423.908203 1029.535645,426.638245 
	C1031.175903,428.857483 1032.476562,430.504272 1033.657959,432.232544 
	C1049.211060,454.984528 1041.859741,483.323273 1016.750610,495.514282 
	C1001.819946,502.763428 986.186890,505.451447 969.851074,499.603790 
	C961.652100,496.668884 947.354248,503.542358 944.016052,511.513580 
	C941.477234,517.575806 944.300537,522.806335 950.839417,523.365234 
	C956.467407,523.846252 962.151855,523.742310 967.811768,523.759644 
	C982.641541,523.804993 997.471619,523.744873 1012.301514,523.781921 
	C1038.791016,523.848083 1053.092773,538.024048 1053.445190,564.508301 
	C1053.983276,604.928223 1025.674194,633.856567 984.939270,634.596130 
	C970.236694,634.863037 956.031433,632.778748 942.879578,625.840149 
	C939.369690,623.988464 935.972168,621.764099 932.918335,619.233704 
	C913.918396,603.490417 915.805298,579.608459 936.991699,566.950012 
	C939.790161,565.277954 942.804138,563.966492 945.746704,562.473633 
	C924.741150,550.768066 919.508728,523.538208 934.869812,506.183411 
	C940.670532,499.629852 948.403320,496.773560 956.451294,494.387390 
M1019.619446,563.675842 
	C1001.486694,563.475769 983.310974,563.952881 965.238342,562.805542 
	C955.387695,562.180176 949.604553,566.008789 945.236450,573.858276 
	C944.913696,574.438293 944.519104,574.977844 944.179443,575.549072 
	C933.470886,593.557129 939.202698,612.824829 958.018982,622.078674 
	C978.383179,632.093811 1010.089905,626.146973 1027.577148,609.061707 
	C1033.028564,603.735596 1037.289917,597.712585 1039.148560,590.187256 
	C1043.242676,573.611267 1037.388916,565.303345 1019.619446,563.675842 
M1002.383911,484.623383 
	C1003.552490,476.268555 1005.502625,467.930634 1005.683716,459.554443 
	C1005.890686,449.978210 1005.044495,440.293488 1003.683655,430.795227 
	C1002.516968,422.652191 998.434814,419.915924 990.240540,419.748199 
	C988.744324,419.717560 987.246765,419.727661 985.750122,419.744537 
	C976.412903,419.849884 971.070984,423.491913 969.365845,432.523407 
	C966.255859,448.995880 966.317627,465.607422 969.878418,482.028931 
	C971.619568,490.058960 975.363037,493.227112 982.712769,493.730560 
	C990.513000,494.264862 998.323486,494.338135 1002.383911,484.623383 
z"/>
<path fill="#FEFBFB" opacity="1.000000" stroke="none" 
	d="
M702.159973,412.088135 
	C711.473694,409.220184 720.582764,408.877869 729.735901,410.250488 
	C747.584717,412.927246 758.667480,423.963348 761.797852,442.328949 
	C762.688599,447.554688 763.145264,452.915131 763.172668,458.217041 
	C763.308594,484.536987 763.234436,510.858032 763.234314,537.178711 
	C763.234314,538.977722 763.234375,540.776733 763.234375,543.122009 
	C770.513733,543.122009 777.404846,543.122009 784.547607,543.122009 
	C784.547607,546.238403 784.547607,548.805847 784.547607,551.641785 
	C757.126465,551.641785 729.890869,551.641785 702.363403,551.641785 
	C702.363403,548.942505 702.363403,546.374939 702.363403,543.371704 
	C708.054199,543.371704 713.655945,543.371704 719.943542,543.371704 
	C719.943542,541.185852 719.943542,539.424072 719.943542,537.662292 
	C719.943542,507.176941 719.964539,476.691589 719.912109,446.206329 
	C719.906677,443.057037 719.548157,439.899445 719.210083,436.761139 
	C717.708069,422.816315 706.803284,421.124115 697.328796,423.921326 
	C695.143494,424.566467 692.895325,425.661194 691.182068,427.136536 
	C678.166931,438.344208 668.558777,451.318115 668.707642,469.634979 
	C668.905029,493.934326 668.756287,518.236511 668.756287,543.116089 
	C674.890564,543.116089 680.780029,543.116089 686.896973,543.116089 
	C686.896973,546.268921 686.896973,548.843262 686.896973,551.643188 
	C659.302612,551.643188 631.909485,551.643188 604.344971,551.643188 
	C604.344971,548.807251 604.344971,546.238403 604.344971,543.217773 
	C611.340149,543.217773 618.091553,543.217773 625.076782,543.217773 
	C625.076782,503.029602 625.076782,463.295532 625.076782,423.111603 
	C618.257019,423.111603 611.502197,423.111603 604.420288,423.111603 
	C604.420288,420.110565 604.420288,417.544373 604.420288,414.670929 
	C625.628418,414.670929 646.875000,414.670929 668.681641,414.670929 
	C668.681641,422.127289 668.681641,429.476654 668.681641,436.826019 
	C677.077271,424.631256 688.120361,416.686279 702.159973,412.088135 
z"/>
<path fill="#FEFCFC" opacity="1.000000" stroke="none" 
	d="
M889.143921,798.995667 
	C889.143921,804.290527 889.143921,809.086243 889.143921,814.342163 
	C895.352539,814.342163 901.101990,814.342163 907.172913,814.342163 
	C907.172913,817.380249 907.172913,819.953613 907.172913,822.870300 
	C879.729126,822.870300 852.336975,822.870300 824.603516,822.870300 
	C824.603516,820.298096 824.603516,817.718323 824.603516,814.604248 
	C831.472839,814.604248 838.396667,814.604248 845.631348,814.604248 
	C845.631348,774.350952 845.631348,734.624207 845.631348,694.409180 
	C838.684509,694.409180 831.757751,694.409180 824.547363,694.409180 
	C824.547363,691.349243 824.547363,688.765381 824.547363,685.885071 
	C845.914368,685.885071 867.339233,685.885071 889.152466,685.885071 
	C889.152466,693.438416 889.152466,700.842407 889.152466,709.544312 
	C890.568726,707.479126 891.280945,706.491882 891.940735,705.470703 
	C905.510376,684.468811 937.175842,674.605530 960.234863,684.222778 
	C976.152710,690.861694 982.208618,704.304138 982.929749,720.062195 
	C983.933899,742.005920 983.598022,764.012085 983.780212,785.992004 
	C983.857239,795.280090 983.793030,804.569397 983.793030,814.333984 
	C990.976868,814.333984 997.730164,814.333984 1004.773682,814.333984 
	C1004.773682,817.376648 1004.773682,819.950928 1004.773682,822.868896 
	C977.586609,822.868896 950.364929,822.868896 922.919434,822.868896 
	C922.919434,820.226013 922.919434,817.613953 922.919434,814.528442 
	C928.596558,814.528442 934.160156,814.528442 939.652466,814.528442 
	C939.970398,813.646545 940.272644,813.199951 940.272156,812.753601 
	C940.238525,779.438599 940.190918,746.123657 940.097778,712.808716 
	C940.092712,710.992065 939.796570,709.156372 939.456787,707.363525 
	C937.325378,696.118774 929.431091,691.200195 918.534790,695.000427 
	C914.430603,696.431885 910.436951,699.022949 907.216797,701.981934 
	C898.845825,709.674194 893.365295,719.376160 889.825500,730.135437 
	C889.220703,731.973633 889.174561,734.053650 889.170471,736.022583 
	C889.126709,756.847107 889.143677,777.671814 889.143921,798.995667 
z"/>
<path fill="#FFFDFD" opacity="1.000000" stroke="none" 
	d="
M432.694702,1042.999756 
	C432.577484,1020.849915 432.464111,999.200073 432.330688,977.550293 
	C432.324585,976.555786 432.151123,975.560852 432.033875,974.568665 
	C430.423340,960.939819 419.423523,954.456848 407.557281,961.504456 
	C392.213776,970.617310 382.214447,984.487183 381.578033,1002.761963 
	C380.749359,1026.555542 381.375366,1050.399780 381.375397,1074.222290 
	C381.375397,1075.852539 381.375397,1077.482666 381.375397,1079.656860 
	C387.654663,1079.656860 393.557800,1079.656860 399.673950,1079.656860 
	C399.673950,1082.779297 399.673950,1085.359009 399.673950,1088.188721 
	C372.128479,1088.188721 344.692200,1088.188721 316.933350,1088.188721 
	C316.933350,1085.513306 316.933350,1082.940796 316.933350,1079.818481 
	C323.736176,1079.818481 330.649719,1079.818481 337.796143,1079.818481 
	C337.796143,1039.559448 337.796143,999.842834 337.796143,959.684204 
	C330.828186,959.684204 324.070038,959.684204 316.965698,959.684204 
	C316.965698,956.676697 316.965698,954.096985 316.965698,951.160889 
	C338.194580,951.160889 359.562958,951.160889 381.360596,951.160889 
	C381.360596,958.590210 381.360596,965.825745 381.360596,974.105286 
	C382.550323,972.809204 383.095734,972.344910 383.483459,971.773682 
	C397.757904,950.746887 424.015869,941.096985 448.433228,948.087341 
	C465.440308,952.956177 472.623596,965.728210 474.923065,982.066956 
	C475.639557,987.158081 475.880707,992.351379 475.899933,997.499573 
	C475.995148,1022.987549 475.943298,1048.476074 475.943268,1073.964478 
	C475.943268,1075.751709 475.943268,1077.538940 475.943268,1079.666748 
	C483.224609,1079.666748 490.005066,1079.666748 497.126556,1079.666748 
	C497.126556,1082.582153 497.126556,1085.148926 497.126556,1088.086426 
	C469.900543,1088.086426 442.529480,1088.086426 414.999329,1088.086426 
	C414.999329,1085.403564 414.999329,1082.931030 414.999329,1079.876099 
	C420.667297,1079.876099 426.402527,1079.876099 432.694702,1079.876099 
	C432.694702,1067.369629 432.694702,1055.434814 432.694702,1042.999756 
z"/>
<path fill="#FEFBFB" opacity="1.000000" stroke="none" 
	d="
M435.482422,555.434021 
	C419.752960,556.510498 407.564331,551.570251 399.961456,536.641174 
	C393.713104,545.758972 384.986389,550.749023 374.826385,553.336853 
	C359.660706,557.199646 344.709656,556.597412 330.411133,549.924011 
	C317.984344,544.124146 310.677460,534.434143 309.812073,520.405762 
	C308.865967,505.068268 314.345367,492.985779 328.016907,485.318176 
	C340.680756,478.215698 354.745758,476.426270 368.898010,475.195282 
	C378.828735,474.331482 388.770264,473.591644 398.344452,472.825500 
	C398.344452,459.414795 398.959015,446.314392 398.121979,433.307373 
	C397.590332,425.045654 390.918976,421.302887 383.239532,420.175446 
	C372.744415,418.634705 362.265381,419.162537 352.096588,422.281403 
	C349.180450,423.175812 346.650940,425.330811 343.944122,426.907806 
	C344.120911,427.387543 344.297699,427.867279 344.474487,428.347046 
	C345.527924,428.631226 346.581726,428.914154 347.634766,429.199829 
	C356.455872,431.592865 360.753510,436.754303 360.831696,445.048218 
	C360.916626,454.062775 355.832458,461.147095 347.386475,463.153015 
	C339.095154,465.122253 331.134735,464.158203 325.573486,457.099579 
	C319.928436,449.934509 319.590790,441.723114 323.734497,433.592255 
	C327.873749,425.470184 334.865631,420.210083 343.084778,417.068573 
	C369.266296,407.061493 395.370178,408.046204 420.644745,419.945435 
	C434.002869,426.234467 440.558380,437.980774 440.764862,452.622742 
	C441.119659,477.780273 440.897736,502.945648 440.994873,528.107483 
	C441.005737,530.917480 441.036896,533.893311 441.944397,536.481750 
	C442.680756,538.582153 444.503265,541.337830 446.295746,541.727905 
	C447.944977,542.086853 451.028107,540.146729 452.014160,538.394714 
	C454.246979,534.427246 455.576874,529.951660 457.498474,525.117981 
	C459.078003,525.117981 461.493408,525.117981 463.922119,525.117981 
	C466.599945,539.804382 453.995972,553.437744 435.482422,555.434021 
M374.549316,544.671509 
	C386.226166,544.111511 394.773682,537.416199 397.656647,524.944214 
	C399.240173,518.093933 399.057983,510.795135 399.299469,503.685913 
	C399.551392,496.269684 399.355682,488.838226 399.355682,481.140961 
	C389.575470,482.184174 380.465057,482.887726 371.440460,484.187469 
	C360.551697,485.755707 354.903503,491.111084 353.791901,501.953491 
	C352.986084,509.812958 353.039215,517.904968 353.913849,525.759216 
	C355.303040,538.234314 361.141083,543.312561 374.549316,544.671509 
z"/>
<path fill="#FEFCFC" opacity="1.000000" stroke="none" 
	d="
M801.936646,701.062012 
	C824.580383,723.306885 830.047607,749.935669 820.520996,778.852600 
	C811.213806,807.103394 789.817932,822.603943 760.537781,826.069031 
	C730.253662,829.652832 704.636047,820.198120 687.437073,794.114868 
	C661.902893,755.390747 678.095215,692.361877 737.528015,682.956116 
	C761.445923,679.170837 783.121277,684.716736 801.936646,701.062012 
M743.506287,691.626709 
	C734.801025,693.507202 729.557434,699.159241 727.151611,707.396301 
	C725.950989,711.506958 725.106079,715.881531 725.068604,720.145203 
	C724.867737,742.951111 724.788757,765.762329 725.109802,788.565491 
	C725.183105,793.775879 726.373840,799.188049 728.150208,804.110413 
	C731.564331,813.571411 739.235413,818.120972 750.086670,818.167236 
	C760.304993,818.210754 768.652832,814.569641 772.268188,804.539978 
	C774.368408,798.713684 775.574524,792.272400 775.695496,786.078796 
	C776.105286,765.108765 775.877197,744.125671 775.820679,723.147766 
	C775.813049,720.331482 775.530762,717.496765 775.139832,714.703613 
	C772.602112,696.573486 762.552368,688.995178 743.506287,691.626709 
z"/>
<path fill="#FFFDFD" opacity="1.000000" stroke="none" 
	d="
M655.495361,729.000488 
	C655.495361,757.480225 655.495361,785.459900 655.495361,813.909180 
	C662.704956,813.909180 669.632690,813.909180 676.814941,813.909180 
	C676.814941,817.108704 676.814941,819.845764 676.814941,822.895508 
	C648.323486,822.895508 619.910278,822.895508 591.103516,822.895508 
	C591.103516,820.248291 591.103516,817.514954 591.103516,814.233887 
	C597.740906,814.233887 604.631714,814.233887 611.825073,814.233887 
	C611.825073,746.645630 611.825073,679.584595 611.825073,611.975037 
	C605.031372,611.975037 598.138916,611.975037 590.986450,611.975037 
	C590.986450,609.158752 590.986450,606.883606 590.986450,604.217346 
	C612.199524,604.217346 633.583618,604.217346 655.495361,604.217346 
	C655.495361,645.604309 655.495361,687.052368 655.495361,729.000488 
z"/>
<path fill="#FFFEFE" opacity="1.000000" stroke="none" 
	d="
M520.063599,706.000000 
	C520.058105,674.845581 520.053162,644.191223 520.038208,613.536804 
	C520.038086,613.221619 519.905151,612.906433 519.703979,612.012817 
	C512.963623,612.012817 506.070953,612.012817 498.922333,612.012817 
	C498.922333,609.164612 498.922333,606.889954 498.922333,604.221130 
	C520.124268,604.221130 541.486206,604.221130 563.298279,604.221130 
	C563.298279,673.898254 563.298279,743.606384 563.298279,813.820190 
	C570.617065,813.820190 577.511108,813.820190 584.683228,813.820190 
	C584.683228,817.053650 584.683228,819.790833 584.683228,822.869019 
	C556.144165,822.869019 527.617554,822.869019 498.870178,822.869019 
	C498.870178,819.938904 498.870178,817.197632 498.870178,814.087646 
	C505.857025,814.087646 512.629822,814.087646 520.063599,814.087646 
	C520.063599,777.981995 520.063599,742.241028 520.063599,706.000000 
z"/>
<path fill="#FEFBFB" opacity="1.000000" stroke="none" 
	d="
M428.418884,826.640564 
	C391.638519,822.108337 367.259705,796.317749 365.265137,760.248901 
	C363.248749,723.784912 385.848083,691.785400 419.417908,683.571106 
	C447.337219,676.739563 476.620819,691.188843 490.824738,718.809631 
	C495.367828,727.644104 498.238770,736.909485 498.251465,747.460449 
	C469.631897,747.460449 441.221375,747.460449 412.110352,747.460449 
	C412.675629,764.837219 410.326385,781.872253 415.347656,798.430664 
	C418.727661,809.576721 426.666870,815.705383 438.236267,817.144958 
	C457.602020,819.554688 473.385101,811.314636 482.688324,793.499817 
	C485.214752,788.661987 487.111237,783.448364 488.850159,778.257568 
	C491.190491,771.271362 491.004669,771.209106 498.882843,772.434082 
	C492.529022,805.987061 470.695099,825.212341 439.850372,826.780151 
	C436.202911,826.965515 432.534607,826.739868 428.418884,826.640564 
M416.010925,699.717224 
	C410.046387,712.343079 412.885010,725.676331 412.033081,738.703369 
	C425.584259,738.703369 438.294037,738.703369 451.665833,738.703369 
	C451.170624,727.602478 451.127869,716.802734 450.064026,706.104431 
	C449.298553,698.406311 444.883575,692.687073 436.791992,691.240784 
	C428.580078,689.772888 421.183655,691.252014 416.010925,699.717224 
z"/>
<path fill="#FEFBFB" opacity="1.000000" stroke="none" 
	d="
M726.736389,998.758545 
	C734.659851,973.829834 750.229065,956.664795 775.247986,949.470032 
	C804.174683,941.151489 833.822083,955.190491 848.853882,983.508667 
	C853.598022,992.446045 856.407104,1001.914246 856.727844,1012.887390 
	C842.360107,1012.887390 828.120483,1012.887390 813.880859,1012.887390 
	C799.585938,1012.887390 785.291077,1012.887390 769.802734,1012.887390 
	C770.602905,1028.385986 770.281067,1043.589600 772.428467,1058.435913 
	C775.248962,1077.935791 791.671509,1086.646729 813.009033,1081.615356 
	C827.926880,1078.097656 837.028076,1067.990234 843.011414,1054.636353 
	C845.447205,1049.200195 847.139893,1043.431152 849.290649,1037.482056 
	C851.619690,1037.482056 854.193787,1037.482056 857.496521,1037.482056 
	C856.820312,1040.239746 856.318298,1042.922363 855.505066,1045.506836 
	C845.176392,1078.332642 821.705078,1094.238647 787.094849,1091.921753 
	C756.042908,1089.843140 730.532776,1067.048828 724.990906,1036.238647 
	C722.751465,1023.788574 723.078125,1011.379333 726.736389,998.758545 
M803.581665,960.932007 
	C790.838257,950.164001 773.966125,956.351501 771.606018,973.435242 
	C770.237427,983.342224 771.357239,993.593018 771.357239,1003.912781 
	C783.702393,1003.912781 796.435486,1003.912781 809.278931,1003.912781 
	C809.278931,994.707214 809.878479,985.702515 809.051575,976.830872 
	C808.564087,971.601257 805.815247,966.582458 803.581665,960.932007 
z"/>
<path fill="#FEFCFC" opacity="1.000000" stroke="none" 
	d="
M1246.537354,545.929810 
	C1262.599731,543.730042 1272.825439,534.429688 1279.649414,520.892212 
	C1281.808838,516.608154 1283.429077,512.017151 1284.937500,507.448181 
	C1287.227417,500.512268 1287.094360,500.468323 1294.814575,501.206726 
	C1294.145508,521.969238 1275.638550,545.657288 1253.833984,552.243286 
	C1213.612915,564.392151 1172.974121,543.934570 1163.709961,502.872681 
	C1157.465820,475.196289 1163.440063,449.960114 1184.097290,429.807831 
	C1217.321655,397.395721 1268.014160,407.345459 1288.099243,449.700928 
	C1292.471924,458.922302 1294.254395,466.242706 1294.409790,476.045715 
	C1266.019043,476.045715 1237.627686,476.045715 1209.638184,476.045715 
	C1209.018921,476.755096 1208.604004,477.009766 1208.608643,477.256592 
	C1208.867065,491.056885 1208.066895,504.987854 1209.704590,518.625732 
	C1212.221680,539.585693 1224.010986,547.761963 1246.537354,545.929810 
M1229.497925,467.629456 
	C1235.419434,467.629456 1241.340820,467.629456 1248.365479,467.629456 
	C1247.501831,455.599213 1247.405029,444.269928 1245.666626,433.198395 
	C1244.280151,424.366791 1237.807617,419.970398 1229.013184,419.453552 
	C1220.537109,418.955383 1213.806274,423.194977 1210.896362,431.458069 
	C1206.766968,443.183777 1208.673096,455.306122 1208.417847,467.629456 
	C1215.552979,467.629456 1222.026123,467.629456 1229.497925,467.629456 
z"/>
<path fill="#FEFCFC" opacity="1.000000" stroke="none" 
	d="
M796.605469,525.364380 
	C777.981201,495.207581 781.813354,456.468994 805.895508,431.374542 
	C831.800964,404.380188 878.299988,399.275848 906.947754,441.655914 
	C913.883057,451.915771 917.749817,463.277740 918.003052,476.337646 
	C903.475708,476.337646 889.202332,476.337646 874.928894,476.337646 
	C860.779358,476.337646 846.629883,476.337646 831.790405,476.337646 
	C832.638062,493.318237 829.913696,510.175659 834.845398,526.632812 
	C838.324707,538.243347 846.318665,544.672974 858.306580,545.943420 
	C877.312744,547.957642 891.942932,540.786133 901.217468,524.054688 
	C905.132507,516.991943 907.698730,509.181671 911.116760,501.150116 
	C912.957947,501.150116 915.720825,501.150116 918.506287,501.150116 
	C912.470398,533.921265 889.672058,557.875061 850.132874,555.477539 
	C827.656738,554.114746 809.669495,544.396057 796.605469,525.364380 
M837.685791,467.620850 
	C848.644653,467.620850 859.603516,467.620850 870.952820,467.620850 
	C870.952820,459.782440 871.205078,452.476227 870.863342,445.197937 
	C870.638977,440.418915 870.076355,435.527405 868.733643,430.960175 
	C866.846497,424.540894 862.174805,420.767914 855.366577,419.797058 
	C843.549377,418.111877 834.918030,423.711060 833.180115,435.871033 
	C831.710999,446.150452 831.939819,456.672516 831.403442,467.360291 
	C833.799683,467.477631 835.265930,467.549438 837.685791,467.620850 
z"/>
<path fill="#FEFAFA" opacity="1.000000" stroke="none" 
	d="
M488.363831,453.999756 
	C488.363861,443.715698 488.363861,433.931671 488.363861,423.730957 
	C481.161713,423.730957 474.399872,423.730957 467.294891,423.730957 
	C467.294891,420.762360 467.294891,418.186615 467.294891,415.215118 
	C488.257355,415.215118 509.447540,415.215118 531.030640,415.215118 
	C531.030640,422.313477 531.030640,429.371918 531.030640,436.430389 
	C531.295776,436.517395 531.560852,436.604401 531.825989,436.691406 
	C532.500854,435.508911 533.200806,434.339966 533.846802,433.141876 
	C543.161926,415.864929 562.400513,406.085358 579.576050,409.904388 
	C589.305420,412.067719 595.806152,419.025909 597.107483,428.669495 
	C598.553040,439.381866 594.574951,448.338409 586.266602,453.077057 
	C577.746277,457.936584 566.138611,457.146301 559.065002,451.077148 
	C552.547119,445.484833 551.205872,438.345337 552.913513,430.215637 
	C553.299988,428.375610 552.658142,426.319580 552.489624,424.362976 
	C550.743347,425.370239 548.646118,426.041107 547.306763,427.438446 
	C537.353455,437.822876 532.973694,450.956329 532.425476,464.694977 
	C531.396912,490.468231 531.823242,516.299561 531.664856,542.106873 
	C531.663147,542.388306 531.934814,542.671509 532.308289,543.403809 
	C541.320129,543.403809 550.556213,543.403809 560.023804,543.403809 
	C560.023804,546.470581 560.023804,549.083435 560.023804,551.980469 
	C529.131348,551.980469 498.237518,551.980469 467.142029,551.980469 
	C467.142029,549.253174 467.142029,546.630615 467.142029,543.614136 
	C474.058502,543.614136 480.842133,543.614136 488.363831,543.614136 
	C488.363831,513.651306 488.363831,484.075531 488.363831,453.999756 
z"/>
<path fill="#FEFAFA" opacity="1.000000" stroke="none" 
	d="
M861.462891,950.318665 
	C882.247070,950.283386 902.570435,950.302063 922.893677,950.343811 
	C923.179138,950.344421 923.463928,950.634216 923.983154,950.916199 
	C923.983154,957.915283 923.983154,965.043884 923.983154,972.172485 
	C924.248657,972.288513 924.514160,972.404480 924.779602,972.520508 
	C925.354919,971.546021 925.976807,970.595703 926.498535,969.593323 
	C935.143311,952.982666 951.802063,943.423218 969.338623,945.025330 
	C979.172302,945.923645 986.679932,951.755981 989.330322,960.555786 
	C992.391357,970.719055 989.637451,980.837524 982.169556,986.865967 
	C974.950500,992.693420 963.420227,993.612305 955.345825,989.003845 
	C947.012634,984.247559 943.899780,976.052795 946.125427,965.282654 
	C946.450012,963.711914 945.930237,961.966614 945.801147,960.302124 
	C944.122742,961.027771 942.005554,961.330444 940.834839,962.545227 
	C930.615784,973.149414 925.970032,986.549683 925.488037,1000.654358 
	C924.602112,1026.579834 925.235352,1052.557251 925.235352,1079.037476 
	C934.406128,1079.037476 943.630493,1079.037476 953.093628,1079.037476 
	C953.093628,1082.167358 953.093628,1084.775757 953.093628,1087.709839 
	C922.177917,1087.709839 891.325989,1087.709839 860.230469,1087.709839 
	C860.230469,1084.961914 860.230469,1082.377930 860.230469,1079.378662 
	C867.090942,1079.378662 873.857300,1079.378662 881.033569,1079.378662 
	C881.033569,1039.290649 881.033569,999.609314 881.033569,959.396729 
	C874.116455,959.396729 867.216187,959.396729 859.503479,959.396729 
	C860.072876,955.968445 860.537476,953.171509 861.462891,950.318665 
z"/>
<path fill="#FEFBFB" opacity="1.000000" stroke="none" 
	d="
M997.573120,996.687073 
	C997.598999,966.290405 1018.558716,945.186951 1046.931396,947.113037 
	C1053.134277,947.534241 1059.193604,949.950134 1065.341064,951.350830 
	C1069.210205,952.232361 1073.110352,953.450562 1077.015259,953.523438 
	C1079.367920,953.567383 1082.996948,952.328125 1083.879761,950.572815 
	C1085.958740,946.439087 1088.743530,946.379089 1092.578613,947.268494 
	C1092.578613,961.795044 1092.578613,976.373413 1092.578613,990.978577 
	C1087.762695,992.554138 1084.579956,991.725037 1083.113281,986.387146 
	C1082.245117,983.226929 1080.456177,980.304138 1078.963623,977.333740 
	C1068.607422,956.723450 1050.489624,951.812561 1029.087280,958.172974 
	C1023.302856,959.892029 1018.858704,963.623596 1016.770020,969.647400 
	C1013.108154,980.207703 1017.150146,989.201721 1027.963379,991.787048 
	C1039.268433,994.489990 1050.919922,995.709717 1062.340820,997.976196 
	C1068.514648,999.201355 1074.694214,1000.807434 1080.571777,1003.032410 
	C1093.492310,1007.923645 1100.310303,1017.849060 1101.942017,1031.343140 
	C1107.007568,1073.232666 1072.497437,1101.524048 1032.321411,1088.520630 
	C1028.056274,1087.140137 1023.797668,1085.580078 1019.412903,1084.770142 
	C1014.385315,1083.841553 1010.129944,1085.071167 1006.903198,1089.895386 
	C1005.708557,1091.681519 1002.063782,1091.829102 998.933594,1092.937256 
	C998.933594,1074.386353 998.933594,1057.109253 998.933594,1039.840210 
	C1005.834106,1038.226074 1005.819702,1038.230835 1007.963135,1044.641968 
	C1012.185913,1057.272339 1018.829834,1068.244873 1030.108887,1075.804688 
	C1041.600586,1083.506836 1054.102905,1084.389038 1066.916992,1079.984009 
	C1078.532471,1075.990967 1084.015747,1066.082153 1081.952637,1053.983643 
	C1080.999512,1048.394409 1077.442139,1044.941284 1072.177734,1043.864868 
	C1063.061768,1042.000854 1053.829834,1040.702759 1044.646606,1039.167969 
	C1040.706909,1038.509521 1036.734009,1038.006958 1032.832764,1037.169800 
	C1009.737122,1032.213379 999.532898,1020.584961 997.573120,996.687073 
z"/>
<path fill="#FEFCFC" opacity="1.000000" stroke="none" 
	d="
M672.540710,1031.584229 
	C673.178406,1032.767578 673.627747,1033.600830 674.542175,1035.296509 
	C682.939026,1014.878418 691.008850,995.258972 699.069153,975.635620 
	C699.257690,975.176880 699.341187,974.674988 699.472656,974.192932 
	C702.680481,962.429932 700.369263,959.342834 688.314941,959.296509 
	C686.184509,959.288269 684.054077,959.295349 681.709351,959.295349 
	C681.709351,956.241333 681.709351,953.657043 681.709351,950.807495 
	C697.856628,950.807495 713.782166,950.807495 730.111877,950.807495 
	C730.111877,953.352295 730.111877,955.921143 730.111877,959.075256 
	C717.977112,958.473694 713.106384,967.580017 709.066284,976.786987 
	C696.501770,1005.420227 684.380554,1034.248169 672.106018,1063.008545 
	C668.515015,1071.422485 664.891357,1079.825073 661.484924,1088.313965 
	C660.421204,1090.964966 659.156921,1092.254639 656.072021,1092.090210 
	C653.094299,1091.931396 651.071228,1091.776123 649.608948,1088.364380 
	C632.177368,1047.693237 614.388306,1007.174866 597.081909,966.451172 
	C594.675476,960.788452 591.899963,958.143860 585.795959,959.242004 
	C583.873413,959.587830 581.836182,959.295959 579.524780,959.295959 
	C579.524780,956.426880 579.524780,953.858704 579.524780,950.912842 
	C605.338501,950.912842 631.229004,950.912842 657.462524,950.912842 
	C657.462524,953.457153 657.462524,956.025085 657.462524,959.119263 
	C652.181213,959.119263 646.777466,959.119263 640.395264,959.119263 
	C651.280029,983.682007 661.816223,1007.458130 672.540710,1031.584229 
z"/>
<path fill="#FEFAFA" opacity="1.000000" stroke="none" 
	d="
M1138.800659,479.000122 
	C1138.800659,500.476929 1138.800659,521.453735 1138.800659,543.005493 
	C1145.816650,543.005493 1152.705933,543.005493 1159.896729,543.005493 
	C1159.896729,546.148071 1159.896729,548.729187 1159.896729,551.612061 
	C1131.386841,551.612061 1102.845825,551.612061 1074.129395,551.612061 
	C1074.129395,548.832153 1074.129395,546.249878 1074.129395,543.296570 
	C1081.113770,543.296570 1087.881836,543.296570 1095.006836,543.296570 
	C1095.006836,503.232910 1095.006836,463.538727 1095.006836,423.361328 
	C1089.800049,423.361328 1084.542358,423.361328 1079.008789,423.361328 
	C1079.008789,420.129883 1079.008789,417.374481 1079.008789,414.266479 
	C1098.731934,414.266479 1118.438721,414.266479 1138.800659,414.266479 
	C1138.800659,435.660889 1138.800659,457.080505 1138.800659,479.000122 
z"/>
<path fill="#FFFDFD" opacity="1.000000" stroke="none" 
	d="
M1172.139160,957.101135 
	C1172.139160,998.065674 1172.139160,1038.541504 1172.139160,1079.541992 
	C1179.264526,1079.541992 1186.185059,1079.541992 1193.407471,1079.541992 
	C1193.407471,1082.640625 1193.407471,1085.227661 1193.407471,1088.129395 
	C1164.912354,1088.129395 1136.321411,1088.129395 1107.457153,1088.129395 
	C1107.457153,1085.494507 1107.457153,1082.938354 1107.457153,1079.861084 
	C1114.391968,1079.861084 1121.306885,1079.861084 1128.535889,1079.861084 
	C1128.535889,1039.792236 1128.535889,1000.232239 1128.535889,960.137817 
	C1121.725098,960.137817 1114.827881,960.137817 1107.561768,960.137817 
	C1107.561768,956.724548 1107.561768,953.832642 1107.561768,950.586853 
	C1128.877075,950.586853 1150.267212,950.586853 1172.139160,950.586853 
	C1172.139160,952.703003 1172.139160,954.657715 1172.139160,957.101135 
z"/>
<path fill="#FFFDFD" opacity="1.000000" stroke="none" 
	d="
M534.000183,950.254272 
	C545.467834,950.254272 556.435486,950.254272 567.937012,950.254272 
	C567.937012,993.478943 567.937012,1036.338623 567.937012,1079.741455 
	C575.367920,1079.741455 582.275696,1079.741455 589.373047,1079.741455 
	C589.373047,1082.729492 589.373047,1085.177734 589.373047,1088.035400 
	C560.713257,1088.035400 532.022461,1088.035400 503.217896,1088.035400 
	C503.217896,1085.418823 503.217896,1082.946899 503.217896,1079.974854 
	C510.163391,1079.974854 517.076050,1079.974854 524.375793,1079.974854 
	C524.375793,1039.798218 524.375793,1000.119202 524.375793,959.913452 
	C517.411377,959.913452 510.510437,959.913452 503.363190,959.913452 
	C503.363190,956.623047 503.363190,953.846558 503.363190,950.254272 
	C513.346680,950.254272 523.423401,950.254272 534.000183,950.254272 
z"/>
<path fill="#FEFCFC" opacity="1.000000" stroke="none" 
	d="
M1100.027100,358.114319 
	C1107.580933,349.895050 1117.010742,347.619934 1125.990356,351.612976 
	C1134.271973,355.295624 1139.495605,364.010010 1138.773560,372.938507 
	C1138.015259,382.314850 1131.629272,389.984985 1122.612671,392.349121 
	C1114.017212,394.602844 1104.713989,391.281647 1099.592041,384.131012 
	C1094.230103,376.645386 1094.309570,367.149658 1100.027100,358.114319 
z"/>
<path fill="#FEFCFC" opacity="1.000000" stroke="none" 
	d="
M1133.657227,921.270691 
	C1127.112061,911.544189 1127.310791,901.098999 1133.948730,893.312256 
	C1139.959961,886.260620 1150.450928,883.862122 1158.981201,887.589172 
	C1167.140259,891.154114 1172.038574,898.771240 1171.949341,907.755188 
	C1171.860962,916.659485 1166.648071,924.311646 1158.452515,927.567566 
	C1149.859619,930.981384 1141.065063,928.826904 1133.657227,921.270691 
z"/>
<path fill="#FEFCFC" opacity="1.000000" stroke="none" 
	d="
M567.687195,903.638672 
	C568.824951,915.517212 563.210815,924.809753 553.306824,928.002869 
	C543.440430,931.183838 532.953735,927.281433 527.778259,918.502991 
	C522.608337,909.733948 524.240417,898.529175 531.702148,891.564270 
	C544.010010,880.076050 563.158081,886.293457 567.687195,903.638672 
z"/>
<path fill="#BC0202" opacity="1.000000" stroke="none" 
	d="
M1020.068726,563.731567 
	C1037.388916,565.303345 1043.242676,573.611267 1039.148560,590.187256 
	C1037.289917,597.712585 1033.028564,603.735596 1027.577148,609.061707 
	C1010.089905,626.146973 978.383179,632.093811 958.018982,622.078674 
	C939.202698,612.824829 933.470886,593.557129 944.179443,575.549072 
	C944.519104,574.977844 944.913696,574.438293 945.236450,573.858276 
	C949.604553,566.008789 955.387695,562.180176 965.238342,562.805542 
	C983.310974,563.952881 1001.486694,563.475769 1020.068726,563.731567 
z"/>
<path fill="#BC0303" opacity="1.000000" stroke="none" 
	d="
M1002.238342,484.983093 
	C998.323486,494.338135 990.513000,494.264862 982.712769,493.730560 
	C975.363037,493.227112 971.619568,490.058960 969.878418,482.028931 
	C966.317627,465.607422 966.255859,448.995880 969.365845,432.523407 
	C971.070984,423.491913 976.412903,419.849884 985.750122,419.744537 
	C987.246765,419.727661 988.744324,419.717560 990.240540,419.748199 
	C998.434814,419.915924 1002.516968,422.652191 1003.683655,430.795227 
	C1005.044495,440.293488 1005.890686,449.978210 1005.683716,459.554443 
	C1005.502625,467.930634 1003.552490,476.268555 1002.238342,484.983093 
z"/>
<path fill="#BC0202" opacity="1.000000" stroke="none" 
	d="
M374.130066,544.670532 
	C361.141083,543.312561 355.303040,538.234314 353.913849,525.759216 
	C353.039215,517.904968 352.986084,509.812958 353.791901,501.953491 
	C354.903503,491.111084 360.551697,485.755707 371.440460,484.187469 
	C380.465057,482.887726 389.575470,482.184174 399.355682,481.140961 
	C399.355682,488.838226 399.551392,496.269684 399.299469,503.685913 
	C399.057983,510.795135 399.240173,518.093933 397.656647,524.944214 
	C394.773682,537.416199 386.226166,544.111511 374.130066,544.670532 
z"/>
<path fill="#BB0202" opacity="1.000000" stroke="none" 
	d="
M743.913818,691.505981 
	C762.552368,688.995178 772.602112,696.573486 775.139832,714.703613 
	C775.530762,717.496765 775.813049,720.331482 775.820679,723.147766 
	C775.877197,744.125671 776.105286,765.108765 775.695496,786.078796 
	C775.574524,792.272400 774.368408,798.713684 772.268188,804.539978 
	C768.652832,814.569641 760.304993,818.210754 750.086670,818.167236 
	C739.235413,818.120972 731.564331,813.571411 728.150208,804.110413 
	C726.373840,799.188049 725.183105,793.775879 725.109802,788.565491 
	C724.788757,765.762329 724.867737,742.951111 725.068604,720.145203 
	C725.106079,715.881531 725.950989,711.506958 727.151611,707.396301 
	C729.557434,699.159241 734.801025,693.507202 743.913818,691.505981 
z"/>
<path fill="#BC0303" opacity="1.000000" stroke="none" 
	d="
M416.189026,699.385620 
	C421.183655,691.252014 428.580078,689.772888 436.791992,691.240784 
	C444.883575,692.687073 449.298553,698.406311 450.064026,706.104431 
	C451.127869,716.802734 451.170624,727.602478 451.665833,738.703369 
	C438.294037,738.703369 425.584259,738.703369 412.033081,738.703369 
	C412.885010,725.676331 410.046387,712.343079 416.189026,699.385620 
z"/>
<path fill="#BC0303" opacity="1.000000" stroke="none" 
	d="
M803.832520,961.200439 
	C805.815247,966.582458 808.564087,971.601257 809.051575,976.830872 
	C809.878479,985.702515 809.278931,994.707214 809.278931,1003.912781 
	C796.435486,1003.912781 783.702393,1003.912781 771.357239,1003.912781 
	C771.357239,993.593018 770.237427,983.342224 771.606018,973.435242 
	C773.966125,956.351501 790.838257,950.164001 803.832520,961.200439 
z"/>
<path fill="#BD0707" opacity="1.000000" stroke="none" 
	d="
M1228.998535,467.629456 
	C1222.026123,467.629456 1215.552979,467.629456 1208.417847,467.629456 
	C1208.673096,455.306122 1206.766968,443.183777 1210.896362,431.458069 
	C1213.806274,423.194977 1220.537109,418.955383 1229.013184,419.453552 
	C1237.807617,419.970398 1244.280151,424.366791 1245.666626,433.198395 
	C1247.405029,444.269928 1247.501831,455.599213 1248.365479,467.629456 
	C1241.340820,467.629456 1235.419434,467.629456 1228.998535,467.629456 
z"/>
<path fill="#BC0505" opacity="1.000000" stroke="none" 
	d="
M837.208984,467.621033 
	C835.265930,467.549438 833.799683,467.477631 831.403442,467.360291 
	C831.939819,456.672516 831.710999,446.150452 833.180115,435.871033 
	C834.918030,423.711060 843.549377,418.111877 855.366577,419.797058 
	C862.174805,420.767914 866.846497,424.540894 868.733643,430.960175 
	C870.076355,435.527405 870.638977,440.418915 870.863342,445.197937 
	C871.205078,452.476227 870.952820,459.782440 870.952820,467.620850 
	C859.603516,467.620850 848.644653,467.620850 837.208984,467.621033 
z"/>
</svg>