<svg version="1.1" id="Layer_1" xmlns="http://www.w3.org/2000/svg" xmlns:xlink="http://www.w3.org/1999/xlink" x="0px" y="0px"
	 width="100%" viewBox="0 0 384 384" enable-background="new 0 0 384 384" xml:space="preserve">
<path fill="#000000" opacity="1.000000" stroke="none" 
	d="
M221.000000,385.000000 
	C147.333344,385.000000 74.166695,385.000000 1.000029,385.000000 
	C1.000020,257.000031 1.000020,129.000076 1.000010,1.000081 
	C128.999939,1.000054 256.999878,1.000054 384.999878,1.000027 
	C384.999908,128.999924 384.999908,256.999847 384.999939,384.999878 
	C330.500000,385.000000 276.000000,385.000000 221.000000,385.000000 
M42.020927,320.575867 
	C42.060673,320.761963 42.100422,320.948029 41.974873,321.880157 
	C45.647038,328.110626 48.401531,335.182373 53.181919,340.396881 
	C63.208027,351.333435 77.127289,354.153809 91.248581,354.936951 
	C99.280418,355.382355 107.404167,353.946167 115.464455,354.166138 
	C123.370476,354.381897 130.548950,351.877075 138.726196,349.939545 
	C141.763885,349.939545 144.801575,349.939545 147.839264,349.939545 
	C147.560043,349.548462 147.280807,349.157379 147.001587,348.766296 
	C148.360733,347.199677 149.719879,345.633057 151.760071,343.792938 
	C164.277847,339.545380 176.795609,335.297821 189.435196,331.008911 
	C189.855682,334.397308 189.997787,337.354736 190.614304,340.209717 
	C194.033844,356.045319 213.902328,366.614563 229.535767,363.824890 
	C234.805939,362.884460 240.163528,360.427429 244.585846,357.368958 
	C248.207397,354.864288 250.499680,350.437653 254.030014,346.921112 
	C254.000595,346.191284 253.971176,345.461426 254.039993,343.844543 
	C255.286514,335.163574 252.584930,327.905884 246.011719,321.271210 
	C244.365845,319.513367 242.719955,317.755524 241.072525,315.996033 
	C243.537933,316.109772 246.181656,316.231750 249.571060,316.124451 
	C258.879028,318.522064 265.964264,323.950439 270.955475,332.602875 
	C273.123260,338.642609 275.291046,344.682373 277.790680,351.343384 
	C276.989136,356.241425 279.176849,360.446716 280.940643,364.733765 
	C283.424713,370.771637 287.119812,376.198700 293.049957,378.885437 
	C309.151306,386.180359 322.660248,381.057526 332.788574,368.457520 
	C336.657379,363.644623 339.304443,357.279419 335.053497,350.701080 
	C334.460083,349.782715 334.392151,348.524780 334.033966,347.257782 
	C336.438446,347.537811 338.115387,347.733124 339.792328,347.928436 
	C339.979279,347.289673 340.166260,346.650909 340.353210,346.012146 
	C334.213013,342.318573 328.072784,338.625031 321.979248,334.959534 
	C318.367432,345.405884 315.731323,351.152802 321.464325,354.253448 
	C323.836151,353.564911 325.903992,352.255920 326.896149,352.824371 
	C328.950134,354.001190 329.856964,355.928802 329.070160,358.969147 
	C327.581635,364.720764 323.207367,367.853943 318.828125,370.168030 
	C314.772156,372.311279 309.542877,373.446259 304.959259,373.133759 
	C294.499756,372.420563 290.393860,364.501099 287.871216,354.733093 
	C288.303101,348.506134 287.505402,342.564423 283.984589,336.493683 
	C282.706451,333.187408 282.184021,329.247406 280.028442,326.677002 
	C265.234619,309.036346 246.220490,302.848602 223.692749,306.910828 
	C217.283325,308.066559 210.419128,308.027222 204.523071,310.413086 
	C193.878571,314.720428 183.901138,320.700378 171.825012,321.323761 
	C170.330948,321.602112 168.671936,321.556030 167.372299,322.216797 
	C162.584869,324.650909 157.833557,327.183319 153.252838,329.980408 
	C151.843124,330.841217 151.021759,332.665558 150.003143,334.098785 
	C150.003143,334.098785 150.062622,334.034119 149.777344,333.490540 
	C149.585220,333.561005 149.393112,333.631439 148.506348,334.014099 
	C147.340546,333.866089 145.410080,334.084595 145.134613,333.509827 
	C143.501999,330.103638 141.251877,330.590393 138.716339,332.079437 
	C136.599960,333.322296 134.351379,334.436493 132.489624,335.998840 
	C126.240883,341.242706 118.317459,341.052612 111.006416,342.799347 
	C110.137848,343.006897 108.961678,341.927032 107.549484,341.266937 
	C109.787521,339.732056 111.333122,338.672058 112.878731,337.612030 
	C112.840591,337.141052 112.802460,336.670074 112.764328,336.199097 
	C110.953384,336.052216 109.035866,335.458374 107.355507,335.859100 
	C104.558304,336.526093 101.957649,338.565338 99.195839,338.732605 
	C89.979317,339.290833 80.641243,339.534393 72.516922,333.972168 
	C70.767601,332.774536 69.361198,330.895905 68.307182,329.040955 
	C68.132507,328.733582 70.593452,326.928619 71.986603,325.681244 
	C69.269333,321.755890 63.010311,320.298584 63.000210,313.195923 
	C62.992100,308.937805 62.942478,304.679047 63.004906,300.421967 
	C63.020622,299.350006 63.053139,297.638702 63.659325,297.317169 
	C68.110161,294.955994 65.538475,291.804382 65.050186,288.135925 
	C68.792679,276.388123 76.571777,267.593536 86.588287,261.097870 
	C97.172478,254.234070 109.760971,255.873825 121.682587,253.912888 
	C121.891251,256.161499 122.027565,257.630493 121.855751,259.727051 
	C120.451607,261.077301 119.212639,263.308075 117.611549,263.608429 
	C113.262871,264.424133 113.979965,268.442322 114.333244,270.144440 
	C114.927696,273.008575 117.081512,275.983917 121.803452,276.037567 
	C126.014053,276.633026 130.224655,277.228485 134.933105,278.281952 
	C136.467987,278.963867 138.002853,279.645782 139.214127,280.183960 
	C138.181854,282.731750 137.181686,285.200256 135.888046,288.411041 
	C134.203186,290.822357 134.927704,293.456940 137.603577,292.769714 
	C142.152664,291.601471 146.374924,289.061829 150.623810,286.882660 
	C151.923523,286.216034 152.860657,284.842468 154.099716,283.663361 
	C155.361557,285.196777 156.278473,286.311066 157.256638,288.072052 
	C158.318451,289.492218 159.118820,291.422729 160.536209,292.148865 
	C161.444763,292.614288 163.789185,291.719391 164.581512,290.716553 
	C167.806976,286.634064 166.118454,281.400146 161.010086,278.236023 
	C160.918533,278.021759 160.826965,277.807465 160.650238,277.418549 
	C160.650238,277.418549 160.324677,277.235840 160.126907,276.481476 
	C163.630753,273.002380 165.966782,273.220184 171.081131,278.274475 
	C173.974060,278.610168 176.866989,278.945892 181.149445,279.442841 
	C179.663910,276.464142 178.764420,274.660553 177.351929,272.397095 
	C172.949936,269.617554 168.142044,267.974213 163.000641,269.102814 
	C159.399414,269.893311 156.050095,271.768890 152.516251,272.943146 
	C146.725861,274.867188 142.695999,273.055756 140.366791,267.062683 
	C143.064697,259.383820 149.824936,255.618103 157.682846,258.018280 
	C158.454971,257.959076 159.227097,257.899902 160.628723,257.958008 
	C161.054535,257.988007 161.480331,258.018005 162.195282,258.608948 
	C162.796188,258.684631 163.397079,258.760345 164.888763,258.956451 
	C167.580582,258.932709 170.272415,258.908966 173.641953,259.007904 
	C174.817947,258.030182 175.993942,257.052460 177.579651,256.006470 
	C177.579651,256.006470 177.973679,255.875061 178.692902,255.772842 
	C182.978683,253.127167 186.228317,255.140930 189.429382,258.002350 
	C193.095428,261.279419 189.124771,263.537659 188.201553,266.899170 
	C188.124664,268.497314 188.047775,270.095459 187.953476,272.055542 
	C192.324951,271.667358 196.474518,271.825409 197.018784,265.447571 
	C199.200577,262.272064 200.280090,266.420349 201.984955,266.593140 
	C201.984955,266.593140 202.115189,266.965607 202.022568,267.662476 
	C203.051865,268.149658 204.081161,268.636871 205.550705,268.991272 
	C205.550705,268.991272 205.989883,268.854980 206.659454,268.996338 
	C207.111237,268.951477 207.563019,268.906647 208.471039,268.997467 
	C208.471039,268.997467 208.930420,269.121979 209.354431,269.737000 
	C210.532227,269.532928 211.710022,269.328888 212.887817,269.124817 
	C212.295441,268.394501 211.703064,267.664215 210.996872,266.476105 
	C210.996872,266.476105 210.869873,266.021790 211.001572,265.362518 
	C210.342560,264.570862 209.683548,263.779205 209.004303,262.998169 
	C209.004303,262.998169 209.012802,262.978119 208.796936,262.306854 
	C207.379761,259.890686 205.962585,257.474487 204.177734,254.431458 
	C206.424133,254.299240 207.642426,254.227539 208.560944,254.263596 
	C208.560944,254.263596 208.638077,254.572708 208.590332,255.135422 
	C208.991837,258.112000 210.723465,258.692932 213.150482,257.446533 
	C215.431168,256.275269 217.585175,254.857361 220.699799,253.011810 
	C217.485077,251.447250 214.791061,250.136108 211.900696,248.341568 
	C211.371475,247.918671 210.842270,247.495789 210.033661,246.246414 
	C204.322113,243.584305 198.640610,242.065033 192.914047,246.716110 
	C192.914047,246.716110 192.908234,246.924133 192.129868,246.971512 
	C190.097656,247.287842 188.065430,247.604187 186.055847,247.985321 
	C186.055847,247.985321 186.058731,247.915344 185.768875,247.259338 
	C182.836136,245.880783 179.903397,244.502228 176.498917,243.003357 
	C176.498917,243.003357 176.031403,242.867615 175.979156,242.641022 
	C175.979156,242.641022 175.773193,242.533081 175.560242,242.408890 
	C175.560242,242.408890 175.386581,242.583878 175.254776,241.844421 
	C175.869385,238.912415 176.483978,235.980423 177.784225,233.028259 
	C178.836838,232.714386 179.889450,232.400513 181.220413,232.764603 
	C181.734726,233.151810 182.399139,233.977264 182.740738,233.860275 
	C187.606461,232.193741 191.218262,234.814545 195.159027,236.983902 
	C198.264557,238.693466 201.818665,239.588165 205.731537,241.274307 
	C209.333405,242.210449 212.936172,243.143066 216.536377,244.085556 
	C217.289062,244.282593 218.493759,244.300812 218.710159,244.765060 
	C221.673035,251.120880 227.964981,249.025970 232.604584,249.540649 
	C239.860901,250.345581 242.727936,251.577133 245.055191,258.764771 
	C245.262421,259.404785 246.042435,259.892456 246.620239,260.374359 
	C252.771378,265.504669 259.907135,262.589813 266.600342,262.572479 
	C272.973969,262.556000 279.337769,261.446625 285.721344,261.151581 
	C287.960571,261.048065 290.588806,261.599152 289.236023,265.676788 
	C288.096588,272.036163 292.163483,275.709045 297.052216,275.972931 
	C297.052216,275.972931 296.952057,275.916595 297.093719,276.208496 
	C297.093719,276.208496 297.424194,276.535126 297.424194,276.535126 
	C297.424194,276.535126 297.792358,276.369629 298.464478,276.128174 
	C300.043762,275.798676 301.623047,275.469208 303.202301,275.139709 
	C302.636292,274.803833 302.070282,274.467957 301.504272,274.132050 
	C301.306793,269.797729 301.840759,265.266998 300.741821,261.174744 
	C299.058746,254.907303 304.323700,256.054321 306.744690,255.384048 
	C309.566620,254.602783 311.388458,256.577789 312.213226,260.075684 
	C312.902649,262.999664 315.492645,265.608154 317.675659,267.951477 
	C318.203186,268.517731 321.631226,267.667389 321.709076,267.159363 
	C322.233795,263.736206 322.215424,260.229858 322.409851,255.934006 
	C325.778381,255.583786 330.314606,255.112152 336.533936,254.465515 
	C334.080780,251.982422 332.534912,250.417679 330.607025,248.147629 
	C329.122894,247.747391 327.653564,247.080582 326.151855,246.997147 
	C321.726715,246.751297 317.288757,246.736572 313.022675,245.823425 
	C313.926147,244.166977 314.932770,242.556305 315.695435,240.837372 
	C316.173706,239.759338 316.285370,238.518616 316.561493,237.350876 
	C315.371429,237.213333 314.117371,236.763504 313.002258,236.991852 
	C307.947388,238.026962 305.342438,241.815430 304.303101,246.340790 
	C303.423889,250.169037 301.478302,251.911819 297.826416,251.876129 
	C291.599579,251.815338 285.592560,251.649078 279.428284,249.255096 
	C274.077148,247.176895 269.058777,245.499298 265.169037,240.045639 
	C265.043884,235.930511 264.918732,231.815384 265.006317,226.893646 
	C266.034790,224.361053 266.936188,221.767151 268.121490,219.310211 
	C269.905792,215.611725 272.561218,212.446121 276.883514,212.280594 
	C285.246613,211.960297 292.130035,215.218414 297.918121,221.433502 
	C299.730347,223.379379 300.004578,228.296265 304.738403,226.740082 
	C305.772980,216.630371 307.205566,206.982132 314.266479,199.292877 
	C320.869446,203.779144 320.869446,203.779144 326.060577,202.761169 
	C327.668762,202.666580 329.309723,202.735428 330.873993,202.421814 
	C331.975922,202.200882 332.973694,201.460358 334.017975,200.951813 
	C333.441833,200.157501 332.708099,199.433701 332.315735,198.557114 
	C330.174957,193.774170 326.123016,196.697800 322.364044,195.789566 
	C321.170349,193.620331 318.670441,191.190323 319.041138,189.333389 
	C319.956207,184.749725 327.638275,180.608932 333.106598,180.527863 
	C334.378845,180.508987 335.638519,179.645767 336.903992,179.171051 
	C336.339325,178.118454 335.774658,177.065857 334.815918,175.258423 
	C330.278809,175.538437 325.741669,175.818436 321.207428,176.098267 
	C321.805634,174.776917 322.582733,173.060425 323.428864,171.191376 
	C322.320099,171.191376 321.343414,171.191376 319.639587,171.099289 
	C318.741516,171.454147 317.843445,171.809006 316.179108,172.044891 
	C313.907959,168.173813 311.160645,168.488647 307.951202,171.866043 
	C307.527008,173.298874 307.102783,174.731705 306.257538,176.721039 
	C305.495483,180.574661 304.547546,184.403992 304.039124,188.290771 
	C303.719574,190.733536 304.059204,193.262512 303.465729,196.043808 
	C301.803802,196.732971 299.851074,198.370773 298.525055,197.964233 
	C285.590546,193.998581 277.325897,185.089325 272.659271,172.579391 
	C270.415649,166.564850 271.078217,160.929382 272.139191,154.502609 
	C273.421539,146.735092 275.853271,140.137512 280.666321,133.699905 
	C281.472839,132.483932 282.279358,131.267960 283.012939,130.010101 
	C283.012939,130.010101 283.057251,130.081589 283.771271,130.052612 
	C286.541443,128.315369 289.311615,126.578117 292.702271,125.225746 
	C296.723907,128.006546 299.654449,127.221657 300.850586,122.306473 
	C301.841339,118.235161 303.984985,116.886803 307.810638,117.047333 
	C308.919464,117.093857 310.203064,116.967690 311.138702,116.443054 
	C314.737915,114.424950 318.412201,112.461250 321.716309,110.015045 
	C326.597107,106.401466 331.197235,102.407043 335.870697,98.519295 
	C336.148956,98.287834 336.018341,97.564919 336.736877,96.825821 
	C338.546997,95.222931 340.143402,93.223053 342.215851,92.107422 
	C345.575470,90.298897 343.967957,89.343147 341.320557,87.732162 
	C336.747162,86.814262 332.210754,85.514610 327.591766,85.067604 
	C320.598236,84.390785 319.454895,92.004234 315.147858,94.950584 
	C309.532440,92.131462 302.126709,92.245102 296.613220,94.564041 
	C295.081635,95.208221 293.010101,94.647652 291.195343,94.515198 
	C289.659607,94.403122 288.136963,94.111046 286.384583,93.867500 
	C286.813446,95.499916 287.109283,96.625954 287.348511,97.536499 
	C282.892273,100.522980 279.036285,101.259216 275.267120,96.876518 
	C274.240021,95.682243 271.731812,94.185349 270.391449,98.201752 
	C270.683838,100.401024 270.976196,102.600296 271.332123,105.277687 
	C269.326569,104.497360 267.591980,103.822456 265.308472,102.745850 
	C263.272430,101.254089 261.236389,99.762329 259.141418,98.227394 
	C257.726349,101.865059 259.963318,107.056198 263.576111,109.126564 
	C272.580139,114.286438 273.175781,115.664307 268.073517,121.105499 
	C266.363342,122.004303 264.653137,122.903107 262.204559,123.950722 
	C253.908890,127.900314 251.504181,131.889618 254.771973,136.854691 
	C252.290298,139.067474 249.772934,141.312057 246.601288,143.909546 
	C244.381195,145.582489 241.962708,147.057526 240.018906,149.006073 
	C238.934402,150.093231 238.278488,151.940552 238.161621,153.500168 
	C238.113419,154.143402 239.942123,155.007553 241.001633,155.626648 
	C241.766556,156.073624 242.670990,156.281845 243.130569,156.453568 
	C242.488556,163.812180 236.445236,166.154404 231.469208,168.742493 
	C223.674835,172.796478 214.646500,174.577850 208.711166,182.471390 
	C205.194321,178.651764 202.006912,175.189941 198.937286,170.860092 
	C198.555374,165.763809 198.173462,160.667542 198.062683,154.902313 
	C198.714325,153.648041 199.365967,152.393753 200.704391,151.197525 
	C200.821915,151.311539 200.924194,151.451767 201.061569,151.531631 
	C201.181442,151.601349 201.425934,151.675934 201.470352,151.624100 
	C202.578964,150.330338 203.755356,149.082092 204.741150,147.698547 
	C206.307724,145.499908 207.744797,143.209000 209.848358,140.724640 
	C210.820206,139.851807 211.717438,138.873596 212.776474,138.123947 
	C218.068985,134.377625 219.546768,128.921539 216.894608,122.166397 
	C212.832993,116.953651 207.613525,114.054489 200.241562,113.722328 
	C190.759689,110.431503 181.080765,107.610611 171.843323,103.736916 
	C158.814011,98.273109 146.740067,91.040306 136.640350,80.949821 
	C134.180603,78.492325 132.096832,75.658516 129.928268,72.247543 
	C129.875168,71.939087 129.898544,71.589386 129.757690,71.328255 
	C126.769760,65.788742 123.763351,60.259197 120.901207,53.892448 
	C114.088318,35.648876 119.172676,20.455450 133.484756,7.887409 
	C125.958336,3.075280 112.377335,4.839237 104.668922,10.723300 
	C100.157028,14.167368 95.227417,17.064203 89.887108,20.162706 
	C88.293892,20.419859 86.700668,20.677011 85.031036,20.946329 
	C85.031036,20.946329 85.098351,20.984489 84.867142,20.350513 
	C84.385788,18.977173 83.904434,17.603834 83.122986,15.466879 
	C82.176628,13.979126 81.230270,12.491373 80.283913,11.003620 
	C78.818840,12.072467 77.154205,12.956369 75.944382,14.261779 
	C74.715584,15.587665 73.935432,17.329342 72.248383,19.123991 
	C68.381081,23.083149 69.323372,28.192314 68.157883,33.325035 
	C68.454979,36.119755 68.988594,38.918919 68.936180,41.707069 
	C68.914314,42.870361 67.645683,44.010220 66.246086,45.037365 
	C64.497726,47.295334 62.749367,49.553303 60.297176,52.264011 
	C59.891350,54.782539 58.820724,57.409508 59.210388,59.798271 
	C60.189358,65.799759 61.828243,71.693588 63.130009,78.388580 
	C63.794842,79.671936 64.459671,80.955299 65.549911,82.815971 
	C66.256996,85.433197 66.964088,88.050430 67.458252,89.879555 
	C65.389626,91.088425 63.775108,92.031921 62.020885,93.887558 
	C62.392517,98.328102 62.764149,102.768654 63.042351,107.941978 
	C64.381310,118.750641 72.368347,123.895668 80.964249,128.373260 
	C76.777878,134.699326 78.919067,146.456131 84.917259,150.480637 
	C89.475212,153.538818 94.395508,156.056946 98.953056,159.526489 
	C98.992340,160.446198 99.031616,161.365921 99.296432,162.870071 
	C100.078133,166.397476 100.838768,169.929703 101.647797,173.450836 
	C102.375671,176.618820 102.199165,180.615387 104.096329,182.775818 
	C109.476273,188.902298 114.912941,195.614624 124.489136,195.107819 
	C125.227364,195.068741 126.228294,195.261520 126.702728,195.744095 
	C129.599442,198.690521 132.379196,201.751938 135.416336,205.009232 
	C131.355988,205.326096 127.488708,206.020096 123.666046,205.827652 
	C118.805855,205.582962 116.102287,206.647568 117.136986,212.590912 
	C115.867195,212.345016 114.438667,212.389969 113.356934,211.799530 
	C109.909637,209.917984 103.703781,210.726181 100.478172,213.893433 
	C97.312370,215.555542 94.146576,217.217651 90.313660,219.229996 
	C92.921669,220.440964 94.447662,221.149521 96.904167,222.290131 
	C91.263031,225.017822 86.552383,227.436905 81.726051,229.597595 
	C73.617577,233.227722 66.209267,237.820801 61.248516,245.370377 
	C59.313656,248.314987 58.593040,251.627502 55.316734,254.153687 
	C49.219120,258.855225 42.546043,263.828674 42.820854,273.751038 
	C42.628666,274.407043 42.436481,275.063080 42.244297,275.719086 
	C43.153862,275.758392 44.063423,275.797729 45.497135,276.215729 
	C44.203873,281.701538 43.447868,287.388000 41.491886,292.626343 
	C38.532314,300.552429 38.321632,308.100006 41.292294,315.950439 
	C40.583019,316.654816 39.873741,317.359192 39.026913,318.674927 
	C39.338024,319.061829 39.649136,319.448730 40.615746,319.974701 
	C41.060753,320.004303 41.505760,320.033905 41.989246,320.008484 
	C41.989246,320.008484 41.922276,320.013611 42.020927,320.575867 
z"/>
<path fill="#C61936" opacity="1.000000" stroke="none" 
	d="
M271.158936,331.956696 
	C265.964264,323.950439 258.879028,318.522064 248.937286,315.954773 
	C243.516525,312.952209 238.642181,313.878113 232.877167,315.162811 
	C237.840927,317.713745 242.001251,319.851776 246.161575,321.989838 
	C252.584930,327.905884 255.286514,335.163574 253.695038,344.426819 
	C253.360474,345.627106 253.370850,346.245056 253.381226,346.863037 
	C250.499680,350.437653 248.207397,354.864288 244.585846,357.368958 
	C240.163528,360.427429 234.805939,362.884460 229.535767,363.824890 
	C213.902328,366.614563 194.033844,356.045319 190.614304,340.209717 
	C189.997787,337.354736 189.855682,334.397308 189.435196,331.008911 
	C176.795609,335.297821 164.277847,339.545380 151.017365,343.851959 
	C146.153976,345.890137 142.033310,347.869293 137.912659,349.848450 
	C130.548950,351.877075 123.370476,354.381897 115.464455,354.166138 
	C107.404167,353.946167 99.280418,355.382355 91.248581,354.936951 
	C77.127289,354.153809 63.208027,351.333435 53.181919,340.396881 
	C48.401531,335.182373 45.647038,328.110626 42.247108,321.371918 
	C42.320320,320.580322 42.121300,320.296967 41.922276,320.013611 
	C41.922276,320.013611 41.989246,320.008484 42.140114,319.729736 
	C42.208984,318.205261 42.126987,316.959503 42.044991,315.713745 
	C38.321632,308.100006 38.532314,300.552429 41.491886,292.626343 
	C43.447868,287.388000 44.203873,281.701538 45.138847,275.757385 
	C44.242096,274.567596 43.703632,273.836151 43.165169,273.104706 
	C42.546043,263.828674 49.219120,258.855225 55.316734,254.153687 
	C58.593040,251.627502 59.313656,248.314987 61.248516,245.370377 
	C66.209267,237.820801 73.617577,233.227722 81.726051,229.597595 
	C86.552383,227.436905 91.263031,225.017822 96.904167,222.290131 
	C94.447662,221.149521 92.921669,220.440964 90.313660,219.229996 
	C94.146576,217.217651 97.312370,215.555542 101.234818,213.714554 
	C106.068016,213.602127 110.148354,213.788361 114.218750,213.659866 
	C115.395630,213.622696 116.543968,212.681610 117.705391,212.154922 
	C116.102287,206.647568 118.805855,205.582962 123.666046,205.827652 
	C127.488708,206.020096 131.355988,205.326096 135.416336,205.009232 
	C132.379196,201.751938 129.599442,198.690521 126.702728,195.744095 
	C126.228294,195.261520 125.227364,195.068741 124.489136,195.107819 
	C114.912941,195.614624 109.476273,188.902298 104.096329,182.775818 
	C102.199165,180.615387 102.375671,176.618820 101.647797,173.450836 
	C100.838768,169.929703 100.078133,166.397476 99.559837,162.535248 
	C101.404251,162.566177 103.066841,162.731659 104.550636,163.336090 
	C108.641769,165.002625 112.607643,166.982513 116.722382,168.583130 
	C119.307663,169.588806 122.071907,170.134369 124.755859,170.886353 
	C124.963165,170.281311 125.170471,169.676254 125.377777,169.071213 
	C116.636711,165.652588 107.895645,162.233978 99.154579,158.815369 
	C94.395508,156.056946 89.475212,153.538818 84.917259,150.480637 
	C78.919067,146.456131 76.777878,134.699326 80.964249,128.373260 
	C72.368347,123.895668 64.381310,118.750641 63.482891,107.486816 
	C64.235725,105.548447 64.744125,104.075188 64.819870,102.580002 
	C64.982262,99.374847 64.921257,96.158371 65.297905,92.792267 
	C67.819077,94.290504 69.994057,95.943008 73.335716,98.481926 
	C71.576881,91.588715 68.586609,86.802879 65.124504,82.238655 
	C64.459671,80.955299 63.794842,79.671936 63.435230,77.954102 
	C63.916332,77.114426 64.276840,76.691963 64.240791,76.306602 
	C63.541142,68.828308 62.818176,61.351898 62.021851,53.883434 
	C61.945206,53.164604 61.353569,52.500683 61.001003,51.811272 
	C62.749367,49.553303 64.497726,47.295334 66.682877,45.376266 
	C67.708420,46.478020 68.297180,47.240879 68.846420,48.262016 
	C68.876442,48.680008 68.945961,48.839722 69.028046,49.252518 
	C69.296074,49.699013 69.551529,49.892422 69.955833,50.409157 
	C72.085220,53.449192 74.065758,56.165894 76.357117,59.074463 
	C79.954720,63.238136 83.241493,67.209946 86.720924,71.473419 
	C90.482918,74.717186 94.052261,77.669289 97.621613,80.621384 
	C98.068764,80.182129 98.515907,79.742882 98.963058,79.303627 
	C95.933403,76.434303 92.903740,73.564972 89.699600,70.380798 
	C85.257866,66.079247 80.990623,62.092545 76.914070,57.758644 
	C75.871727,54.905952 74.638687,52.400467 73.210587,49.564148 
	C71.904877,43.833523 70.794220,38.433735 69.727722,32.640778 
	C70.834190,27.794714 71.896492,23.341824 72.958801,18.888933 
	C73.935432,17.329342 74.715584,15.587665 75.944382,14.261779 
	C77.154205,12.956369 78.818840,12.072467 80.283913,11.003620 
	C81.230270,12.491373 82.176628,13.979126 83.230766,16.108456 
	C83.925148,18.161516 84.511749,19.573004 85.098351,20.984489 
	C85.098351,20.984489 85.031036,20.946329 85.087921,21.310690 
	C86.401382,27.248083 89.922501,31.268604 94.091965,34.876740 
	C93.396210,32.195309 92.026566,29.924391 90.352188,27.906315 
	C88.111679,25.205908 87.547264,22.726421 90.485718,20.207214 
	C95.227417,17.064203 100.157028,14.167368 104.668922,10.723300 
	C112.377335,4.839237 125.958336,3.075280 133.484756,7.887409 
	C119.172676,20.455450 114.088318,35.648876 120.647285,54.384289 
	C121.577461,61.940941 123.983826,68.368576 129.840179,72.997734 
	C132.096832,75.658516 134.180603,78.492325 136.640350,80.949821 
	C146.740067,91.040306 158.814011,98.273109 171.843323,103.736916 
	C181.080765,107.610611 190.759689,110.431503 200.686356,114.268997 
	C206.365158,117.500427 211.599182,120.185204 216.833191,122.869972 
	C219.546768,128.921539 218.068985,134.377625 212.776474,138.123947 
	C211.717438,138.873596 210.820206,139.851807 209.177200,140.816422 
	C205.676559,144.318619 202.847092,147.729050 200.017609,151.139465 
	C199.365967,152.393753 198.714325,153.648041 197.604065,155.298248 
	C193.992935,161.354538 194.719421,168.312729 198.819519,171.728134 
	C202.006912,175.189941 205.194321,178.651764 208.711166,182.471390 
	C214.646500,174.577850 223.674835,172.796478 231.469208,168.742493 
	C236.445236,166.154404 242.488556,163.812180 243.130569,156.453568 
	C242.670990,156.281845 241.766556,156.073624 241.001633,155.626648 
	C239.942123,155.007553 238.113419,154.143402 238.161621,153.500168 
	C238.278488,151.940552 238.934402,150.093231 240.018906,149.006073 
	C241.962708,147.057526 244.381195,145.582489 247.157532,143.672775 
	C251.280945,141.513275 254.848114,139.590546 259.455048,137.107376 
	C254.031540,133.877716 255.577591,131.449280 258.033813,129.204117 
	C259.600708,127.771866 261.374054,126.565414 263.399048,125.182312 
	C265.412170,123.769569 267.081116,122.432251 268.750031,121.094925 
	C273.175781,115.664307 272.580139,114.286438 263.576111,109.126564 
	C259.963318,107.056198 257.726349,101.865059 259.141418,98.227394 
	C261.236389,99.762329 263.272430,101.254089 265.606567,103.307297 
	C269.041138,105.351807 272.177582,106.834885 275.314056,108.317955 
	C275.576324,107.857292 275.838562,107.396622 276.100830,106.935959 
	C274.408813,103.882751 272.716797,100.829544 271.024750,97.776337 
	C271.731812,94.185349 274.240021,95.682243 275.267120,96.876518 
	C279.036285,101.259216 282.892273,100.522980 287.348511,97.536499 
	C287.109283,96.625954 286.813446,95.499916 286.384583,93.867500 
	C288.136963,94.111046 289.659607,94.403122 291.195343,94.515198 
	C293.010101,94.647652 295.081635,95.208221 296.613220,94.564041 
	C302.126709,92.245102 309.532440,92.131462 315.147858,94.950584 
	C319.454895,92.004234 320.598236,84.390785 327.591766,85.067604 
	C332.210754,85.514610 336.747162,86.814262 341.593506,88.318230 
	C339.634674,89.684029 337.402863,90.463760 335.674408,91.067642 
	C335.817719,93.199829 335.947845,95.135262 336.077942,97.070686 
	C336.018341,97.564919 336.148956,98.287834 335.870697,98.519295 
	C331.197235,102.407043 326.597107,106.401466 321.716309,110.015045 
	C318.412201,112.461250 314.737915,114.424950 311.138702,116.443054 
	C310.203064,116.967690 308.919464,117.093857 307.810638,117.047333 
	C303.984985,116.886803 301.841339,118.235161 300.850586,122.306473 
	C299.654449,127.221657 296.723907,128.006546 292.260956,124.706161 
	C288.230560,122.554886 284.759583,124.890038 283.057251,130.081589 
	C283.057251,130.081589 283.012939,130.010101 282.740601,129.819122 
	C281.664398,131.032349 280.860565,132.436523 280.056702,133.840698 
	C275.853271,140.137512 273.421539,146.735092 272.139191,154.502609 
	C271.078217,160.929382 270.415649,166.564850 272.659271,172.579391 
	C277.325897,185.089325 285.590546,193.998581 298.525055,197.964233 
	C299.851074,198.370773 301.803802,196.732971 304.125122,195.812225 
	C305.445923,193.987183 306.600739,192.416718 306.676239,190.795959 
	C306.903015,185.929367 306.708679,181.043121 306.678589,176.164551 
	C307.102783,174.731705 307.527008,173.298874 308.468567,171.516098 
	C309.942963,171.209518 310.900055,171.252884 311.849060,171.295898 
	C311.981689,173.439011 312.101746,175.378647 312.221802,177.318283 
	C312.684845,177.444763 313.147919,177.571243 313.610962,177.697739 
	C314.722412,175.853104 315.833862,174.008469 316.945343,172.163849 
	C317.843445,171.809006 318.741516,171.454147 320.071228,171.522278 
	C319.812408,173.699448 319.121948,175.453644 317.942047,178.451324 
	C320.976715,178.222672 323.400452,178.182709 325.776642,177.825897 
	C328.940460,177.350769 332.067261,176.629044 335.209961,176.013275 
	C335.774658,177.065857 336.339325,178.118454 336.903992,179.171051 
	C335.638519,179.645767 334.378845,180.508987 333.106598,180.527863 
	C327.638275,180.608932 319.956207,184.749725 319.041138,189.333389 
	C318.670441,191.190323 321.170349,193.620331 322.790894,196.320862 
	C325.688263,197.695145 328.158844,198.538147 330.629395,199.381134 
	C330.517242,199.839096 330.405090,200.297058 330.292938,200.755020 
	C328.652588,201.439423 327.012238,202.123825 325.371918,202.808228 
	C320.869446,203.779144 320.869446,203.779144 314.266479,199.292877 
	C307.205566,206.982132 305.772980,216.630371 304.738403,226.740082 
	C300.004578,228.296265 299.730347,223.379379 297.918121,221.433502 
	C292.130035,215.218414 285.246613,211.960297 276.883514,212.280594 
	C272.561218,212.446121 269.905792,215.611725 268.121490,219.310211 
	C266.936188,221.767151 266.034790,224.361053 264.583740,227.353867 
	C260.673126,232.473114 261.135590,236.190643 265.749664,240.582947 
	C269.058777,245.499298 274.077148,247.176895 279.428284,249.255096 
	C285.592560,251.649078 291.599579,251.815338 297.826416,251.876129 
	C301.478302,251.911819 303.423889,250.169037 304.303101,246.340790 
	C305.342438,241.815430 307.947388,238.026962 313.002258,236.991852 
	C314.117371,236.763504 315.371429,237.213333 316.561523,237.350876 
	C316.285370,238.518616 316.173706,239.759338 315.695435,240.837372 
	C314.932770,242.556305 313.926147,244.166977 312.645813,246.290070 
	C311.995972,246.923859 311.471313,247.150803 311.494293,247.247665 
	C311.586914,247.637741 311.837769,248.299545 312.049713,248.307037 
	C318.361389,248.529724 324.675415,248.686081 330.989044,248.852936 
	C332.534912,250.417679 334.080780,251.982422 336.533936,254.465515 
	C330.314606,255.112152 325.778381,255.583786 322.409851,255.934006 
	C322.215424,260.229858 322.233795,263.736206 321.709076,267.159363 
	C321.631226,267.667389 318.203186,268.517731 317.675659,267.951477 
	C315.492645,265.608154 312.902649,262.999664 312.213226,260.075684 
	C311.388458,256.577789 309.566620,254.602783 306.744690,255.384048 
	C304.323700,256.054321 299.058746,254.907303 300.741821,261.174744 
	C301.840759,265.266998 301.306793,269.797729 301.504272,274.132050 
	C302.070282,274.467957 302.636292,274.803833 303.202301,275.139709 
	C301.623047,275.469208 300.043762,275.798676 297.841858,276.278717 
	C297.130157,276.258362 297.041107,276.087463 296.952057,275.916595 
	C296.952057,275.916595 297.052216,275.972931 297.052368,275.672791 
	C294.602966,271.957123 292.153412,268.541595 289.703857,265.126068 
	C290.588806,261.599152 287.960571,261.048065 285.721344,261.151581 
	C279.337769,261.446625 272.973969,262.556000 266.600342,262.572479 
	C259.907135,262.589813 252.771378,265.504669 246.620239,260.374359 
	C246.042435,259.892456 245.262421,259.404785 245.055191,258.764771 
	C242.727936,251.577133 239.860901,250.345581 232.604584,249.540649 
	C227.964981,249.025970 221.673035,251.120880 218.710159,244.765060 
	C218.493759,244.300812 217.289062,244.282593 216.536377,244.085556 
	C212.936172,243.143066 209.333405,242.210449 205.340164,240.722412 
	C203.557968,239.374985 202.176224,238.563065 200.774765,237.786728 
	C194.601822,234.367249 188.728928,229.893555 180.942062,232.086624 
	C179.889450,232.400513 178.836838,232.714386 177.154282,232.946625 
	C175.380981,235.099869 173.993225,237.257339 173.245712,239.617599 
	C173.026169,240.310822 174.622498,241.579132 175.386581,242.583878 
	C175.386581,242.583878 175.560242,242.408890 175.524185,242.596313 
	C175.669220,242.811676 175.850311,242.839645 176.031403,242.867615 
	C176.031403,242.867615 176.498917,243.003357 176.801025,243.406006 
	C180.088333,245.177551 183.073532,246.546448 186.058731,247.915344 
	C186.058731,247.915344 186.055847,247.985321 186.249054,248.231064 
	C189.159760,250.300369 191.573318,250.858231 192.908234,246.924133 
	C192.908234,246.924133 192.914047,246.716110 193.431458,246.729034 
	C199.403580,246.852264 204.858322,246.962570 210.313049,247.072891 
	C210.842270,247.495789 211.371475,247.918671 212.024490,248.910172 
	C213.192810,250.610535 214.237320,251.742310 215.281845,252.874069 
	C215.227524,253.418228 215.173218,253.962387 215.118912,254.506546 
	C212.958633,254.528595 210.798355,254.550659 208.638077,254.572723 
	C208.638077,254.572708 208.560944,254.263596 208.510132,253.901306 
	C206.168930,253.000519 203.878540,252.462021 201.588165,251.923538 
	C201.193726,252.643799 200.799301,253.364059 200.404861,254.084320 
	C203.274170,257.048920 206.143494,260.013519 209.012802,262.978119 
	C209.012802,262.978119 209.004303,262.998169 209.014786,263.331146 
	C209.640137,264.450012 210.255005,265.235901 210.869873,266.021790 
	C210.869873,266.021790 210.996872,266.476105 210.776306,266.856384 
	C210.013977,267.865082 209.472198,268.493530 208.930420,269.121979 
	C208.930420,269.121979 208.471039,268.997467 208.182907,268.667694 
	C207.259811,268.510254 206.624847,268.682617 205.989883,268.854980 
	C205.989883,268.854980 205.550705,268.991272 205.170746,268.776978 
	C203.898926,268.030334 203.007050,267.497986 202.115189,266.965607 
	C202.115189,266.965607 201.984955,266.593140 202.033783,266.023254 
	C200.521683,262.905792 198.960785,260.358215 197.399872,257.810638 
	C196.927597,257.973114 196.455322,258.135590 195.983047,258.298065 
	C195.674591,260.875000 195.366135,263.451935 194.870453,266.276672 
	C193.706985,267.481598 192.730743,268.438660 191.367401,269.275330 
	C190.715317,269.101898 190.450302,269.048920 190.041473,268.677368 
	C189.568848,267.742279 189.240067,267.125763 189.311737,266.334229 
	C190.775040,263.972565 193.289001,260.613068 192.639969,259.810028 
	C190.302826,256.918457 187.133255,254.394745 183.771378,252.801163 
	C182.589981,252.241119 179.948486,254.761337 177.973679,255.875061 
	C177.973679,255.875061 177.579651,256.006470 177.008911,256.022186 
	C175.280212,256.987000 174.122223,257.936127 172.964233,258.885223 
	C170.272415,258.908966 167.580582,258.932709 164.400818,258.658173 
	C163.243958,258.255951 162.575058,258.151978 161.906143,258.048035 
	C161.480331,258.018005 161.054535,257.988007 160.212677,257.572601 
	C158.795410,256.818573 157.794189,256.449951 156.490677,256.058136 
	C155.457901,255.702744 154.727432,255.370514 154.042786,254.705338 
	C154.044037,253.360123 153.999481,252.347885 153.954926,251.335632 
	C152.965942,252.103561 151.976959,252.871506 150.708344,253.861725 
	C147.921219,255.660477 145.444077,257.288025 142.898773,258.800903 
	C139.489288,260.827393 138.009506,264.880493 139.825729,267.462646 
	C142.695999,273.055756 146.725861,274.867188 152.516251,272.943146 
	C156.050095,271.768890 159.399414,269.893311 163.000641,269.102814 
	C168.142044,267.974213 172.949936,269.617554 177.274460,272.717285 
	C177.082779,274.150696 176.968567,275.263855 176.852234,276.397614 
	C174.983124,276.771606 173.116440,277.145111 171.249771,277.518616 
	C165.966782,273.220184 163.630753,273.002380 160.337097,276.847107 
	C160.547287,277.212738 160.735382,277.593170 160.735382,277.593170 
	C160.826965,277.807465 160.918533,278.021759 161.091888,278.936035 
	C164.982544,286.273743 164.746826,288.457092 159.871429,290.684631 
	C158.992905,289.614624 158.094147,288.519958 157.195404,287.425323 
	C156.278473,286.311066 155.361557,285.196777 154.099716,283.663361 
	C152.860657,284.842468 151.923523,286.216034 150.623810,286.882660 
	C146.374924,289.061829 142.152664,291.601471 137.603577,292.769714 
	C134.927704,293.456940 134.203186,290.822357 136.344269,287.996338 
	C138.769211,284.949585 140.737930,282.317535 142.706665,279.685455 
	C140.096878,278.989227 137.488205,278.288757 134.873749,277.610474 
	C134.754105,277.579407 134.582611,277.748230 134.435257,277.823944 
	C130.224655,277.228485 126.014053,276.633026 121.399529,275.586121 
	C114.839119,269.403564 114.863785,269.189178 121.494614,263.387360 
	C122.476059,262.528625 123.245132,261.427246 124.112457,260.438110 
	C123.462921,259.991913 122.813400,259.545715 122.163879,259.099518 
	C122.027565,257.630493 121.891251,256.161499 121.682587,253.912888 
	C109.760971,255.873825 97.172478,254.234070 86.588287,261.097870 
	C76.571777,267.593536 68.792679,276.388123 64.617691,288.616394 
	C63.623631,290.759827 63.197235,292.484009 62.476784,294.074982 
	C59.557407,300.521912 60.923130,307.033997 62.094460,313.539276 
	C62.138824,313.785675 62.967060,313.890930 63.430016,314.061920 
	C63.010311,320.298584 69.269333,321.755890 71.986603,325.681244 
	C70.593452,326.928619 68.132507,328.733582 68.307182,329.040955 
	C69.361198,330.895905 70.767601,332.774536 72.516922,333.972168 
	C80.641243,339.534393 89.979317,339.290833 99.195839,338.732605 
	C101.957649,338.565338 104.558304,336.526093 107.355507,335.859100 
	C109.035866,335.458374 110.953384,336.052216 112.764328,336.199097 
	C112.802460,336.670074 112.840591,337.141052 112.878731,337.612030 
	C111.333122,338.672058 109.787521,339.732056 107.549484,341.266937 
	C108.961678,341.927032 110.137848,343.006897 111.006416,342.799347 
	C118.317459,341.052612 126.240883,341.242706 132.489624,335.998840 
	C134.351379,334.436493 136.599960,333.322296 138.716339,332.079437 
	C141.251877,330.590393 143.501999,330.103638 145.134613,333.509827 
	C145.410080,334.084595 147.340546,333.866089 148.973724,333.875549 
	C149.701721,333.765472 149.908890,333.864502 150.062622,334.034119 
	C150.062622,334.034119 150.003143,334.098785 150.137146,333.757507 
	C157.576508,329.613312 164.881851,325.810425 172.187195,322.007507 
	C183.901138,320.700378 193.878571,314.720428 204.523071,310.413086 
	C210.419128,308.027222 217.283325,308.066559 223.692749,306.910828 
	C246.220490,302.848602 265.234619,309.036346 280.028442,326.677002 
	C282.184021,329.247406 282.706451,333.187408 283.734497,337.180298 
	C283.951630,341.297363 284.186279,344.781403 284.961609,348.140717 
	C285.551666,350.697357 286.828369,353.095490 287.799591,355.564117 
	C290.393860,364.501099 294.499756,372.420563 304.959259,373.133759 
	C309.542877,373.446259 314.772156,372.311279 318.828125,370.168030 
	C323.207367,367.853943 327.581635,364.720764 329.070160,358.969147 
	C329.856964,355.928802 328.950134,354.001190 326.896149,352.824371 
	C325.903992,352.255920 323.836151,353.564911 321.464325,354.253448 
	C315.731323,351.152802 318.367432,345.405884 321.979248,334.959534 
	C328.072784,338.625031 334.213013,342.318573 340.353210,346.012146 
	C340.166260,346.650909 339.979279,347.289673 339.792328,347.928436 
	C338.115387,347.733124 336.438446,347.537811 334.033966,347.257782 
	C334.392151,348.524780 334.460083,349.782715 335.053497,350.701080 
	C339.304443,357.279419 336.657379,363.644623 332.788574,368.457520 
	C322.660248,381.057526 309.151306,386.180359 293.049957,378.885437 
	C287.119812,376.198700 283.424713,370.771637 280.940643,364.733765 
	C279.176849,360.446716 276.989136,356.241425 277.785950,350.795135 
	C276.616699,345.270660 275.602997,340.250854 274.187256,335.347168 
	C273.808411,334.034973 272.201843,333.077179 271.158936,331.956696 
M160.397018,233.782501 
	C155.598175,234.788696 154.730865,237.222580 157.024811,243.050140 
	C158.332642,240.072006 159.666016,237.035690 161.551468,234.051437 
	C162.174866,234.030441 162.798264,234.009445 163.421661,233.988464 
	C163.264511,233.573990 163.107361,233.159515 162.950211,232.745026 
	C162.300339,233.163559 161.650467,233.582077 160.397018,233.782501 
M219.088562,321.988617 
	C216.489685,321.993896 213.866089,321.786285 211.301208,322.084290 
	C209.758560,322.263519 208.307419,323.230530 206.251007,324.285797 
	C201.933350,327.463531 201.795944,338.787231 204.445160,343.071228 
	C206.263275,346.011292 209.855499,348.306702 213.154572,349.738129 
	C215.890289,350.925110 219.358902,350.400848 222.498108,350.686676 
	C225.225739,350.935028 228.023483,351.800171 230.654282,351.429016 
	C235.731430,350.712708 242.549896,341.125732 241.762527,336.105499 
	C241.574005,334.903564 240.150146,333.895416 239.218201,332.210480 
	C236.919037,329.658997 234.619888,327.107544 233.216492,325.550140 
	C230.932648,324.736481 229.318741,324.635834 228.489182,323.777313 
	C225.969635,321.169800 223.273636,320.509308 219.088562,321.988617 
M151.554459,210.917725 
	C154.139755,210.278961 156.725052,209.640198 159.310349,209.001419 
	C159.131363,208.564331 158.952377,208.127243 158.773392,207.690140 
	C154.432663,207.977127 150.091949,208.264130 145.751221,208.551117 
	C145.732437,208.955978 145.713638,209.360855 145.694855,209.765717 
	C147.374832,210.150162 149.054810,210.534622 151.554459,210.917725 
M165.475647,231.940231 
	C167.539520,234.603012 167.847748,234.642929 171.653717,232.341064 
	C169.457886,231.991562 167.709991,231.713364 165.475647,231.940231 
M157.025879,248.429535 
	C157.584518,247.618210 158.143173,246.806885 158.701813,245.995560 
	C158.340698,245.829987 157.979599,245.664413 157.618484,245.498840 
	C157.320084,246.337662 157.021667,247.176498 157.025879,248.429535 
z"/>
<path fill="#F6DCE0" opacity="1.000000" stroke="none" 
	d="
M99.053818,159.170929 
	C107.895645,162.233978 116.636711,165.652588 125.377777,169.071213 
	C125.170471,169.676254 124.963165,170.281311 124.755859,170.886353 
	C122.071907,170.134369 119.307663,169.588806 116.722382,168.583130 
	C112.607643,166.982513 108.641769,165.002625 104.550636,163.336090 
	C103.066841,162.731659 101.404251,162.566177 99.447067,162.243011 
	C99.031616,161.365921 98.992340,160.446198 99.053818,159.170929 
z"/>
<path fill="#E28B9A" opacity="1.000000" stroke="none" 
	d="
M60.649090,52.037643 
	C61.353569,52.500683 61.945206,53.164604 62.021851,53.883434 
	C62.818176,61.351898 63.541142,68.828308 64.240791,76.306602 
	C64.276840,76.691963 63.916332,77.114426 63.471485,77.575104 
	C61.828243,71.693588 60.189358,65.799759 59.210388,59.798271 
	C58.820724,57.409508 59.891350,54.782539 60.649090,52.037643 
z"/>
<path fill="#F4D4DA" opacity="1.000000" stroke="none" 
	d="
M263.054840,125.257721 
	C261.374054,126.565414 259.600708,127.771866 258.033813,129.204117 
	C255.577591,131.449280 254.031540,133.877716 259.455048,137.107376 
	C254.848114,139.590546 251.280945,141.513275 247.484680,143.496323 
	C249.772934,141.312057 252.290298,139.067474 254.771973,136.854691 
	C251.504181,131.889618 253.908890,127.900314 262.605347,124.240051 
	C263.022339,124.772163 263.038574,125.014946 263.054840,125.257721 
z"/>
<path fill="#E08292" opacity="1.000000" stroke="none" 
	d="
M63.215111,313.628906 
	C62.967060,313.890930 62.138824,313.785675 62.094460,313.539276 
	C60.923130,307.033997 59.557407,300.521912 62.476784,294.074982 
	C63.197235,292.484009 63.623631,290.759827 64.518234,288.974884 
	C65.538475,291.804382 68.110161,294.955994 63.659325,297.317169 
	C63.053139,297.638702 63.020622,299.350006 63.004906,300.421967 
	C62.942478,304.679047 62.992100,308.937805 63.215111,313.628906 
z"/>
<path fill="#F2CDD3" opacity="1.000000" stroke="none" 
	d="
M246.086639,321.630524 
	C242.001251,319.851776 237.840927,317.713745 232.877167,315.162811 
	C238.642181,313.878113 243.516525,312.952209 248.564453,316.069397 
	C246.181656,316.231750 243.537933,316.109772 241.072525,315.996033 
	C242.719955,317.755524 244.365845,319.513367 246.086639,321.630524 
z"/>
<path fill="#F2CCD3" opacity="1.000000" stroke="none" 
	d="
M122.009811,259.413269 
	C122.813400,259.545715 123.462921,259.991913 124.112457,260.438110 
	C123.245132,261.427246 122.476059,262.528625 121.494614,263.387360 
	C114.863785,269.189178 114.839119,269.403564 121.018517,275.489441 
	C117.081512,275.983917 114.927696,273.008575 114.333244,270.144440 
	C113.979965,268.442322 113.262871,264.424133 117.611549,263.608429 
	C119.212639,263.308075 120.451607,261.077301 122.009811,259.413269 
z"/>
<path fill="#F3D0D6" opacity="1.000000" stroke="none" 
	d="
M153.996964,255.038300 
	C154.727432,255.370514 155.457901,255.702744 156.545700,256.347565 
	C156.911163,257.052673 156.919312,257.445221 156.927444,257.837738 
	C149.824936,255.618103 143.064697,259.383820 140.096252,267.262665 
	C138.009506,264.880493 139.489288,260.827393 142.898773,258.800903 
	C145.444077,257.288025 147.921219,255.660477 151.027115,253.998047 
	C152.416000,254.287491 153.206482,254.662903 153.996964,255.038300 
z"/>
<path fill="#EFBEC6" opacity="1.000000" stroke="none" 
	d="
M65.337204,82.527313 
	C68.586609,86.802879 71.576881,91.588715 73.335716,98.481926 
	C69.994057,95.943008 67.819077,94.290504 64.949509,92.820648 
	C63.556816,92.994003 62.858704,92.984711 62.160591,92.975418 
	C63.775108,92.031921 65.389626,91.088425 67.458252,89.879555 
	C66.964088,88.050430 66.256996,85.433197 65.337204,82.527313 
z"/>
<path fill="#F2CCD3" opacity="1.000000" stroke="none" 
	d="
M181.081238,232.425613 
	C188.728928,229.893555 194.601822,234.367249 200.774765,237.786728 
	C202.176224,238.563065 203.557968,239.374985 205.061157,240.507660 
	C201.818665,239.588165 198.264557,238.693466 195.159027,236.983902 
	C191.218262,234.814545 187.606461,232.193741 182.740738,233.860275 
	C182.399139,233.977264 181.734726,233.151810 181.081238,232.425613 
z"/>
<path fill="#EAADB7" opacity="1.000000" stroke="none" 
	d="
M306.468079,176.442795 
	C306.708679,181.043121 306.903015,185.929367 306.676239,190.795959 
	C306.600739,192.416718 305.445923,193.987183 304.443787,195.666718 
	C304.059204,193.262512 303.719574,190.733536 304.039124,188.290771 
	C304.547546,184.403992 305.495483,180.574661 306.468079,176.442795 
z"/>
<path fill="#F4D4DA" opacity="1.000000" stroke="none" 
	d="
M172.006104,321.665649 
	C164.881851,325.810425 157.576508,329.613312 150.101074,333.732422 
	C151.021759,332.665558 151.843124,330.841217 153.252838,329.980408 
	C157.833557,327.183319 162.584869,324.650909 167.372299,322.216797 
	C168.671936,321.556030 170.330948,321.602112 172.006104,321.665649 
z"/>
<path fill="#EDB8C1" opacity="1.000000" stroke="none" 
	d="
M271.057190,332.279785 
	C272.201843,333.077179 273.808411,334.034973 274.187256,335.347168 
	C275.602997,340.250854 276.616699,345.270660 277.620026,350.484497 
	C275.291046,344.682373 273.123260,338.642609 271.057190,332.279785 
z"/>
<path fill="#EBB1BB" opacity="1.000000" stroke="none" 
	d="
M287.835388,355.148621 
	C286.828369,353.095490 285.551666,350.697357 284.961609,348.140717 
	C284.186279,344.781403 283.951630,341.297363 283.654480,337.579315 
	C287.505402,342.564423 288.303101,348.506134 287.835388,355.148621 
z"/>
<path fill="#ECB3BD" opacity="1.000000" stroke="none" 
	d="
M335.012939,175.635834 
	C332.067261,176.629044 328.940460,177.350769 325.776642,177.825897 
	C323.400452,178.182709 320.976715,178.222672 317.942047,178.451324 
	C319.121948,175.453644 319.812408,173.699448 320.434814,171.568329 
	C321.343414,171.191376 322.320099,171.191376 323.428864,171.191376 
	C322.582733,173.060425 321.805634,174.776917 321.207428,176.098267 
	C325.741669,175.818436 330.278809,175.538437 335.012939,175.635834 
z"/>
<path fill="#F2CAD0" opacity="1.000000" stroke="none" 
	d="
M129.884216,72.622635 
	C123.983826,68.368576 121.577461,61.940941 120.576958,54.801918 
	C123.763351,60.259197 126.769760,65.788742 129.757690,71.328255 
	C129.898544,71.589386 129.875168,71.939087 129.884216,72.622635 
z"/>
<path fill="#E8A3AF" opacity="1.000000" stroke="none" 
	d="
M90.186417,20.184961 
	C87.547264,22.726421 88.111679,25.205908 90.352188,27.906315 
	C92.026566,29.924391 93.396210,32.195309 94.091965,34.876740 
	C89.922501,31.268604 86.401382,27.248083 85.126129,21.304607 
	C86.700668,20.677011 88.293892,20.419859 90.186417,20.184961 
z"/>
<path fill="#C7203C" opacity="1.000000" stroke="none" 
	d="
M178.333282,255.823944 
	C179.948486,254.761337 182.589981,252.241119 183.771378,252.801163 
	C187.133255,254.394745 190.302826,256.918457 192.639969,259.810028 
	C193.289001,260.613068 190.775040,263.972565 189.186554,266.306702 
	C188.660919,266.454193 188.511963,266.242920 188.511963,266.242920 
	C189.124771,263.537659 193.095428,261.279419 189.429382,258.002350 
	C186.228317,255.140930 182.978683,253.127167 178.333282,255.823944 
z"/>
<path fill="#F2CDD3" opacity="1.000000" stroke="none" 
	d="
M157.226013,287.748688 
	C158.094147,288.519958 158.992905,289.614624 159.871429,290.684631 
	C164.746826,288.457092 164.982544,286.273743 161.122299,279.284241 
	C166.118454,281.400146 167.806976,286.634064 164.581512,290.716553 
	C163.789185,291.719391 161.444763,292.614288 160.536209,292.148865 
	C159.118820,291.422729 158.318451,289.492218 157.226013,287.748688 
z"/>
<path fill="#EBB1BB" opacity="1.000000" stroke="none" 
	d="
M270.708099,97.989044 
	C272.716797,100.829544 274.408813,103.882751 276.100830,106.935959 
	C275.838562,107.396622 275.576324,107.857292 275.314056,108.317955 
	C272.177582,106.834885 269.041138,105.351807 265.881042,103.508148 
	C267.591980,103.822456 269.326569,104.497360 271.332123,105.277687 
	C270.976196,102.600296 270.683838,100.401024 270.708099,97.989044 
z"/>
<path fill="#ECB3BD" opacity="1.000000" stroke="none" 
	d="
M198.878403,171.294113 
	C194.719421,168.312729 193.992935,161.354538 197.468491,155.632721 
	C198.173462,160.667542 198.555374,165.763809 198.878403,171.294113 
z"/>
<path fill="#EFBEC6" opacity="1.000000" stroke="none" 
	d="
M134.684174,278.052948 
	C134.582611,277.748230 134.754105,277.579407 134.873749,277.610474 
	C137.488205,278.288757 140.096878,278.989227 142.706665,279.685455 
	C140.737930,282.317535 138.769211,284.949585 136.490997,287.625244 
	C137.181686,285.200256 138.181854,282.731750 139.214127,280.183960 
	C138.002853,279.645782 136.467987,278.963867 134.684174,278.052948 
z"/>
<path fill="#F7DFE4" opacity="1.000000" stroke="none" 
	d="
M325.716248,202.784698 
	C327.012238,202.123825 328.652588,201.439423 330.292938,200.755020 
	C330.405090,200.297058 330.517242,199.839096 330.629395,199.381134 
	C328.158844,198.538147 325.688263,197.695145 323.077576,196.505829 
	C326.123016,196.697800 330.174957,193.774170 332.315735,198.557114 
	C332.708099,199.433701 333.441833,200.157501 334.017975,200.951813 
	C332.973694,201.460358 331.975922,202.200882 330.873993,202.421814 
	C329.309723,202.735428 327.668762,202.666580 325.716248,202.784698 
z"/>
<path fill="#F0C3CB" opacity="1.000000" stroke="none" 
	d="
M138.319427,349.893982 
	C142.033310,347.869293 146.153976,345.890137 150.676834,343.988708 
	C149.719879,345.633057 148.360733,347.199677 147.001587,348.766296 
	C147.280807,349.157379 147.560043,349.548462 147.839264,349.939545 
	C144.801575,349.939545 141.763885,349.939545 138.319427,349.893982 
z"/>
<path fill="#F6DADE" opacity="1.000000" stroke="none" 
	d="
M69.683563,33.033947 
	C70.794220,38.433735 71.904877,43.833523 72.761963,49.607952 
	C71.607918,50.017006 70.707458,50.051414 69.806992,50.085823 
	C69.551529,49.892422 69.296074,49.699013 69.142288,49.137653 
	C69.357430,48.419155 69.238083,48.163834 68.885933,48.003735 
	C68.297180,47.240879 67.708420,46.478020 67.031807,45.437950 
	C67.645683,44.010220 68.914314,42.870361 68.936180,41.707069 
	C68.988594,38.918919 68.454979,36.119755 68.732010,33.189407 
	C69.306129,33.053783 69.683563,33.033947 69.683563,33.033947 
z"/>
<path fill="#C7203C" opacity="1.000000" stroke="none" 
	d="
M208.614197,254.854065 
	C210.798355,254.550659 212.958633,254.528595 215.118912,254.506546 
	C215.173218,253.962387 215.227524,253.418228 215.281845,252.874069 
	C214.237320,251.742310 213.192810,250.610535 212.122650,249.151871 
	C214.791061,250.136108 217.485077,251.447250 220.699799,253.011810 
	C217.585175,254.857361 215.431168,256.275269 213.150482,257.446533 
	C210.723465,258.692932 208.991837,258.112000 208.614197,254.854065 
z"/>
<path fill="#F1C8CF" opacity="1.000000" stroke="none" 
	d="
M330.798035,248.500275 
	C324.675415,248.686081 318.361389,248.529724 312.049713,248.307037 
	C311.837769,248.299545 311.586914,247.637741 311.494293,247.247665 
	C311.471313,247.150803 311.995972,246.923859 312.562378,246.694061 
	C317.288757,246.736572 321.726715,246.751297 326.151855,246.997147 
	C327.653564,247.080582 329.122894,247.747391 330.798035,248.500275 
z"/>
<path fill="#EBB0BA" opacity="1.000000" stroke="none" 
	d="
M316.562225,172.104370 
	C315.833862,174.008469 314.722412,175.853104 313.610962,177.697739 
	C313.147919,177.571243 312.684845,177.444763 312.221802,177.318283 
	C312.101746,175.378647 311.981689,173.439011 311.849060,171.295898 
	C310.900055,171.252884 309.942963,171.209518 308.567200,171.148758 
	C311.160645,168.488647 313.907959,168.173813 316.562225,172.104370 
z"/>
<path fill="#F0C3CB" opacity="1.000000" stroke="none" 
	d="
M216.863892,122.518188 
	C211.599182,120.185204 206.365158,117.500427 201.011353,114.486610 
	C207.613525,114.054489 212.832993,116.953651 216.863892,122.518188 
z"/>
<path fill="#F6DCE0" opacity="1.000000" stroke="none" 
	d="
M336.407410,96.948257 
	C335.947845,95.135262 335.817719,93.199829 335.674408,91.067642 
	C337.402863,90.463760 339.634674,89.684029 341.917145,88.530136 
	C343.967957,89.343147 345.575470,90.298897 342.215851,92.107422 
	C340.143402,93.223053 338.546997,95.222931 336.407410,96.948257 
z"/>
<path fill="#EAADB7" opacity="1.000000" stroke="none" 
	d="
M195.057678,266.028870 
	C195.366135,263.451935 195.674591,260.875000 195.983047,258.298065 
	C196.455322,258.135590 196.927597,257.973114 197.399872,257.810638 
	C198.960785,260.358215 200.521683,262.905792 202.049866,265.826599 
	C200.280090,266.420349 199.200577,262.272064 196.612030,265.795380 
	C195.822739,266.105072 195.440201,266.066956 195.057678,266.028870 
z"/>
<path fill="#C7203C" opacity="1.000000" stroke="none" 
	d="
M208.904877,262.642487 
	C206.143494,260.013519 203.274170,257.048920 200.404861,254.084320 
	C200.799301,253.364059 201.193726,252.643799 201.588165,251.923538 
	C203.878540,252.462021 206.168930,253.000519 208.660019,253.847412 
	C207.642426,254.227539 206.424133,254.299240 204.177734,254.431458 
	C205.962585,257.474487 207.379761,259.890686 208.904877,262.642487 
z"/>
<path fill="#F3CFD5" opacity="1.000000" stroke="none" 
	d="
M210.173355,246.659653 
	C204.858322,246.962570 199.403580,246.852264 193.534729,246.716446 
	C198.640610,242.065033 204.322113,243.584305 210.173355,246.659653 
z"/>
<path fill="#F1C8CF" opacity="1.000000" stroke="none" 
	d="
M265.459351,240.314301 
	C261.135590,236.190643 260.673126,232.473114 264.477356,227.757172 
	C264.918732,231.815384 265.043884,235.930511 265.459351,240.314301 
z"/>
<path fill="#D86175" opacity="1.000000" stroke="none" 
	d="
M62.090736,93.431488 
	C62.858704,92.984711 63.556816,92.994003 64.603325,92.974915 
	C64.921257,96.158371 64.982262,99.374847 64.819870,102.580002 
	C64.744125,104.075188 64.235725,105.548447 63.529606,107.120422 
	C62.764149,102.768654 62.392517,98.328102 62.090736,93.431488 
z"/>
<path fill="#F8E2E6" opacity="1.000000" stroke="none" 
	d="
M194.870453,266.276672 
	C195.440201,266.066956 195.822739,266.105072 196.494019,266.139160 
	C196.474518,271.825409 192.324951,271.667358 187.953476,272.055542 
	C188.047775,270.095459 188.124664,268.497314 188.356750,266.571045 
	C188.511963,266.242920 188.660919,266.454193 188.786102,266.481720 
	C189.240067,267.125763 189.568848,267.742279 190.057861,268.985718 
	C190.730240,269.540344 191.242355,269.468048 191.754486,269.395721 
	C192.730743,268.438660 193.706985,267.481598 194.870453,266.276672 
z"/>
<path fill="#F4D4DA" opacity="1.000000" stroke="none" 
	d="
M289.469940,265.401428 
	C292.153412,268.541595 294.602966,271.957123 297.027344,275.724487 
	C292.163483,275.709045 288.096588,272.036163 289.469940,265.401428 
z"/>
<path fill="#F1C8CF" opacity="1.000000" stroke="none" 
	d="
M117.421188,212.372925 
	C116.543968,212.681610 115.395630,213.622696 114.218750,213.659866 
	C110.148354,213.788361 106.068016,213.602127 101.593521,213.566650 
	C103.703781,210.726181 109.909637,209.917984 113.356934,211.799530 
	C114.438667,212.389969 115.867195,212.345016 117.421188,212.372925 
z"/>
<path fill="#F1C8CF" opacity="1.000000" stroke="none" 
	d="
M69.727722,32.640778 
	C69.683563,33.033947 69.306129,33.053783 69.120331,33.018494 
	C69.323372,28.192314 68.381081,23.083149 72.603592,19.006462 
	C71.896492,23.341824 70.834190,27.794714 69.727722,32.640778 
z"/>
<path fill="#F3D0D6" opacity="1.000000" stroke="none" 
	d="
M200.360992,151.168488 
	C202.847092,147.729050 205.676559,144.318619 208.871338,140.932663 
	C207.744797,143.209000 206.307724,145.499908 204.741150,147.698547 
	C203.755356,149.082092 202.578964,150.330338 201.470352,151.624100 
	C201.425934,151.675934 201.181442,151.601349 201.061569,151.531631 
	C200.924194,151.451767 200.821915,151.311539 200.360992,151.168488 
z"/>
<path fill="#F8E5E8" opacity="1.000000" stroke="none" 
	d="
M171.165451,277.896545 
	C173.116440,277.145111 174.983124,276.771606 176.852234,276.397614 
	C176.968567,275.263855 177.082779,274.150696 177.530960,272.947235 
	C178.764420,274.660553 179.663910,276.464142 181.149445,279.442841 
	C176.866989,278.945892 173.974060,278.610168 171.165451,277.896545 
z"/>
<path fill="#F4D3D8" opacity="1.000000" stroke="none" 
	d="
M283.414246,130.067108 
	C284.759583,124.890038 288.230560,122.554886 291.950684,124.513725 
	C289.311615,126.578117 286.541443,128.315369 283.414246,130.067108 
z"/>
<path fill="#C7203C" opacity="1.000000" stroke="none" 
	d="
M175.320679,242.214142 
	C174.622498,241.579132 173.026169,240.310822 173.245712,239.617599 
	C173.993225,237.257339 175.380981,235.099869 176.811462,232.956696 
	C176.483978,235.980423 175.869385,238.912415 175.320679,242.214142 
z"/>
<path fill="#C7203C" opacity="1.000000" stroke="none" 
	d="
M185.913803,247.587341 
	C183.073532,246.546448 180.088333,245.177551 177.036896,243.466156 
	C179.903397,244.502228 182.836136,245.880783 185.913803,247.587341 
z"/>
<path fill="#F1C6CD" opacity="1.000000" stroke="none" 
	d="
M263.399048,125.182312 
	C263.038574,125.014946 263.022339,124.772163 262.974548,124.165649 
	C264.653137,122.903107 266.363342,122.004303 268.411774,121.100212 
	C267.081116,122.432251 265.412170,123.769569 263.399048,125.182312 
z"/>
<path fill="#C7203C" opacity="1.000000" stroke="none" 
	d="
M192.519043,246.947815 
	C191.573318,250.858231 189.159760,250.300369 186.237732,248.198669 
	C188.065430,247.604187 190.097656,247.287842 192.519043,246.947815 
z"/>
<path fill="#E08292" opacity="1.000000" stroke="none" 
	d="
M41.668640,315.832092 
	C42.126987,316.959503 42.208984,318.205261 42.120872,319.757263 
	C41.505760,320.033905 41.060753,320.004303 40.383915,319.656738 
	C39.822876,318.913696 39.493671,318.488617 39.164467,318.063568 
	C39.873741,317.359192 40.583019,316.654816 41.668640,315.832092 
z"/>
<path fill="#C7203C" opacity="1.000000" stroke="none" 
	d="
M209.142426,269.429504 
	C209.472198,268.493530 210.013977,267.865082 210.833221,267.085266 
	C211.703064,267.664215 212.295441,268.394501 212.887817,269.124817 
	C211.710022,269.328888 210.532227,269.532928 209.142426,269.429504 
z"/>
<path fill="#F4D3D8" opacity="1.000000" stroke="none" 
	d="
M280.361511,133.770294 
	C280.860565,132.436523 281.664398,131.032349 282.777039,129.840073 
	C282.279358,131.267960 281.472839,132.483932 280.361511,133.770294 
z"/>
<path fill="#E8A3AF" opacity="1.000000" stroke="none" 
	d="
M84.982742,20.667501 
	C84.511749,19.573004 83.925148,18.161516 83.380814,16.490261 
	C83.904434,17.603834 84.385788,18.977173 84.982742,20.667501 
z"/>
<path fill="#C7203C" opacity="1.000000" stroke="none" 
	d="
M173.303101,258.946564 
	C174.122223,257.936127 175.280212,256.987000 176.804062,256.056335 
	C175.993942,257.052460 174.817947,258.030182 173.303101,258.946564 
z"/>
<path fill="#C7203C" opacity="1.000000" stroke="none" 
	d="
M202.068878,267.314026 
	C203.007050,267.497986 203.898926,268.030334 204.950623,268.843384 
	C204.081161,268.636871 203.051865,268.149658 202.068878,267.314026 
z"/>
<path fill="#F8E5E8" opacity="1.000000" stroke="none" 
	d="
M42.993011,273.427856 
	C43.703632,273.836151 44.242096,274.567596 44.876774,275.568054 
	C44.063423,275.797729 43.153862,275.758392 42.244293,275.719086 
	C42.436481,275.063080 42.628666,274.407043 42.993011,273.427856 
z"/>
<path fill="#C7203C" opacity="1.000000" stroke="none" 
	d="
M157.305145,257.928009 
	C156.919312,257.445221 156.911163,257.052673 156.848007,256.370728 
	C157.794189,256.449951 158.795410,256.818573 159.897919,257.513947 
	C159.227097,257.899902 158.454971,257.959076 157.305145,257.928009 
z"/>
<path fill="#C7203C" opacity="1.000000" stroke="none" 
	d="
M210.935730,265.692139 
	C210.255005,265.235901 209.640137,264.450012 209.024902,263.325836 
	C209.683548,263.779205 210.342560,264.570862 210.935730,265.692139 
z"/>
<path fill="#FDF8F9" opacity="1.000000" stroke="none" 
	d="
M253.705627,346.892090 
	C253.370850,346.245056 253.360474,345.627106 253.645935,344.870361 
	C253.971176,345.461426 254.000595,346.191284 253.705627,346.892090 
z"/>
<path fill="#C7203C" opacity="1.000000" stroke="none" 
	d="
M206.324677,268.925659 
	C206.624847,268.682617 207.259811,268.510254 207.954803,268.599854 
	C207.563019,268.906647 207.111237,268.951477 206.324677,268.925659 
z"/>
<path fill="#C7203C" opacity="1.000000" stroke="none" 
	d="
M162.050720,258.328491 
	C162.575058,258.151978 163.243958,258.255951 163.955429,258.597961 
	C163.397079,258.760345 162.796188,258.684631 162.050720,258.328491 
z"/>
<path fill="#FDF8F9" opacity="1.000000" stroke="none" 
	d="
M39.095688,318.369263 
	C39.493671,318.488617 39.822876,318.913696 40.056168,319.587189 
	C39.649136,319.448730 39.338024,319.061829 39.095688,318.369263 
z"/>
<path fill="#F2CDD3" opacity="1.000000" stroke="none" 
	d="
M160.692810,277.505859 
	C160.735382,277.593170 160.547287,277.212738 160.435974,277.224304 
	C160.324677,277.235840 160.650238,277.418549 160.692810,277.505859 
z"/>
<path fill="#E08292" opacity="1.000000" stroke="none" 
	d="
M41.971603,320.294739 
	C42.121300,320.296967 42.320320,320.580322 42.329758,320.998871 
	C42.100422,320.948029 42.060673,320.761963 41.971603,320.294739 
z"/>
<path fill="#F4D4DA" opacity="1.000000" stroke="none" 
	d="
M149.919983,333.762329 
	C149.908890,333.864502 149.701721,333.765472 149.321045,333.719482 
	C149.393112,333.631439 149.585220,333.561005 149.919983,333.762329 
z"/>
<path fill="#C7203C" opacity="1.000000" stroke="none" 
	d="
M176.005280,242.754318 
	C175.850311,242.839645 175.669220,242.811676 175.630661,242.658401 
	C175.773193,242.533081 175.979156,242.641022 176.005280,242.754318 
z"/>
<path fill="#F4D4DA" opacity="1.000000" stroke="none" 
	d="
M297.022888,276.062561 
	C297.041107,276.087463 297.130157,276.258362 297.505798,276.399445 
	C297.792358,276.369629 297.424194,276.535126 297.424194,276.535126 
	C297.424194,276.535126 297.093719,276.208496 297.022888,276.062561 
z"/>
<path fill="#000000" opacity="1.000000" stroke="none" 
	d="
M239.294449,332.798126 
	C240.150146,333.895416 241.574005,334.903564 241.762527,336.105499 
	C242.549896,341.125732 235.731430,350.712708 230.654282,351.429016 
	C228.023483,351.800171 225.225739,350.935028 222.498108,350.686676 
	C219.358902,350.400848 215.890289,350.925110 213.154572,349.738129 
	C209.855499,348.306702 206.263275,346.011292 204.445160,343.071228 
	C201.795944,338.787231 201.933350,327.463531 207.004852,324.162750 
	C212.216187,323.707825 216.673691,323.375946 221.438461,322.908539 
	C222.849594,322.987335 224.654236,322.862701 224.947479,323.469086 
	C227.504379,328.755981 234.158340,328.432343 237.381836,332.733673 
	C237.621445,333.053375 238.638702,332.790283 239.294449,332.798126 
z"/>
<path fill="#EFBEC6" opacity="1.000000" stroke="none" 
	d="
M76.723373,58.105850 
	C80.990623,62.092545 85.257866,66.079247 89.143082,70.469864 
	C88.016792,70.976448 87.272537,71.079102 86.528275,71.181755 
	C83.241493,67.209946 79.954720,63.238136 76.423302,58.908585 
	C76.307732,58.338261 76.489304,58.189930 76.723373,58.105850 
z"/>
<path fill="#EFBEC6" opacity="1.000000" stroke="none" 
	d="
M239.256317,332.504303 
	C238.638702,332.790283 237.621445,333.053375 237.381836,332.733673 
	C234.158340,328.432343 227.504379,328.755981 224.947479,323.469086 
	C224.654236,322.862701 222.849594,322.987335 221.212585,322.788757 
	C220.457764,322.550232 220.236099,322.296021 220.014435,322.041779 
	C223.273636,320.509308 225.969635,321.169800 228.489182,323.777313 
	C229.318741,324.635834 230.932648,324.736481 233.216492,325.550140 
	C234.619888,327.107544 236.919037,329.658997 239.256317,332.504303 
z"/>
<path fill="#ECB3BD" opacity="1.000000" stroke="none" 
	d="
M86.720924,71.473419 
	C87.272537,71.079102 88.016792,70.976448 89.317566,70.784721 
	C92.903740,73.564972 95.933403,76.434303 98.963058,79.303627 
	C98.515907,79.742882 98.068764,80.182129 97.621613,80.621384 
	C94.052261,77.669289 90.482918,74.717186 86.720924,71.473419 
z"/>
<path fill="#F2CAD0" opacity="1.000000" stroke="none" 
	d="
M76.914070,57.758644 
	C76.489304,58.189930 76.307732,58.338261 76.112473,58.716721 
	C74.065758,56.165894 72.085220,53.449192 69.955833,50.409157 
	C70.707458,50.051414 71.607918,50.017006 72.957016,49.938789 
	C74.638687,52.400467 75.871727,54.905952 76.914070,57.758644 
z"/>
<path fill="#E79DA9" opacity="1.000000" stroke="none" 
	d="
M151.144623,210.918396 
	C149.054810,210.534622 147.374832,210.150162 145.694855,209.765717 
	C145.713638,209.360855 145.732437,208.955978 145.751221,208.551117 
	C150.091949,208.264130 154.432663,207.977127 158.773392,207.690140 
	C158.952377,208.127243 159.131363,208.564331 159.310349,209.001419 
	C156.725052,209.640198 154.139755,210.278961 151.144623,210.918396 
z"/>
<path fill="#C7203C" opacity="1.000000" stroke="none" 
	d="
M160.999390,233.999390 
	C159.666016,237.035690 158.332642,240.072006 157.024811,243.050140 
	C154.730865,237.222580 155.598175,234.788696 160.698517,233.891251 
	C161.000000,234.000000 160.999390,233.999390 160.999390,233.999390 
z"/>
<path fill="#F4D4DA" opacity="1.000000" stroke="none" 
	d="
M219.551498,322.015198 
	C220.236099,322.296021 220.457764,322.550232 220.905304,322.924255 
	C216.673691,323.375946 212.216187,323.707825 207.286926,323.941650 
	C208.307419,323.230530 209.758560,322.263519 211.301208,322.084290 
	C213.866089,321.786285 216.489685,321.993896 219.551498,322.015198 
z"/>
<path fill="#C7203C" opacity="1.000000" stroke="none" 
	d="
M165.718872,231.687683 
	C167.709991,231.713364 169.457886,231.991562 171.653717,232.341064 
	C167.847748,234.642929 167.539520,234.603012 165.718872,231.687683 
z"/>
<path fill="#C7203C" opacity="1.000000" stroke="none" 
	d="
M154.042786,254.705338 
	C153.206482,254.662903 152.416000,254.287491 151.306747,253.775757 
	C151.976959,252.871506 152.965942,252.103561 153.954926,251.335632 
	C153.999481,252.347885 154.044037,253.360123 154.042786,254.705338 
z"/>
<path fill="#C7203C" opacity="1.000000" stroke="none" 
	d="
M156.874573,248.222443 
	C157.021667,247.176498 157.320084,246.337662 157.618484,245.498840 
	C157.979599,245.664413 158.340698,245.829987 158.701813,245.995560 
	C158.143173,246.806885 157.584518,247.618210 156.874573,248.222443 
z"/>
<path fill="#C7203C" opacity="1.000000" stroke="none" 
	d="
M161.000305,234.000305 
	C161.650467,233.582077 162.300339,233.163559 162.950211,232.745026 
	C163.107361,233.159515 163.264511,233.573990 163.421661,233.988464 
	C162.798264,234.009445 162.174866,234.030441 161.275421,234.025421 
	C160.999390,233.999390 161.000000,234.000000 161.000305,234.000305 
z"/>
<path fill="#C7203C" opacity="1.000000" stroke="none" 
	d="
M191.367401,269.275330 
	C191.242355,269.468048 190.730240,269.540344 190.201706,269.304291 
	C190.450302,269.048920 190.715317,269.101898 191.367401,269.275330 
z"/>
<path fill="#F2CAD0" opacity="1.000000" stroke="none" 
	d="
M68.846420,48.262016 
	C69.238083,48.163834 69.357430,48.419155 69.129730,48.884567 
	C68.945961,48.839722 68.876442,48.680008 68.846420,48.262016 
z"/>
</svg>