<svg version="1.1" id="Layer_1" xmlns="http://www.w3.org/2000/svg" xmlns:xlink="http://www.w3.org/1999/xlink" x="0px" y="0px"
	 width="100%" viewBox="0 0 200 200" enable-background="new 0 0 200 200" xml:space="preserve">
<path fill="#FEFEFE" opacity="1.000000" stroke="none" 
	d="
M138.000000,201.000000 
	C92.000000,201.000000 46.500004,201.000000 1.000006,201.000000 
	C1.000004,134.333344 1.000004,67.666679 1.000002,1.000015 
	C67.666656,1.000010 134.333313,1.000010 200.999969,1.000005 
	C200.999985,67.666649 200.999985,134.333298 201.000000,200.999969 
	C180.166672,201.000000 159.333328,201.000000 138.000000,201.000000 
M155.098236,133.059708 
	C155.098236,133.059708 155.150787,133.153809 155.736740,132.817886 
	C156.209030,131.565140 156.681320,130.312393 157.064514,129.032135 
	C157.064514,129.032135 157.098724,129.118866 157.661850,128.670502 
	C158.471222,125.793709 159.280594,122.916916 160.014221,120.001808 
	C160.014221,120.001808 160.061310,120.072449 160.541000,119.460350 
	C161.017471,110.726723 161.514633,101.994156 161.960052,93.258949 
	C162.133438,89.858337 160.467636,88.803711 157.081924,88.836235 
	C140.798843,88.992599 124.513435,88.906898 108.228851,88.907127 
	C105.960144,88.907158 103.691429,88.907135 101.321953,88.907135 
	C101.321953,97.554176 101.321953,105.583153 101.321953,114.086037 
	C112.878754,114.086037 124.089310,114.086037 135.424805,114.086037 
	C135.218567,116.043930 135.063797,117.513184 134.411224,119.439911 
	C130.816116,124.217224 127.221008,128.994537 122.964584,133.993271 
	C116.548424,135.970154 110.240051,139.081665 103.695145,139.703430 
	C86.552589,141.332031 73.393463,132.132034 64.728043,113.159218 
	C61.825401,104.475266 62.645218,95.813972 65.412758,86.689964 
	C74.270668,64.441437 102.763817,52.665802 125.540474,70.966194 
	C131.346146,65.102074 137.139893,59.250011 143.500961,52.824917 
	C143.121567,52.613991 142.317764,52.308720 141.683823,51.794151 
	C121.947289,35.773872 100.054985,32.698936 76.682487,41.906406 
	C61.832020,47.756660 50.409184,57.858856 43.434494,73.342407 
	C41.443233,79.620995 38.580101,85.772804 37.644878,92.204941 
	C35.782394,105.014496 36.997177,117.621590 44.004581,129.782608 
	C55.141506,153.665085 83.414101,168.573639 109.975410,164.568329 
	C122.529427,162.675247 134.112976,158.663757 143.864471,149.049606 
	C146.930710,145.110092 149.996964,141.170593 153.629639,136.833588 
	C154.153870,135.584900 154.678101,134.336227 155.098236,133.059708 
z"/>
<path fill="#E74638" opacity="1.000000" stroke="none" 
	d="
M44.000416,72.922173 
	C50.409184,57.858856 61.832020,47.756660 76.682487,41.906406 
	C100.054985,32.698936 121.947289,35.773872 141.683823,51.794151 
	C142.317764,52.308720 143.121567,52.613991 143.500961,52.824917 
	C137.139893,59.250011 131.346146,65.102074 125.540474,70.966194 
	C102.763817,52.665802 74.270668,64.441437 64.793983,86.893036 
	C63.034744,86.493019 61.802654,86.016136 60.769058,85.265808 
	C55.152485,81.188499 49.584877,77.043724 44.000416,72.922173 
z"/>
<path fill="#39A856" opacity="1.000000" stroke="none" 
	d="
M143.247269,149.311874 
	C134.112976,158.663757 122.529427,162.675247 109.975410,164.568329 
	C83.414101,168.573639 55.141506,153.665085 44.310150,129.291138 
	C51.351986,123.843941 58.088253,118.888222 64.824516,113.932495 
	C73.393463,132.132034 86.552589,141.332031 103.695145,139.703430 
	C110.240051,139.081665 116.548424,135.970154 123.520096,134.170593 
	C130.466156,139.335907 136.856720,144.323898 143.247269,149.311874 
z"/>
<path fill="#4386F3" opacity="1.000000" stroke="none" 
	d="
M143.555878,149.180740 
	C136.856720,144.323898 130.466156,139.335907 123.850754,134.059891 
	C127.221008,128.994537 130.816116,124.217224 134.957916,119.005432 
	C136.020004,117.050323 136.535400,115.529709 137.274261,113.349770 
	C134.532837,113.001610 132.328949,112.471619 130.128906,112.487190 
	C122.173042,112.543510 114.219070,112.845505 106.263115,112.921677 
	C103.263702,112.950394 101.816292,111.400467 101.947723,108.195946 
	C102.131493,103.715233 102.210609,99.207672 101.927544,94.737366 
	C101.692078,91.018929 102.955757,89.863014 106.704865,89.908264 
	C122.328339,90.096878 137.955368,89.989914 153.581085,89.993530 
	C160.409576,89.995110 161.038620,90.445000 160.943634,97.258522 
	C160.837585,104.865784 160.370987,112.468025 160.061310,120.072449 
	C160.061310,120.072449 160.014221,120.001808 159.712097,120.164383 
	C158.639572,123.257591 157.869156,126.188232 157.098724,129.118866 
	C157.098724,129.118866 157.064514,129.032135 156.767731,129.168427 
	C156.030884,130.587738 155.590836,131.870773 155.150787,133.153809 
	C155.150787,133.153809 155.098236,133.059708 154.797241,133.186401 
	C154.018585,134.619095 153.540894,135.925095 153.063202,137.231094 
	C149.996964,141.170593 146.930710,145.110092 143.555878,149.180740 
z"/>
<path fill="#F8BC0E" opacity="1.000000" stroke="none" 
	d="
M64.776276,113.545853 
	C58.088253,118.888222 51.351986,123.843941 44.297997,128.933945 
	C36.997177,117.621590 35.782394,105.014496 37.644878,92.204941 
	C38.580101,85.772804 41.443233,79.620995 43.717453,73.132294 
	C49.584877,77.043724 55.152485,81.188499 60.769058,85.265808 
	C61.802654,86.016136 63.034744,86.493019 64.530762,87.128723 
	C62.645218,95.813972 61.825401,104.475266 64.776276,113.545853 
z"/>
<path fill="#5585D5" opacity="1.000000" stroke="none" 
	d="
M160.301147,119.766403 
	C160.370987,112.468025 160.837585,104.865784 160.943634,97.258522 
	C161.038620,90.445000 160.409576,89.995110 153.581085,89.993530 
	C137.955368,89.989914 122.328339,90.096878 106.704865,89.908264 
	C102.955757,89.863014 101.692078,91.018929 101.927544,94.737366 
	C102.210609,99.207672 102.131493,103.715233 101.947723,108.195946 
	C101.816292,111.400467 103.263702,112.950394 106.263115,112.921677 
	C114.219070,112.845505 122.173042,112.543510 130.128906,112.487190 
	C132.328949,112.471619 134.532837,113.001610 137.274261,113.349770 
	C136.535400,115.529709 136.020004,117.050323 135.206818,118.776688 
	C135.063797,117.513184 135.218567,116.043930 135.424805,114.086037 
	C124.089310,114.086037 112.878754,114.086037 101.321953,114.086037 
	C101.321953,105.583153 101.321953,97.554176 101.321953,88.907135 
	C103.691429,88.907135 105.960144,88.907158 108.228851,88.907127 
	C124.513435,88.906898 140.798843,88.992599 157.081924,88.836235 
	C160.467636,88.803711 162.133438,89.858337 161.960052,93.258949 
	C161.514633,101.994156 161.017471,110.726723 160.301147,119.766403 
z"/>
<path fill="#5585D5" opacity="1.000000" stroke="none" 
	d="
M157.380295,128.894684 
	C157.869156,126.188232 158.639572,123.257591 159.749985,120.183533 
	C159.280594,122.916916 158.471222,125.793709 157.380295,128.894684 
z"/>
<path fill="#5585D5" opacity="1.000000" stroke="none" 
	d="
M155.443756,132.985840 
	C155.590836,131.870773 156.030884,130.587738 156.812271,129.182175 
	C156.681320,130.312393 156.209030,131.565140 155.443756,132.985840 
z"/>
<path fill="#5585D5" opacity="1.000000" stroke="none" 
	d="
M153.346420,137.032349 
	C153.540894,135.925095 154.018585,134.619095 154.849304,133.200317 
	C154.678101,134.336227 154.153870,135.584900 153.346420,137.032349 
z"/>
</svg>