<svg version="1.1" id="Layer_1" xmlns="http://www.w3.org/2000/svg" xmlns:xlink="http://www.w3.org/1999/xlink" x="0px" y="0px"
	 width="100%" viewBox="0 0 640 700" enable-background="new 0 0 640 700" xml:space="preserve">
<path fill="#FEFEFF" opacity="1.000000" stroke="none" 
	d="
M325.000000,701.000000 
	C216.666687,701.000000 108.833374,701.000000 1.000043,701.000000 
	C1.000029,467.666718 1.000029,234.333450 1.000015,1.000137 
	C214.333237,1.000092 427.666473,1.000092 640.999756,1.000046 
	C640.999878,234.333191 640.999878,467.666382 640.999939,700.999756 
	C535.833313,701.000000 430.666656,701.000000 325.000000,701.000000 
M232.458786,63.108353 
	C236.098846,64.630447 239.761505,66.101662 243.366516,67.702682 
	C244.601227,68.251022 246.290359,68.853889 246.758530,69.889793 
	C254.488220,86.993263 262.056030,104.169868 269.770081,121.578186 
	C268.153839,122.139801 266.771027,122.589958 265.409882,123.098160 
	C255.568069,126.772705 246.358078,131.529312 241.201233,141.194824 
	C239.447601,144.481659 237.480530,145.521759 234.093399,146.113846 
	C195.631119,152.837311 156.852386,157.876724 119.215675,168.912308 
	C95.351196,175.909668 72.589417,185.473862 50.270466,196.242966 
	C48.785721,196.959381 46.916965,198.452087 46.660591,199.847198 
	C45.893295,204.022644 45.838398,208.328979 45.497616,212.683517 
	C49.087650,212.371613 52.049110,211.883209 55.008511,211.895370 
	C71.930222,211.964935 84.781715,220.456741 94.317650,233.312393 
	C114.951721,261.129822 118.551704,291.962158 106.410858,324.087067 
	C99.428589,342.562317 86.861305,356.127563 66.022438,359.477112 
	C63.501072,359.882416 60.927696,359.964111 58.251019,360.207336 
	C58.909481,363.078857 59.642014,365.482544 59.986874,367.940674 
	C60.721851,373.179565 63.539303,376.199463 68.401604,378.506866 
	C87.261642,387.456848 106.954323,393.936371 127.121666,399.017487 
	C137.572968,401.650696 148.159317,405.293701 158.752258,405.536987 
	C194.388840,406.355499 230.059616,406.161377 265.709381,405.717590 
	C282.144073,405.513031 298.560425,403.830994 315.142242,402.809174 
	C315.142242,390.018158 315.142242,377.651459 315.142242,365.340302 
	C314.466309,365.223358 314.136322,365.094055 313.820099,365.121765 
	C273.061615,368.689240 232.232651,367.303406 191.419891,366.804993 
	C180.805573,366.675385 172.690765,360.915558 170.205399,351.061707 
	C167.037079,338.500092 164.163727,325.819244 162.064194,313.041748 
	C156.991440,282.169861 156.422577,251.056458 157.962631,219.848648 
	C158.729660,204.305954 163.712631,198.038208 179.100494,195.044098 
	C199.666153,191.042480 220.222672,186.982162 240.847794,183.310410 
	C244.033203,182.743347 248.145172,183.154251 250.826324,184.773010 
	C258.911530,189.654495 266.666138,195.135040 274.249420,200.784927 
	C286.860168,210.180466 300.672302,212.558044 315.799133,209.042801 
	C326.552246,206.543930 334.308136,199.606552 341.714264,192.059906 
	C346.723755,186.955383 351.521332,181.599258 356.912048,176.931168 
	C359.530396,174.663818 363.292023,172.386902 366.535553,172.387634 
	C387.356262,172.392349 408.195526,172.626556 428.990784,173.596985 
	C442.733917,174.238342 447.748016,179.666168 450.976318,193.062653 
	C456.899963,217.644211 458.816742,242.685684 460.006714,267.807159 
	C460.453003,277.228790 460.079010,286.689270 460.079010,296.136292 
	C474.574402,296.136292 487.785889,296.136292 501.254578,296.136292 
	C501.254578,294.434326 501.263794,293.118591 501.253265,291.803009 
	C500.930084,251.504059 495.744141,211.803497 486.485107,172.615540 
	C481.127777,149.941116 465.009247,136.948074 441.789948,136.847839 
	C407.796478,136.701096 373.801819,136.719910 339.808258,136.841995 
	C335.726685,136.856644 332.893219,136.042480 330.081940,132.657791 
	C327.427826,129.462311 323.533325,126.981873 319.727692,125.120857 
	C310.612518,120.663414 300.728943,119.033562 290.642853,119.264137 
	C287.127991,119.344498 285.421051,118.406731 284.005859,115.083916 
	C277.105713,98.882370 269.941772,82.792099 262.744873,66.718994 
	C261.503967,63.947586 261.169067,62.066025 263.421661,59.288002 
	C268.870911,52.567806 268.877258,42.378624 264.199524,34.908634 
	C259.151794,26.847795 251.766922,23.594196 242.498703,24.906693 
	C233.992966,26.111210 228.089783,31.120022 225.383408,39.114651 
	C222.311325,48.189632 224.978058,56.134125 232.458786,63.108353 
M608.914124,594.500000 
	C608.914001,506.176331 608.914429,417.852661 608.913208,329.528992 
	C608.913025,315.987091 602.729126,309.833893 589.087219,309.833191 
	C507.429260,309.828857 425.770630,309.990173 344.113953,309.668823 
	C331.031158,309.617310 324.171051,316.739014 324.317535,329.398621 
	C324.707031,363.057190 324.449707,396.723267 324.449615,430.386353 
	C324.449615,432.150787 324.449615,433.915222 324.449615,434.300568 
	C334.507141,436.224335 343.650299,437.973236 352.896942,439.741943 
	C352.896942,406.408691 352.896942,372.452393 352.896942,338.294464 
	C428.678650,338.294464 504.220581,338.294464 579.797852,338.294464 
	C579.797852,438.173523 579.797852,537.760132 579.797852,637.440308 
	C504.053986,637.440308 428.540436,637.440308 352.600159,637.440308 
	C352.600159,606.168396 352.600159,575.284790 352.600159,544.265869 
	C343.248627,549.375549 334.285034,554.273254 325.043640,559.322754 
	C325.043640,588.514465 325.020721,618.002930 325.054932,647.491333 
	C325.068542,659.233398 331.101807,665.157776 343.022400,665.159912 
	C425.680267,665.175049 508.338104,665.176453 590.995972,665.158813 
	C603.193726,665.156250 608.887329,659.353271 608.907104,646.994507 
	C608.934692,629.829712 608.914062,612.664856 608.914124,594.500000 
M243.645264,483.153564 
	C228.888794,490.760040 213.918884,497.985748 199.446304,506.098633 
	C188.699844,512.122803 178.794174,519.538818 171.032532,529.378113 
	C161.055481,542.025818 164.629135,557.289978 179.213943,564.040161 
	C190.171631,569.111633 201.876221,569.135010 213.512268,568.250793 
	C242.850327,566.021545 271.110565,558.390381 299.233765,550.286804 
	C315.081390,545.720276 330.561279,540.185364 343.944061,530.108521 
	C353.282379,523.077026 360.849579,514.552124 361.586029,502.390717 
	C362.283966,490.864990 360.409302,479.511383 355.376678,468.873077 
	C348.954193,455.296875 338.484680,449.726807 323.728088,452.418152 
	C319.500519,453.189178 315.205963,454.110321 311.237823,455.700470 
	C288.898071,464.652374 266.648560,473.829376 243.645264,483.153564 
M89.839424,257.751587 
	C85.152328,250.952148 81.301682,243.332642 75.605469,237.522522 
	C63.425701,225.099197 47.252666,223.883698 34.702782,234.287445 
	C29.621582,238.499725 25.095734,244.232056 22.301014,250.201447 
	C11.646389,272.959259 13.031175,296.006287 22.766630,318.787842 
	C26.911055,328.486053 33.191109,336.575348 42.007164,342.467773 
	C47.660042,346.246033 53.866650,348.334900 60.844025,347.514252 
	C74.221703,345.940735 82.905045,337.889984 88.692772,326.560425 
	C100.123131,304.185425 98.989113,281.366119 89.839424,257.751587 
M513.640442,411.995728 
	C510.594788,412.336945 507.549103,412.678162 504.401276,413.030823 
	C504.401276,416.905426 504.616974,420.082123 504.299652,423.204681 
	C504.164490,424.534546 503.222107,426.254181 502.116699,426.929932 
	C497.908569,429.502411 493.484283,431.721344 488.776550,434.269531 
	C487.489655,433.531158 485.759827,432.547852 484.039185,431.548828 
	C482.188385,430.474213 480.346161,429.384857 477.579285,427.761688 
	C473.544128,434.735199 469.572205,441.599457 465.263885,449.045044 
	C472.822449,452.351746 476.693787,455.263824 476.989746,464.304535 
	C477.308044,474.026520 471.620026,475.661194 465.439026,479.675354 
	C469.534973,486.727783 473.475739,493.512970 477.417847,500.300476 
	C478.729218,499.714996 479.224487,499.605347 479.577393,499.319733 
	C485.481171,494.542206 490.520172,493.721741 497.872772,498.460938 
	C503.407196,502.028168 504.938171,505.127441 504.530670,510.837616 
	C504.420288,512.384399 505.753754,515.393677 506.539154,515.432861 
	C513.740601,515.791931 520.967407,515.644104 528.234558,515.644104 
	C529.040955,508.376190 525.655457,499.887054 536.371826,498.587250 
	C543.047852,490.540649 548.770264,496.933746 555.384399,500.516022 
	C559.450439,493.484619 563.370972,486.704803 567.411743,479.717072 
	C561.307800,475.464600 552.620300,473.862122 556.692993,464.162445 
	C552.497925,454.308350 561.653503,452.743652 567.488953,448.277496 
	C563.312988,441.226440 559.327332,434.496765 555.345154,427.772919 
	C550.733276,430.443817 547.150146,432.518921 543.906921,434.397125 
	C539.386230,431.865601 535.109009,429.651062 531.017517,427.134674 
	C525.596436,423.800629 529.832153,418.316284 528.356079,414.071655 
	C528.253845,413.777771 528.073303,413.511078 527.291382,411.995575 
	C523.478821,411.995575 519.035950,411.995575 513.640442,411.995728 
M517.500000,387.166626 
	C529.433716,387.166626 541.367432,387.166626 553.464355,387.166626 
	C553.464355,380.519226 553.464355,374.449677 553.464355,368.262878 
	C493.663300,368.262878 434.135498,368.262878 374.458710,368.262878 
	C374.458710,374.597137 374.458710,380.665741 374.458710,387.166626 
	C421.985443,387.166626 469.242706,387.166626 517.500000,387.166626 
M220.364700,475.826324 
	C223.950012,474.157043 227.535324,472.487793 231.502808,470.640594 
	C228.093018,459.940033 220.500977,454.377563 210.399506,452.074402 
	C183.422943,445.923645 149.643204,469.697845 146.175690,497.252014 
	C144.909958,507.309906 147.215302,516.340759 154.784363,522.674805 
	C162.064087,515.644104 168.322723,507.770752 176.254715,502.342621 
	C190.185806,492.808990 205.141251,484.772186 220.364700,475.826324 
M468.373352,582.846619 
	C474.948944,581.009644 475.218353,587.572693 478.865906,591.016113 
	C483.515808,588.291199 488.258301,585.512024 493.043488,582.707825 
	C490.811157,577.890076 488.018555,574.746948 491.221008,568.773132 
	C494.550781,562.561707 498.741089,563.192383 504.170898,563.126221 
	C504.170898,557.011658 504.170898,551.225891 504.170898,545.161377 
	C500.437927,545.161377 497.468079,545.161377 494.737152,545.161377 
	C491.418427,539.044312 485.172455,533.512451 493.579163,526.735596 
	C489.787292,524.254944 486.666656,522.072693 483.407745,520.121399 
	C480.182587,518.190247 477.441010,517.904053 475.587921,522.263611 
	C474.888763,523.908447 472.860229,525.921265 471.263550,526.086853 
	C465.028381,526.733459 458.571472,527.036133 456.169220,519.074219 
	C456.093628,518.823669 455.653107,518.683228 454.844666,518.109863 
	C450.371002,520.651062 445.657227,523.328674 440.172058,526.444397 
	C448.797668,533.862427 442.263702,539.558777 439.136566,545.973511 
	C436.102448,545.973511 433.145355,545.973511 429.842896,545.973511 
	C429.842896,552.093323 429.842896,557.871033 429.842896,563.914307 
	C433.659027,563.914307 436.629547,563.914307 439.050903,563.914307 
	C441.188904,567.291199 444.175507,570.077759 444.571716,573.193726 
	C444.945557,576.133301 442.593201,579.419434 441.278259,582.992859 
	C445.815155,585.615356 450.496643,588.321350 455.588654,591.264709 
	C458.241730,585.907349 460.637665,580.888977 468.373352,582.846619 
M285.887177,417.418884 
	C271.958252,418.196625 258.029297,418.974365 243.535126,419.783691 
	C244.925766,434.445343 246.267441,448.590790 247.598953,462.629059 
	C269.631500,453.933899 291.170074,445.433685 312.666168,436.950256 
	C312.666168,430.231659 312.666168,423.164337 312.666168,416.028351 
	C303.793915,416.479004 295.310059,416.909912 285.887177,417.418884 
M269.872528,595.616699 
	C280.536774,610.527588 295.118713,619.467773 312.896851,624.432068 
	C312.896851,603.835815 312.896851,583.917847 312.896851,563.961060 
	C295.384949,568.465637 278.030487,572.929688 259.781250,577.623901 
	C263.194122,583.790527 266.310089,589.420654 269.872528,595.616699 
M376.179016,274.245117 
	C376.396851,276.063019 376.588135,277.884521 376.836945,279.698181 
	C378.069763,288.683777 384.422424,294.016846 393.262207,293.505127 
	C401.675385,293.018127 408.215210,286.309235 407.838501,277.625641 
	C407.398987,267.494171 406.545593,257.357849 405.326691,247.289642 
	C404.206848,238.039429 396.857574,232.108505 388.643433,233.039871 
	C379.568695,234.068848 373.460785,241.999817 374.335724,251.444321 
	C375.011047,258.734039 375.527252,266.038513 376.179016,274.245117 
M238.589005,304.099762 
	C244.102280,307.738739 249.843231,308.018829 255.507965,304.724915 
	C261.224091,301.401123 263.653778,296.166718 263.159302,289.596191 
	C262.460083,280.304565 261.726318,271.015533 261.007050,261.725403 
	C260.279602,252.329773 253.277069,245.464355 245.001709,246.033142 
	C235.779831,246.666977 229.340637,253.972595 229.879288,263.633270 
	C230.379364,272.602234 231.376236,281.542999 231.911072,290.510681 
	C232.225082,295.775757 233.876343,300.240082 238.589005,304.099762 
M444.191467,411.138794 
	C420.983826,411.138794 397.776184,411.138794 374.395508,411.138794 
	C374.395508,417.853119 374.395508,423.923889 374.395508,430.245911 
	C398.640656,430.245911 422.650421,430.245911 446.941223,430.245911 
	C446.941223,424.462494 447.014801,418.988281 446.860565,413.520508 
	C446.837860,412.716431 445.734039,411.942841 444.191467,411.138794 
M432.429657,465.497314 
	C432.429657,462.082153 432.429657,458.666962 432.429657,455.297791 
	C412.498871,455.297791 393.252930,455.297791 374.158936,455.297791 
	C374.158936,461.678223 374.158936,467.755615 374.158936,474.164368 
	C384.177521,474.164368 393.812286,474.164398 403.447052,474.164398 
	C413.048462,474.164398 422.649872,474.164368 432.429810,474.164368 
	C432.429810,471.146240 432.429810,468.818939 432.429657,465.497314 
z"/>
<path fill="#112574" opacity="1.000000" stroke="none" 
	d="
M232.158661,62.905731 
	C224.978058,56.134125 222.311325,48.189632 225.383408,39.114651 
	C228.089783,31.120022 233.992966,26.111210 242.498703,24.906693 
	C251.766922,23.594196 259.151794,26.847795 264.199524,34.908634 
	C268.877258,42.378624 268.870911,52.567806 263.421661,59.288002 
	C261.169067,62.066025 261.503967,63.947586 262.744873,66.718994 
	C269.941772,82.792099 277.105713,98.882370 284.005859,115.083916 
	C285.421051,118.406731 287.127991,119.344498 290.642853,119.264137 
	C300.728943,119.033562 310.612518,120.663414 319.727692,125.120857 
	C323.533325,126.981873 327.427826,129.462311 330.081940,132.657791 
	C332.893219,136.042480 335.726685,136.856644 339.808258,136.841995 
	C373.801819,136.719910 407.796478,136.701096 441.789948,136.847839 
	C465.009247,136.948074 481.127777,149.941116 486.485107,172.615540 
	C495.744141,211.803497 500.930084,251.504059 501.253265,291.803009 
	C501.263794,293.118591 501.254578,294.434326 501.254578,296.136292 
	C487.785889,296.136292 474.574402,296.136292 460.079010,296.136292 
	C460.079010,286.689270 460.453003,277.228790 460.006714,267.807159 
	C458.816742,242.685684 456.899963,217.644211 450.976318,193.062653 
	C447.748016,179.666168 442.733917,174.238342 428.990784,173.596985 
	C408.195526,172.626556 387.356262,172.392349 366.535553,172.387634 
	C363.292023,172.386902 359.530396,174.663818 356.912048,176.931168 
	C351.521332,181.599258 346.723755,186.955383 341.714264,192.059906 
	C334.308136,199.606552 326.552246,206.543930 315.799133,209.042801 
	C300.672302,212.558044 286.860168,210.180466 274.249420,200.784927 
	C266.666138,195.135040 258.911530,189.654495 250.826324,184.773010 
	C248.145172,183.154251 244.033203,182.743347 240.847794,183.310410 
	C220.222672,186.982162 199.666153,191.042480 179.100494,195.044098 
	C163.712631,198.038208 158.729660,204.305954 157.962631,219.848648 
	C156.422577,251.056458 156.991440,282.169861 162.064194,313.041748 
	C164.163727,325.819244 167.037079,338.500092 170.205399,351.061707 
	C172.690765,360.915558 180.805573,366.675385 191.419891,366.804993 
	C232.232651,367.303406 273.061615,368.689240 313.820099,365.121765 
	C314.136322,365.094055 314.466309,365.223358 315.142242,365.340302 
	C315.142242,377.651459 315.142242,390.018158 315.142242,402.809174 
	C298.560425,403.830994 282.144073,405.513031 265.709381,405.717590 
	C230.059616,406.161377 194.388840,406.355499 158.752258,405.536987 
	C148.159317,405.293701 137.572968,401.650696 127.121666,399.017487 
	C106.954323,393.936371 87.261642,387.456848 68.401604,378.506866 
	C63.539303,376.199463 60.721851,373.179565 59.986874,367.940674 
	C59.642014,365.482544 58.909481,363.078857 58.251019,360.207336 
	C60.927696,359.964111 63.501072,359.882416 66.022438,359.477112 
	C86.861305,356.127563 99.428589,342.562317 106.410858,324.087067 
	C118.551704,291.962158 114.951721,261.129822 94.317650,233.312393 
	C84.781715,220.456741 71.930222,211.964935 55.008511,211.895370 
	C52.049110,211.883209 49.087650,212.371613 45.497616,212.683517 
	C45.838398,208.328979 45.893295,204.022644 46.660591,199.847198 
	C46.916965,198.452087 48.785721,196.959381 50.270466,196.242966 
	C72.589417,185.473862 95.351196,175.909668 119.215675,168.912308 
	C156.852386,157.876724 195.631119,152.837311 234.093399,146.113846 
	C237.480530,145.521759 239.447601,144.481659 241.201233,141.194824 
	C246.358078,131.529312 255.568069,126.772705 265.409882,123.098160 
	C266.771027,122.589958 268.153839,122.139801 269.770081,121.578186 
	C262.056030,104.169868 254.488220,86.993263 246.758530,69.889793 
	C246.290359,68.853889 244.601227,68.251022 243.366516,67.702682 
	C239.761505,66.101662 236.098846,64.630447 232.158661,62.905731 
M315.214111,186.926300 
	C316.340576,185.946243 317.561981,185.055176 318.577759,183.971359 
	C324.209045,177.962769 324.702545,168.957321 319.845215,161.951126 
	C315.443481,155.602081 306.835571,153.083542 299.443604,155.981949 
	C290.088715,159.650009 286.052002,169.545944 289.896149,179.004761 
	C293.170837,187.062271 304.120605,193.167419 315.214111,186.926300 
z"/>
<path fill="#112674" opacity="1.000000" stroke="none" 
	d="
M608.914124,595.000000 
	C608.914062,612.664856 608.934692,629.829712 608.907104,646.994507 
	C608.887329,659.353271 603.193726,665.156250 590.995972,665.158813 
	C508.338104,665.176453 425.680267,665.175049 343.022400,665.159912 
	C331.101807,665.157776 325.068542,659.233398 325.054932,647.491333 
	C325.020721,618.002930 325.043640,588.514465 325.043640,559.322754 
	C334.285034,554.273254 343.248627,549.375549 352.600159,544.265869 
	C352.600159,575.284790 352.600159,606.168396 352.600159,637.440308 
	C428.540436,637.440308 504.053986,637.440308 579.797852,637.440308 
	C579.797852,537.760132 579.797852,438.173523 579.797852,338.294464 
	C504.220581,338.294464 428.678650,338.294464 352.896942,338.294464 
	C352.896942,372.452393 352.896942,406.408691 352.896942,439.741943 
	C343.650299,437.973236 334.507141,436.224335 324.449615,434.300568 
	C324.449615,433.915222 324.449615,432.150787 324.449615,430.386353 
	C324.449707,396.723267 324.707031,363.057190 324.317535,329.398621 
	C324.171051,316.739014 331.031158,309.617310 344.113953,309.668823 
	C425.770630,309.990173 507.429260,309.828857 589.087219,309.833191 
	C602.729126,309.833893 608.913025,315.987091 608.913208,329.528992 
	C608.914429,417.852661 608.914001,506.176331 608.914124,595.000000 
z"/>
<path fill="#102574" opacity="1.000000" stroke="none" 
	d="
M244.006775,483.041595 
	C266.648560,473.829376 288.898071,464.652374 311.237823,455.700470 
	C315.205963,454.110321 319.500519,453.189178 323.728088,452.418152 
	C338.484680,449.726807 348.954193,455.296875 355.376678,468.873077 
	C360.409302,479.511383 362.283966,490.864990 361.586029,502.390717 
	C360.849579,514.552124 353.282379,523.077026 343.944061,530.108521 
	C330.561279,540.185364 315.081390,545.720276 299.233765,550.286804 
	C271.110565,558.390381 242.850327,566.021545 213.512268,568.250793 
	C201.876221,569.135010 190.171631,569.111633 179.213943,564.040161 
	C164.629135,557.289978 161.055481,542.025818 171.032532,529.378113 
	C178.794174,519.538818 188.699844,512.122803 199.446304,506.098633 
	C213.918884,497.985748 228.888794,490.760040 244.006775,483.041595 
z"/>
<path fill="#122674" opacity="1.000000" stroke="none" 
	d="
M89.951797,258.117188 
	C98.989113,281.366119 100.123131,304.185425 88.692772,326.560425 
	C82.905045,337.889984 74.221703,345.940735 60.844025,347.514252 
	C53.866650,348.334900 47.660042,346.246033 42.007164,342.467773 
	C33.191109,336.575348 26.911055,328.486053 22.766630,318.787842 
	C13.031175,296.006287 11.646389,272.959259 22.301014,250.201447 
	C25.095734,244.232056 29.621582,238.499725 34.702782,234.287445 
	C47.252666,223.883698 63.425701,225.099197 75.605469,237.522522 
	C81.301682,243.332642 85.152328,250.952148 89.951797,258.117188 
M75.850189,292.574371 
	C74.784447,286.197205 74.160240,279.705109 72.537994,273.472809 
	C70.632843,266.153564 67.105515,259.470795 60.929546,254.712387 
	C52.851742,248.488647 42.557564,251.443405 39.228741,260.771790 
	C50.355938,259.392090 54.796799,261.764648 59.431259,272.609192 
	C64.279778,283.954651 65.549683,295.789459 61.635609,307.659119 
	C60.432137,311.308685 58.316227,315.279175 55.409767,317.568848 
	C52.556644,319.816467 48.167385,320.114136 44.742310,321.177490 
	C48.939995,326.660492 54.750782,329.314423 60.366207,326.190430 
	C64.474899,323.904663 68.968018,320.214020 70.623718,316.081421 
	C73.463516,308.993378 74.219696,301.070496 75.850189,292.574371 
z"/>
<path fill="#122775" opacity="1.000000" stroke="none" 
	d="
M514.116821,411.995667 
	C519.035950,411.995575 523.478821,411.995575 527.291382,411.995575 
	C528.073303,413.511078 528.253845,413.777771 528.356079,414.071655 
	C529.832153,418.316284 525.596436,423.800629 531.017517,427.134674 
	C535.109009,429.651062 539.386230,431.865601 543.906921,434.397125 
	C547.150146,432.518921 550.733276,430.443817 555.345154,427.772919 
	C559.327332,434.496765 563.312988,441.226440 567.488953,448.277496 
	C561.653503,452.743652 552.497925,454.308350 556.692993,464.162445 
	C552.620300,473.862122 561.307800,475.464600 567.411743,479.717072 
	C563.370972,486.704803 559.450439,493.484619 555.384399,500.516022 
	C548.770264,496.933746 543.047852,490.540649 536.371826,498.587250 
	C525.655457,499.887054 529.040955,508.376190 528.234558,515.644104 
	C520.967407,515.644104 513.740601,515.791931 506.539154,515.432861 
	C505.753754,515.393677 504.420288,512.384399 504.530670,510.837616 
	C504.938171,505.127441 503.407196,502.028168 497.872772,498.460938 
	C490.520172,493.721741 485.481171,494.542206 479.577393,499.319733 
	C479.224487,499.605347 478.729218,499.714996 477.417847,500.300476 
	C473.475739,493.512970 469.534973,486.727783 465.439026,479.675354 
	C471.620026,475.661194 477.308044,474.026520 476.989746,464.304535 
	C476.693787,455.263824 472.822449,452.351746 465.263885,449.045044 
	C469.572205,441.599457 473.544128,434.735199 477.579285,427.761688 
	C480.346161,429.384857 482.188385,430.474213 484.039185,431.548828 
	C485.759827,432.547852 487.489655,433.531158 488.776550,434.269531 
	C493.484283,431.721344 497.908569,429.502411 502.116699,426.929932 
	C503.222107,426.254181 504.164490,424.534546 504.299652,423.204681 
	C504.616974,420.082123 504.401276,416.905426 504.401276,413.030823 
	C507.549103,412.678162 510.594788,412.336945 514.116821,411.995667 
M533.852417,454.897980 
	C528.408508,446.296387 520.640686,442.746063 512.017883,444.918335 
	C503.462036,447.073730 497.376892,453.887573 496.790955,461.968781 
	C496.162354,470.638397 500.575592,478.456360 508.078949,481.965210 
	C515.522583,485.446136 523.799316,484.108948 529.834534,478.450348 
	C536.354004,472.337708 537.794922,464.668610 533.852417,454.897980 
z"/>
<path fill="#102573" opacity="1.000000" stroke="none" 
	d="
M517.000000,387.166626 
	C469.242706,387.166626 421.985443,387.166626 374.458710,387.166626 
	C374.458710,380.665741 374.458710,374.597137 374.458710,368.262878 
	C434.135498,368.262878 493.663300,368.262878 553.464355,368.262878 
	C553.464355,374.449677 553.464355,380.519226 553.464355,387.166626 
	C541.367432,387.166626 529.433716,387.166626 517.000000,387.166626 
z"/>
<path fill="#112674" opacity="1.000000" stroke="none" 
	d="
M220.016174,475.967407 
	C205.141251,484.772186 190.185806,492.808990 176.254715,502.342621 
	C168.322723,507.770752 162.064087,515.644104 154.784363,522.674805 
	C147.215302,516.340759 144.909958,507.309906 146.175690,497.252014 
	C149.643204,469.697845 183.422943,445.923645 210.399506,452.074402 
	C220.500977,454.377563 228.093018,459.940033 231.502808,470.640594 
	C227.535324,472.487793 223.950012,474.157043 220.016174,475.967407 
z"/>
<path fill="#132875" opacity="1.000000" stroke="none" 
	d="
M467.917053,582.846802 
	C460.637665,580.888977 458.241730,585.907349 455.588654,591.264709 
	C450.496643,588.321350 445.815155,585.615356 441.278259,582.992859 
	C442.593201,579.419434 444.945557,576.133301 444.571716,573.193726 
	C444.175507,570.077759 441.188904,567.291199 439.050903,563.914307 
	C436.629547,563.914307 433.659027,563.914307 429.842896,563.914307 
	C429.842896,557.871033 429.842896,552.093323 429.842896,545.973511 
	C433.145355,545.973511 436.102448,545.973511 439.136566,545.973511 
	C442.263702,539.558777 448.797668,533.862427 440.172058,526.444397 
	C445.657227,523.328674 450.371002,520.651062 454.844666,518.109863 
	C455.653107,518.683228 456.093628,518.823669 456.169220,519.074219 
	C458.571472,527.036133 465.028381,526.733459 471.263550,526.086853 
	C472.860229,525.921265 474.888763,523.908447 475.587921,522.263611 
	C477.441010,517.904053 480.182587,518.190247 483.407745,520.121399 
	C486.666656,522.072693 489.787292,524.254944 493.579163,526.735596 
	C485.172455,533.512451 491.418427,539.044312 494.737152,545.161377 
	C497.468079,545.161377 500.437927,545.161377 504.170898,545.161377 
	C504.170898,551.225891 504.170898,557.011658 504.170898,563.126221 
	C498.741089,563.192383 494.550781,562.561707 491.221008,568.773132 
	C488.018555,574.746948 490.811157,577.890076 493.043488,582.707825 
	C488.258301,585.512024 483.515808,588.291199 478.865906,591.016113 
	C475.218353,587.572693 474.948944,581.009644 467.917053,582.846802 
M467.392059,569.441101 
	C468.539764,569.261597 469.726593,569.212158 470.828552,568.880493 
	C476.186371,567.268127 480.666870,561.586304 481.103882,555.965149 
	C481.573761,549.921509 478.176392,543.982971 472.714325,541.300354 
	C467.737335,538.856018 461.507172,539.874817 457.030670,544.127441 
	C452.901398,548.050232 450.758636,552.852234 452.597321,558.536255 
	C454.744690,565.174500 459.348602,569.029053 467.392059,569.441101 
z"/>
<path fill="#112674" opacity="1.000000" stroke="none" 
	d="
M286.356689,417.379852 
	C295.310059,416.909912 303.793915,416.479004 312.666168,416.028351 
	C312.666168,423.164337 312.666168,430.231659 312.666168,436.950256 
	C291.170074,445.433685 269.631500,453.933899 247.598953,462.629059 
	C246.267441,448.590790 244.925766,434.445343 243.535126,419.783691 
	C258.029297,418.974365 271.958252,418.196625 286.356689,417.379852 
z"/>
<path fill="#112674" opacity="1.000000" stroke="none" 
	d="
M269.649292,595.333740 
	C266.310089,589.420654 263.194122,583.790527 259.781250,577.623901 
	C278.030487,572.929688 295.384949,568.465637 312.896851,563.961060 
	C312.896851,583.917847 312.896851,603.835815 312.896851,624.432068 
	C295.118713,619.467773 280.536774,610.527588 269.649292,595.333740 
z"/>
<path fill="#122675" opacity="1.000000" stroke="none" 
	d="
M376.146606,273.790771 
	C375.527252,266.038513 375.011047,258.734039 374.335724,251.444321 
	C373.460785,241.999817 379.568695,234.068848 388.643433,233.039871 
	C396.857574,232.108505 404.206848,238.039429 405.326691,247.289642 
	C406.545593,257.357849 407.398987,267.494171 407.838501,277.625641 
	C408.215210,286.309235 401.675385,293.018127 393.262207,293.505127 
	C384.422424,294.016846 378.069763,288.683777 376.836945,279.698181 
	C376.588135,277.884521 376.396851,276.063019 376.146606,273.790771 
z"/>
<path fill="#112674" opacity="1.000000" stroke="none" 
	d="
M238.284195,303.883728 
	C233.876343,300.240082 232.225082,295.775757 231.911072,290.510681 
	C231.376236,281.542999 230.379364,272.602234 229.879288,263.633270 
	C229.340637,253.972595 235.779831,246.666977 245.001709,246.033142 
	C253.277069,245.464355 260.279602,252.329773 261.007050,261.725403 
	C261.726318,271.015533 262.460083,280.304565 263.159302,289.596191 
	C263.653778,296.166718 261.224091,301.401123 255.507965,304.724915 
	C249.843231,308.018829 244.102280,307.738739 238.284195,303.883728 
z"/>
<path fill="#192D79" opacity="1.000000" stroke="none" 
	d="
M444.660950,411.146973 
	C445.734039,411.942841 446.837860,412.716431 446.860565,413.520508 
	C447.014801,418.988281 446.941223,424.462494 446.941223,430.245911 
	C422.650421,430.245911 398.640656,430.245911 374.395508,430.245911 
	C374.395508,423.923889 374.395508,417.853119 374.395508,411.138794 
	C397.776184,411.138794 420.983826,411.138794 444.660950,411.146973 
z"/>
<path fill="#0F2473" opacity="1.000000" stroke="none" 
	d="
M432.429749,465.994507 
	C432.429810,468.818939 432.429810,471.146240 432.429810,474.164368 
	C422.649872,474.164368 413.048462,474.164398 403.447052,474.164398 
	C393.812286,474.164398 384.177521,474.164368 374.158936,474.164368 
	C374.158936,467.755615 374.158936,461.678223 374.158936,455.297791 
	C393.252930,455.297791 412.498871,455.297791 432.429657,455.297791 
	C432.429657,458.666962 432.429657,462.082153 432.429749,465.994507 
z"/>
<path fill="#FCFDFE" opacity="1.000000" stroke="none" 
	d="
M314.868164,187.074890 
	C304.120605,193.167419 293.170837,187.062271 289.896149,179.004761 
	C286.052002,169.545944 290.088715,159.650009 299.443604,155.981949 
	C306.835571,153.083542 315.443481,155.602081 319.845215,161.951126 
	C324.702545,168.957321 324.209045,177.962769 318.577759,183.971359 
	C317.561981,185.055176 316.340576,185.946243 314.868164,187.074890 
z"/>
<path fill="#F9FAFC" opacity="1.000000" stroke="none" 
	d="
M75.850433,293.036255 
	C74.219696,301.070496 73.463516,308.993378 70.623718,316.081421 
	C68.968018,320.214020 64.474899,323.904663 60.366207,326.190430 
	C54.750782,329.314423 48.939995,326.660492 44.742310,321.177490 
	C48.167385,320.114136 52.556644,319.816467 55.409767,317.568848 
	C58.316227,315.279175 60.432137,311.308685 61.635609,307.659119 
	C65.549683,295.789459 64.279778,283.954651 59.431259,272.609192 
	C54.796799,261.764648 50.355938,259.392090 39.228741,260.771790 
	C42.557564,251.443405 52.851742,248.488647 60.929546,254.712387 
	C67.105515,259.470795 70.632843,266.153564 72.537994,273.472809 
	C74.160240,279.705109 74.784447,286.197205 75.850433,293.036255 
z"/>
<path fill="#FCFCFD" opacity="1.000000" stroke="none" 
	d="
M533.988647,455.256897 
	C537.794922,464.668610 536.354004,472.337708 529.834534,478.450348 
	C523.799316,484.108948 515.522583,485.446136 508.078949,481.965210 
	C500.575592,478.456360 496.162354,470.638397 496.790955,461.968781 
	C497.376892,453.887573 503.462036,447.073730 512.017883,444.918335 
	C520.640686,442.746063 528.408508,446.296387 533.988647,455.256897 
z"/>
<path fill="#FCFCFD" opacity="1.000000" stroke="none" 
	d="
M466.958801,569.421631 
	C459.348602,569.029053 454.744690,565.174500 452.597321,558.536255 
	C450.758636,552.852234 452.901398,548.050232 457.030670,544.127441 
	C461.507172,539.874817 467.737335,538.856018 472.714325,541.300354 
	C478.176392,543.982971 481.573761,549.921509 481.103882,555.965149 
	C480.666870,561.586304 476.186371,567.268127 470.828552,568.880493 
	C469.726593,569.212158 468.539764,569.261597 466.958801,569.421631 
z"/>
</svg>