<svg version="1.1" id="Layer_1" xmlns="http://www.w3.org/2000/svg" xmlns:xlink="http://www.w3.org/1999/xlink" x="0px" y="0px"
	 width="100%" viewBox="0 0 310 270" enable-background="new 0 0 310 270" xml:space="preserve">
<path fill="#FFFFFE" opacity="1.000000" stroke="none" 
	d="
M1.000000,14.000000 
	C1.000000,9.668771 1.000000,5.337542 1.000000,1.004735 
	C104.281044,1.003156 207.562088,1.003156 310.921570,1.003156 
	C310.921570,90.903954 310.921570,180.807999 310.921570,271.000000 
	C208.645950,271.000000 106.291634,271.000000 3.470147,270.549927 
	C3.002980,267.239166 3.002980,264.378540 3.002980,261.603424 
	C6.174210,260.999176 9.766352,265.896271 11.459188,259.941772 
	C13.747175,259.896423 15.605330,260.088867 17.394331,259.820435 
	C19.635654,259.484100 21.820204,258.769440 24.490765,258.159607 
	C30.287846,258.031982 35.623425,257.962891 41.313637,258.055176 
	C42.442669,258.216583 43.217068,258.216644 44.272923,258.404907 
	C45.025043,256.875092 45.902321,255.157791 45.905418,253.438904 
	C45.952267,227.441269 45.878757,201.443436 45.856155,175.445633 
	C45.854664,173.728058 46.036350,172.010315 46.170372,169.624435 
	C47.616421,170.499420 48.339348,170.830750 48.938389,171.315247 
	C57.794884,178.478287 66.556152,185.761749 75.505699,192.806137 
	C81.802689,197.762604 88.350418,202.400513 94.995087,207.451202 
	C98.987701,210.843033 102.771431,213.964325 106.371033,217.319977 
	C107.848526,220.547073 109.695343,223.897675 113.581543,220.617798 
	C122.067520,213.455795 130.327194,206.024200 138.634033,198.651733 
	C150.765610,187.884705 162.863998,177.080200 174.964523,166.278229 
	C191.162018,151.818909 207.330368,137.326920 223.544128,122.885887 
	C238.636215,109.443878 253.780136,96.060104 268.884277,82.631630 
	C277.919342,74.598915 286.971344,66.583611 295.886108,58.418926 
	C297.240814,57.178207 298.707306,55.182346 298.736938,53.511223 
	C298.966949,40.534977 298.934601,27.551901 298.799866,14.572842 
	C298.764313,11.150517 295.660828,9.816966 292.832825,11.936102 
	C291.568481,12.883525 290.789948,14.479239 289.479309,15.897358 
	C288.459442,17.027378 287.751221,18.040781 286.878693,19.305309 
	C285.923950,20.142336 285.133453,20.728237 283.979187,21.224821 
	C282.886292,21.484150 282.045593,21.699373 281.444824,22.201567 
	C273.071198,29.201077 264.657379,36.155300 256.396515,43.286407 
	C238.594177,58.654129 220.851593,74.091339 203.127869,89.549774 
	C186.809143,103.782822 170.520599,118.050880 154.293777,132.388412 
	C152.279175,134.168442 150.917633,134.305145 148.778976,132.522842 
	C140.257584,125.421349 131.525528,118.573296 122.965492,111.517326 
	C105.392647,97.032150 87.815315,82.551117 70.362350,67.922195 
	C54.646179,54.749023 39.166218,41.293674 23.423012,28.153357 
	C18.926319,24.400120 13.875543,21.310720 8.743820,17.730684 
	C7.448558,17.340811 6.488316,17.137171 5.476439,16.831732 
	C5.424803,16.729933 5.217391,16.634556 5.170075,16.273415 
	C3.748506,15.274848 2.374253,14.637424 1.000000,14.000000 
M282.003479,256.177002 
	C287.405243,255.910645 292.807007,255.644272 299.051178,255.383591 
	C301.512482,255.325424 303.000122,254.572159 302.962463,251.606506 
	C302.815704,240.048447 302.927795,228.486954 302.749969,216.929703 
	C302.733582,215.865799 301.342560,214.823044 300.373566,212.891891 
	C300.214661,202.949890 300.055756,193.007904 300.240265,182.172028 
	C300.304840,172.756226 300.369415,163.340439 300.914001,153.282333 
	C300.973145,147.531906 301.032288,141.781464 301.597321,135.375259 
	C301.688507,121.150764 301.783508,106.926285 301.866516,92.701744 
	C301.878113,90.716019 302.097198,88.674782 301.701904,86.766632 
	C301.494995,85.767906 300.161499,85.002579 299.336792,84.131851 
	C298.536896,84.917267 297.737000,85.702690 296.473145,86.647141 
	C296.473145,86.647141 295.990326,86.733330 295.571075,86.289955 
	C289.843109,90.929253 284.073456,95.518204 278.395111,100.217468 
	C262.601990,113.287468 246.807022,126.355766 231.090240,139.517227 
	C220.073486,148.742828 209.222916,158.166702 198.223907,167.413727 
	C190.763412,173.685852 183.160797,179.788620 175.645538,185.995956 
	C162.444397,196.899704 149.231644,207.790024 136.125061,218.806503 
	C135.021469,219.734070 134.681412,221.570053 133.718460,223.472702 
	C133.153229,223.935852 132.587982,224.399002 131.597748,224.361023 
	C130.291412,225.521027 128.985092,226.681030 127.331558,227.873535 
	C127.331558,227.873535 126.998154,227.975815 126.348343,228.093262 
	C126.570152,229.049301 126.791962,230.005341 127.300392,231.578125 
	C127.729813,232.289795 128.035080,233.126694 128.607468,233.694122 
	C135.779572,240.803909 142.862671,248.015106 150.328827,254.804123 
	C151.448257,255.822021 155.125641,255.674667 156.401627,254.608521 
	C165.555374,246.960098 174.346817,238.880371 183.344635,231.042450 
	C195.066574,220.831619 206.875336,210.720490 218.642197,200.561157 
	C228.793472,191.796692 238.973557,183.064835 249.041321,174.205399 
	C250.290649,173.105988 250.928253,171.311447 252.265167,169.366257 
	C252.823074,169.079361 253.380966,168.792465 254.320251,169.280365 
	C254.919724,171.041031 256.015472,172.795212 256.038574,174.563416 
	C256.196106,186.611542 256.043274,198.663971 256.239655,210.710983 
	C256.264221,212.217697 257.749268,213.700623 258.748993,216.081665 
	C258.741577,225.068192 258.734131,234.054718 258.178436,243.592697 
	C258.377075,246.379135 258.575684,249.165558 258.872711,252.683533 
	C258.878387,253.175537 258.884094,253.667526 258.805542,254.979050 
	C259.999756,255.966461 261.146973,257.729950 262.396454,257.805634 
	C267.539032,258.117218 272.715973,258.009918 277.872162,257.827667 
	C278.960815,257.789215 280.015320,256.785706 282.003479,256.177002 
z"/>
<path fill="#FEFDFB" opacity="1.000000" stroke="none" 
	d="
M10.998654,259.975006 
	C9.766352,265.896271 6.174210,260.999176 3.002980,261.603424 
	C3.002980,264.378540 3.002980,267.239166 3.001490,270.549927 
	C2.333334,270.668732 1.216097,270.456329 1.090964,269.982147 
	C0.803717,268.893677 1.000000,267.677643 1.000000,266.513367 
	C1.000000,197.988022 1.000000,129.462662 1.377362,60.559105 
	C3.040609,60.143223 4.326494,60.105553 5.873778,60.242756 
	C6.692562,60.667637 7.249948,60.917645 7.830224,61.515785 
	C9.138786,63.275276 10.424458,64.686638 11.513941,66.305725 
	C14.006892,69.071594 16.518991,71.857857 19.436317,74.121979 
	C22.203886,76.269882 25.395842,77.870956 28.703888,79.799545 
	C29.926962,80.739174 30.847326,81.591743 31.860046,82.754677 
	C35.528465,85.775955 39.104530,88.486885 42.916649,91.381287 
	C43.753246,92.068260 44.353783,92.571762 45.052368,93.389626 
	C46.670525,94.864090 48.190628,96.024193 49.974518,97.374146 
	C51.418625,98.503822 52.598946,99.443665 53.845211,100.700287 
	C55.265076,102.019272 56.618996,103.021461 58.177887,104.111031 
	C58.382858,104.198402 58.763721,104.429764 58.826111,104.706223 
	C59.474430,105.393707 60.060356,105.804726 60.945267,106.358810 
	C62.075417,107.161896 62.906578,107.821938 63.800701,108.754478 
	C64.445251,109.430275 65.026840,109.833572 65.891899,110.352623 
	C66.728844,111.066628 67.282318,111.664886 67.900726,112.587326 
	C70.636780,114.947166 73.307892,116.982819 76.184006,119.102226 
	C76.389000,119.185982 76.771698,119.408913 76.849571,119.723465 
	C78.156227,120.772598 79.385017,121.507187 80.882935,122.453064 
	C83.346870,124.618179 85.541679,126.571991 87.824348,128.830872 
	C89.281021,130.085464 90.649849,131.034988 92.222153,132.053925 
	C92.425629,132.123306 92.801071,132.332886 92.851364,132.621155 
	C93.496986,133.338593 94.092331,133.767792 94.986816,134.346130 
	C96.093285,135.200211 96.900612,135.905136 97.782501,136.866165 
	C98.423180,137.499847 98.989281,137.877426 99.621262,138.276520 
	C99.687126,138.298004 99.786446,138.394653 99.854874,138.674225 
	C100.524124,139.360489 101.124954,139.767166 101.982651,140.376343 
	C103.408592,141.545288 104.577652,142.511734 105.829620,143.795425 
	C108.165070,145.810593 110.417625,147.508514 112.969215,149.359070 
	C115.304817,151.233429 117.341377,152.955170 119.285767,155.054138 
	C119.829552,158.012253 124.092949,159.670746 121.297302,163.098404 
	C118.205078,166.889648 114.960487,170.556625 112.002953,174.019318 
	C105.438477,169.471649 99.267792,165.196793 93.058395,160.954910 
	C93.019684,160.987885 93.075668,160.903030 93.037292,160.563812 
	C92.172379,159.205627 91.495377,158.000992 90.496254,157.196304 
	C80.109932,148.831375 69.731026,140.454849 59.216995,132.252106 
	C55.358837,129.242081 51.146782,126.685654 47.058357,123.956047 
	C47.020557,123.989777 47.074757,123.904289 47.033745,123.566704 
	C46.839657,122.937584 46.758076,122.558144 46.523239,122.367119 
	C35.279575,113.221466 24.045927,104.062988 12.723833,95.015213 
	C11.801188,94.277908 10.264296,94.309258 8.801752,93.899185 
	C8.590680,93.814926 8.198224,93.585617 8.125287,93.238388 
	C6.806313,93.097343 4.464262,93.377762 4.472474,93.498993 
	C4.780482,98.046669 5.305164,102.579674 5.849463,107.573456 
	C6.094664,120.332817 6.291027,132.633377 6.099076,145.014923 
	C5.458103,146.355515 4.984633,147.615219 4.984948,148.874771 
	C4.993707,183.937851 5.092324,219.000992 5.045863,254.063919 
	C5.040124,258.394379 6.844025,260.188538 10.998654,259.975006 
z"/>
<path fill="#EEDCCE" opacity="1.000000" stroke="none" 
	d="
M5.612379,60.067886 
	C4.326494,60.105553 3.040609,60.143223 1.377362,60.090446 
	C1.000000,52.312424 1.000000,44.624847 1.309120,36.560127 
	C1.828912,36.140476 2.039583,36.097965 2.537379,36.064209 
	C3.736681,36.388546 4.648857,36.704128 5.693031,37.472172 
	C5.754146,45.305717 5.683263,52.686802 5.612379,60.067886 
z"/>
<path fill="#969696" opacity="1.000000" stroke="none" 
	d="
M2.250254,36.055458 
	C2.039583,36.097965 1.828912,36.140476 1.309120,36.091492 
	C1.000000,29.645601 1.000000,23.291204 1.286112,16.478807 
	C1.810672,16.315899 2.049121,16.610991 2.205724,17.377890 
	C2.166004,23.918285 2.208129,29.986872 2.250254,36.055458 
z"/>
<path fill="#EEDCCE" opacity="1.000000" stroke="none" 
	d="
M2.287569,16.906080 
	C2.049121,16.610991 1.810672,16.315899 1.286112,16.010405 
	C1.000000,15.555555 1.000000,15.111111 1.000000,14.333333 
	C2.374253,14.637424 3.748506,15.274848 4.912190,16.311958 
	C3.896938,16.776457 3.092253,16.841269 2.287569,16.906080 
z"/>
<path fill="#EA8C39" opacity="1.000000" stroke="none" 
	d="
M44.954323,93.075264 
	C44.353783,92.571762 43.753246,92.068260 42.959862,91.031113 
	C39.100574,87.813080 35.434132,85.128700 31.767691,82.444321 
	C30.847326,81.591743 29.926962,80.739174 28.565626,79.487686 
	C22.653147,74.758507 17.181639,70.428253 11.710129,66.097992 
	C10.424458,64.686638 9.138786,63.275276 8.135453,61.200920 
	C8.605945,58.917892 8.944849,57.299107 8.958176,55.677643 
	C9.056486,43.717060 9.089849,31.755945 9.447956,19.945774 
	C16.888916,26.165918 23.982546,32.286785 31.171953,38.293007 
	C42.987785,48.164268 54.882786,57.940708 66.712906,67.794937 
	C80.009506,78.870697 93.272072,89.987328 106.547554,101.088425 
	C111.215057,104.991455 115.850868,108.932869 120.547096,112.800972 
	C129.207718,119.934380 138.056534,126.849754 146.507263,134.222412 
	C149.915024,137.195435 152.382645,137.674423 155.900681,134.574722 
	C176.974976,116.006340 198.122055,97.519829 219.332138,79.106544 
	C238.055176,62.852352 256.933136,46.776489 275.639587,30.503380 
	C278.807800,27.747301 281.455048,24.392387 284.342987,21.314140 
	C285.133453,20.728237 285.923950,20.142336 287.217102,19.337891 
	C288.170715,19.146830 288.621582,19.174309 289.140778,19.545256 
	C290.132233,21.516338 291.804199,23.121521 291.853729,24.775305 
	C292.120789,33.689358 291.964111,42.615574 292.005066,51.537357 
	C292.014099,53.504333 292.231445,55.470360 292.255676,57.758301 
	C290.316833,59.972721 288.580078,61.982906 286.616364,63.739330 
	C274.922028,74.199249 263.153656,84.576370 251.452682,95.028915 
	C241.508255,103.912308 231.701492,112.951202 221.689972,121.757774 
	C206.833710,134.826004 191.804138,147.697174 176.944870,160.762024 
	C171.317993,165.709396 166.051666,171.065292 160.460236,176.054871 
	C145.803116,189.134369 130.972168,202.020477 116.414124,215.208450 
	C113.236824,218.086731 110.468925,219.696259 106.555161,217.085602 
	C102.771431,213.964325 98.987701,210.843033 94.971481,207.103302 
	C93.192764,204.788361 91.825279,202.875000 90.071922,201.429810 
	C76.695717,190.404663 63.177650,179.550629 49.870152,168.443939 
	C47.077831,166.113419 44.608585,165.153488 40.982910,167.103577 
	C39.783504,168.466965 38.411663,169.805084 38.341904,171.207947 
	C38.195900,174.143982 38.948128,177.113281 38.959724,180.070389 
	C39.030830,198.203568 38.897213,216.338470 39.131454,234.468933 
	C39.159760,236.659851 40.988873,238.827499 41.991348,241.469788 
	C41.964676,246.268494 41.930012,250.603348 41.433380,254.948288 
	C33.488693,254.966782 26.005974,254.979492 18.523251,254.982315 
	C11.802243,254.984848 11.291996,254.537430 11.044301,247.769897 
	C10.922739,244.448578 11.016322,241.119308 11.015888,237.793640 
	C11.014768,229.214523 11.015513,220.635406 11.015513,212.056274 
	C10.023739,214.180420 10.143947,216.309113 9.997633,218.419312 
	C9.728908,222.294983 9.303175,226.159775 8.640673,229.735626 
	C7.856741,205.337296 7.375031,181.232407 7.209444,156.833893 
	C8.010835,150.797714 8.802697,145.061234 8.916295,139.311340 
	C9.139326,128.022415 8.903725,116.725052 9.042169,105.433449 
	C9.078123,102.500977 9.795089,99.576851 10.558825,96.690460 
	C18.246542,102.657509 25.461308,108.731293 32.945343,114.452866 
	C37.437935,117.887466 42.350784,120.772346 47.074757,123.904289 
	C47.074757,123.904289 47.020557,123.989777 47.053436,124.306206 
	C47.202469,124.931068 47.227669,125.348282 47.447815,125.532326 
	C58.284588,134.591812 69.026649,143.770401 80.048653,152.599426 
	C84.044312,155.800079 88.713699,158.159668 93.075668,160.903030 
	C93.075668,160.903030 93.019684,160.987885 93.052322,161.305267 
	C99.190346,167.010895 105.295731,172.399139 111.508286,177.881989 
	C116.179871,172.767471 120.920074,167.983337 125.045288,162.717438 
	C125.864792,161.671341 124.764610,158.508850 123.727295,156.830612 
	C123.005447,155.662781 120.877655,155.363953 119.377945,154.676910 
	C117.341377,152.955170 115.304817,151.233429 113.030251,149.015228 
	C110.443741,146.838577 108.095230,145.158371 105.746719,143.478165 
	C104.577652,142.511734 103.408592,141.545288 102.017136,140.037109 
	C101.125320,139.128479 100.455879,138.761566 99.786438,138.394653 
	C99.786446,138.394653 99.687126,138.298004 99.678635,137.939468 
	C99.016075,137.257309 98.362007,136.933701 97.707939,136.610077 
	C96.900612,135.905136 96.093285,135.200211 95.033829,134.007751 
	C94.121490,133.124451 93.461281,132.728668 92.801071,132.332886 
	C92.801071,132.332886 92.425629,132.123306 92.187187,131.710938 
	C90.544662,130.374313 89.140579,129.450058 87.736496,128.525803 
	C85.541679,126.571991 83.346870,124.618179 80.959747,122.105309 
	C79.435532,120.833801 78.103615,120.121353 76.771698,119.408905 
	C76.771698,119.408913 76.389000,119.185982 76.182419,118.753860 
	C73.262489,116.302208 70.549141,114.282669 67.835793,112.263138 
	C67.282318,111.664886 66.728844,111.066628 65.935028,110.013374 
	C65.042381,109.199577 64.390060,108.840775 63.737740,108.481979 
	C62.906578,107.821938 62.075417,107.161896 61.003666,106.020714 
	C60.096626,105.169632 59.430176,104.799698 58.763725,104.429764 
	C58.763721,104.429764 58.382858,104.198402 58.171074,103.761734 
	C56.565948,102.344543 55.172604,101.364029 53.779259,100.383514 
	C52.598946,99.443665 51.418625,98.503822 50.010071,97.016266 
	C48.172668,95.337448 46.563496,94.206360 44.954323,93.075264 
z"/>
<path fill="#EA8C38" opacity="1.000000" stroke="none" 
	d="
M253.938858,168.505585 
	C253.380966,168.792465 252.823074,169.079361 251.698730,169.648254 
	C248.167191,172.159164 245.056961,174.220825 242.262192,176.646042 
	C230.312546,187.015686 218.500809,197.544250 206.552521,207.915482 
	C195.095703,217.860153 183.538254,227.688980 172.013641,237.555420 
	C165.784073,242.888687 159.530685,248.194107 152.747009,253.972992 
	C149.791367,250.666702 147.327820,247.910889 145.162109,245.077179 
	C145.795883,244.587830 146.134811,244.178619 146.452164,243.753311 
	C146.460999,243.741470 146.238892,243.557312 146.124466,243.453506 
	C145.698257,244.014389 145.272049,244.575287 144.509552,245.112106 
	C143.347427,244.122208 142.521561,243.156387 142.037323,242.102051 
	C142.741150,241.567810 143.462494,240.775711 143.414307,240.725754 
	C140.233795,237.427643 137.052811,234.122467 133.684464,231.021484 
	C133.204010,230.579193 131.789444,231.151550 130.457809,231.165421 
	C129.736969,230.050690 129.365509,229.024857 129.194214,227.763153 
	C130.270508,226.638916 131.146622,225.750534 132.022736,224.862152 
	C132.587982,224.399002 133.153229,223.935852 134.209412,223.233612 
	C141.068634,217.857391 147.450424,212.736877 153.801788,207.578918 
	C161.843033,201.048615 169.859543,194.487854 178.221481,188.083984 
	C183.350098,189.035233 190.947037,181.999359 191.135086,176.516235 
	C192.328613,175.642776 193.413727,175.142426 194.280197,174.390198 
	C203.685410,166.225235 212.910675,157.846085 222.474365,149.872421 
	C233.794250,140.434525 245.533554,131.499100 256.836792,122.041977 
	C266.261505,114.156593 275.243591,105.744125 284.586609,97.758011 
	C287.293549,95.444206 290.569122,93.795692 293.957214,92.098648 
	C294.552002,99.097092 294.825409,105.837921 294.976654,112.581490 
	C295.074921,116.962349 294.995148,121.347191 294.995148,125.730255 
	C296.018799,116.444145 295.955475,107.192848 296.077271,97.943977 
	C296.099152,96.281723 296.884277,94.629524 297.563049,93.301651 
	C297.940887,102.261543 297.992096,110.895149 298.276611,119.521049 
	C298.329803,121.133865 299.317932,122.715851 299.827911,124.751053 
	C299.818451,128.786682 299.855652,132.383347 299.650146,136.310028 
	C299.749603,142.401596 300.091797,148.163116 300.433990,153.924637 
	C300.369415,163.340439 300.304840,172.756226 299.687317,182.722656 
	C298.751984,184.946884 298.043793,186.619156 298.036896,188.294296 
	C297.955750,207.952805 297.890533,227.612518 298.054718,247.269943 
	C298.085968,251.009888 296.981201,252.158936 293.242126,252.069168 
	C282.086639,251.801315 270.922638,251.888641 259.739075,251.427567 
	C259.763275,249.367310 259.810364,247.716751 260.174988,245.782608 
	C260.622101,245.195190 260.861053,244.893051 260.865814,244.587265 
	C261.247803,220.020691 261.655090,195.454178 261.853516,170.886002 
	C261.863953,169.595901 260.089386,168.291382 258.880798,166.993698 
	C258.439392,166.984772 258.262939,166.975708 258.020996,166.652435 
	C256.942535,166.557129 255.929581,166.776031 254.771149,167.171555 
	C254.396744,167.733978 254.167801,168.119766 253.938858,168.505585 
z"/>
<path fill="#F4D4BA" opacity="1.000000" stroke="none" 
	d="
M283.979187,21.224823 
	C281.455048,24.392387 278.807800,27.747301 275.639587,30.503380 
	C256.933136,46.776489 238.055176,62.852352 219.332138,79.106544 
	C198.122055,97.519829 176.974976,116.006340 155.900681,134.574722 
	C152.382645,137.674423 149.915024,137.195435 146.507263,134.222412 
	C138.056534,126.849754 129.207718,119.934380 120.547096,112.800972 
	C115.850868,108.932869 111.215057,104.991455 106.547554,101.088425 
	C93.272072,89.987328 80.009506,78.870697 66.712906,67.794937 
	C54.882786,57.940708 42.987785,48.164268 31.171953,38.293007 
	C23.982546,32.286785 16.888916,26.165918 9.393380,19.779861 
	C9.034497,19.463173 8.909723,19.135765 8.952736,18.831154 
	C9.023447,18.323336 9.051144,18.120127 9.078841,17.916918 
	C13.875543,21.310720 18.926319,24.400120 23.423012,28.153357 
	C39.166218,41.293674 54.646179,54.749023 70.362350,67.922195 
	C87.815315,82.551117 105.392647,97.032150 122.965492,111.517326 
	C131.525528,118.573296 140.257584,125.421349 148.778976,132.522842 
	C150.917633,134.305145 152.279175,134.168442 154.293777,132.388412 
	C170.520599,118.050880 186.809143,103.782822 203.127869,89.549774 
	C220.851593,74.091339 238.594177,58.654129 256.396515,43.286407 
	C264.657379,36.155300 273.071198,29.201077 281.444824,22.201567 
	C282.045593,21.699373 282.886292,21.484150 283.979187,21.224823 
z"/>
<path fill="#F5CEB0" opacity="1.000000" stroke="none" 
	d="
M106.371033,217.319977 
	C110.468925,219.696259 113.236824,218.086731 116.414124,215.208450 
	C130.972168,202.020477 145.803116,189.134369 160.460236,176.054871 
	C166.051666,171.065292 171.317993,165.709396 176.944870,160.762024 
	C191.804138,147.697174 206.833710,134.826004 221.689972,121.757774 
	C231.701492,112.951202 241.508255,103.912308 251.452682,95.028915 
	C263.153656,84.576370 274.922028,74.199249 286.616364,63.739330 
	C288.580078,61.982906 290.316833,59.972721 292.567352,57.672478 
	C293.486145,56.617355 293.996033,55.969536 294.836792,55.112610 
	C295.429565,54.491516 295.919189,54.080112 295.920258,53.667446 
	C295.952423,41.243683 295.960541,28.819622 295.869690,16.396351 
	C295.864075,15.624356 295.021515,14.858480 294.568329,14.089762 
	C293.711395,14.725869 292.854492,15.361975 291.732849,16.054493 
	C291.124298,16.217081 290.780426,16.323257 290.274475,16.267958 
	C290.112366,16.106482 289.790924,15.780742 289.790924,15.780742 
	C290.789948,14.479239 291.568481,12.883525 292.832825,11.936102 
	C295.660828,9.816966 298.764313,11.150517 298.799866,14.572842 
	C298.934601,27.551901 298.966949,40.534977 298.736938,53.511223 
	C298.707306,55.182346 297.240814,57.178207 295.886108,58.418926 
	C286.971344,66.583611 277.919342,74.598915 268.884277,82.631630 
	C253.780136,96.060104 238.636215,109.443878 223.544128,122.885887 
	C207.330368,137.326920 191.162018,151.818909 174.964523,166.278229 
	C162.863998,177.080200 150.765610,187.884705 138.634033,198.651733 
	C130.327194,206.024200 122.067520,213.455795 113.581543,220.617798 
	C109.695343,223.897675 107.848526,220.547073 106.371033,217.319977 
z"/>
<path fill="#F5CFB1" opacity="1.000000" stroke="none" 
	d="
M177.886719,187.940216 
	C169.859543,194.487854 161.843033,201.048615 153.801788,207.578918 
	C147.450424,212.736877 141.068634,217.857391 134.343491,222.989258 
	C134.681412,221.570053 135.021469,219.734070 136.125061,218.806503 
	C149.231644,207.790024 162.444397,196.899704 175.645538,185.995956 
	C183.160797,179.788620 190.763412,173.685852 198.223907,167.413727 
	C209.222916,158.166702 220.073486,148.742828 231.090240,139.517227 
	C246.807022,126.355766 262.601990,113.287468 278.395111,100.217468 
	C284.073456,95.518204 289.843109,90.929253 295.759338,86.889709 
	C295.159729,88.940384 294.371857,90.391289 293.584015,91.842201 
	C290.569122,93.795692 287.293549,95.444206 284.586609,97.758011 
	C275.243591,105.744125 266.261505,114.156593 256.836792,122.041977 
	C245.533554,131.499100 233.794250,140.434525 222.474365,149.872421 
	C212.910675,157.846085 203.685410,166.225235 194.280197,174.390198 
	C193.413727,175.142426 192.328613,175.642776 190.796967,176.597015 
	C186.128189,180.602707 182.007462,184.271469 177.886719,187.940216 
z"/>
<path fill="#F4CCAE" opacity="1.000000" stroke="none" 
	d="
M128.994064,227.999008 
	C129.365509,229.024857 129.736969,230.050690 130.623718,231.453537 
	C134.657913,235.283875 138.176804,238.737213 141.695709,242.190552 
	C142.521561,243.156387 143.347427,244.122208 144.585434,245.046295 
	C144.997589,245.004532 144.864273,245.155090 144.864273,245.155090 
	C147.327820,247.910889 149.791367,250.666702 152.747009,253.972992 
	C159.530685,248.194107 165.784073,242.888687 172.013641,237.555420 
	C183.538254,227.688980 195.095703,217.860153 206.552521,207.915482 
	C218.500809,197.544250 230.312546,187.015686 242.262192,176.646042 
	C245.056961,174.220825 248.167191,172.159164 251.490814,169.884644 
	C250.928253,171.311447 250.290649,173.105988 249.041321,174.205399 
	C238.973557,183.064835 228.793472,191.796692 218.642197,200.561157 
	C206.875336,210.720490 195.066574,220.831619 183.344635,231.042450 
	C174.346817,238.880371 165.555374,246.960098 156.401627,254.608521 
	C155.125641,255.674667 151.448257,255.822021 150.328827,254.804123 
	C142.862671,248.015106 135.779572,240.803909 128.607468,233.694122 
	C128.035080,233.126694 127.729813,232.289795 127.151810,230.897369 
	C127.001534,229.469681 126.999840,228.722748 126.998154,227.975815 
	C126.998154,227.975815 127.331558,227.873535 127.833824,227.908356 
	C128.555405,227.961792 128.774734,227.980408 128.994064,227.999008 
z"/>
<path fill="#F4C8A6" opacity="1.000000" stroke="none" 
	d="
M41.400230,167.107635 
	C44.608585,165.153488 47.077831,166.113419 49.870152,168.443939 
	C63.177650,179.550629 76.695717,190.404663 90.071922,201.429810 
	C91.825279,202.875000 93.192764,204.788361 94.762589,206.832764 
	C88.350418,202.400513 81.802689,197.762604 75.505699,192.806137 
	C66.556152,185.761749 57.794884,178.478287 48.938389,171.315247 
	C48.339348,170.830750 47.616421,170.499420 46.170372,169.624435 
	C46.036350,172.010315 45.854664,173.728058 45.856155,175.445633 
	C45.878757,201.443436 45.952267,227.441269 45.905418,253.438904 
	C45.902321,255.157791 45.025043,256.875092 44.265881,258.094025 
	C43.966442,257.388367 43.955502,257.181824 44.005318,256.645813 
	C43.987247,255.881119 43.908417,255.445877 43.866463,254.542145 
	C43.758396,244.426132 43.613457,234.778595 43.598366,224.731964 
	C43.537956,221.549103 43.347702,218.765335 43.181908,215.514862 
	C43.162239,205.262741 43.206837,195.475372 42.990837,185.693741 
	C42.952698,183.966766 41.826332,182.263824 41.254425,180.116257 
	C41.337643,175.491043 41.368938,171.299332 41.400230,167.107635 
z"/>
<path fill="#F4C8A6" opacity="1.000000" stroke="none" 
	d="
M6.893321,157.127533 
	C7.375031,181.232407 7.856741,205.337296 8.615725,230.192505 
	C8.892997,239.486786 8.892997,248.030731 8.892997,256.766846 
	C14.113530,257.267395 19.071394,257.742737 24.029259,258.218079 
	C21.820204,258.769440 19.635654,259.484100 17.394331,259.820435 
	C15.605330,260.088867 13.747175,259.896423 11.459188,259.941772 
	C6.844025,260.188538 5.040124,258.394379 5.045863,254.063919 
	C5.092324,219.000992 4.993707,183.937851 4.984948,148.874771 
	C4.984633,147.615219 5.458103,146.355515 6.181070,145.472717 
	C6.732026,149.608871 6.812673,153.368210 6.893321,157.127533 
z"/>
<path fill="#E98401" opacity="1.000000" stroke="none" 
	d="
M259.761963,251.837250 
	C270.922638,251.888641 282.086639,251.801315 293.242126,252.069168 
	C296.981201,252.158936 298.085968,251.009888 298.054718,247.269943 
	C297.890533,227.612518 297.955750,207.952805 298.036896,188.294296 
	C298.043793,186.619156 298.751984,184.946884 299.515625,183.169586 
	C300.055756,193.007904 300.214661,202.949890 300.256073,213.774963 
	C300.086487,226.546082 300.100342,238.435211 299.899323,250.320724 
	C299.874023,251.815735 298.717072,253.291611 297.638214,254.590240 
	C291.781494,254.537292 286.371002,254.670471 280.527252,254.635269 
	C273.025940,254.364441 265.957855,254.261993 258.889801,254.159546 
	C258.884094,253.667526 258.878387,253.175537 259.077118,252.345703 
	C259.441650,251.951019 259.601807,251.894135 259.761963,251.837250 
z"/>
<path fill="#E98608" opacity="1.000000" stroke="none" 
	d="
M259.145813,166.993576 
	C260.089386,168.291382 261.863953,169.595901 261.853516,170.886002 
	C261.655090,195.454178 261.247803,220.020691 260.865814,244.587265 
	C260.861053,244.893051 260.622101,245.195190 260.149719,245.429749 
	C259.446930,244.587372 259.086823,243.814301 258.726715,243.041245 
	C258.734131,234.054718 258.741577,225.068192 258.862915,215.219147 
	C259.033142,198.568954 259.089478,182.781265 259.145813,166.993576 
z"/>
<path fill="#F5CFB1" opacity="1.000000" stroke="none" 
	d="
M258.880798,166.993698 
	C259.089478,182.781265 259.033142,198.568954 258.767212,214.775604 
	C257.749268,213.700623 256.264221,212.217697 256.239655,210.710983 
	C256.043274,198.663971 256.196106,186.611542 256.038574,174.563416 
	C256.015472,172.795212 254.919724,171.041031 254.129547,168.892975 
	C254.167801,168.119766 254.396744,167.733978 255.168091,167.173462 
	C256.502533,166.988068 257.294525,166.977356 258.086517,166.966660 
	C258.262939,166.975708 258.439392,166.984772 258.880798,166.993698 
z"/>
<path fill="#E87D0B" opacity="1.000000" stroke="none" 
	d="
M24.490761,258.159576 
	C19.071394,257.742737 14.113530,257.267395 8.892997,256.766846 
	C8.892997,248.030731 8.892997,239.486786 8.917946,230.485962 
	C9.303175,226.159775 9.728908,222.294983 9.997633,218.419312 
	C10.143947,216.309113 10.023739,214.180420 11.015513,212.056274 
	C11.015513,220.635406 11.014768,229.214523 11.015888,237.793640 
	C11.016322,241.119308 10.922739,244.448578 11.044301,247.769897 
	C11.291996,254.537430 11.802243,254.984848 18.523251,254.982315 
	C26.005974,254.979492 33.488693,254.966782 41.756958,254.970428 
	C42.971527,254.991867 43.400558,255.001266 43.829590,255.010651 
	C43.908417,255.445877 43.987247,255.881119 43.675888,256.662537 
	C42.510132,257.303772 41.734570,257.598816 40.959007,257.893799 
	C35.623425,257.962891 30.287846,258.031982 24.490761,258.159576 
z"/>
<path fill="#F5CFB1" opacity="1.000000" stroke="none" 
	d="
M298.084442,254.776352 
	C298.717072,253.291611 299.874023,251.815735 299.899323,250.320724 
	C300.100342,238.435211 300.086487,226.546082 300.364227,214.214264 
	C301.342560,214.823044 302.733582,215.865799 302.749969,216.929703 
	C302.927795,228.486954 302.815704,240.048447 302.962463,251.606506 
	C303.000122,254.572159 301.512482,255.325424 298.593628,255.230560 
	C298.136108,255.077515 298.084442,254.776352 298.084442,254.776352 
z"/>
<path fill="#F5CFB1" opacity="1.000000" stroke="none" 
	d="
M299.892853,135.979996 
	C299.855652,132.383347 299.818451,128.786682 299.871582,124.251541 
	C299.973846,112.677498 300.060638,102.040894 299.911774,91.407585 
	C299.890991,89.923485 298.711548,88.455605 297.756897,86.923157 
	C297.275940,86.740105 297.106506,86.614098 296.937103,86.488098 
	C297.737000,85.702690 298.536896,84.917267 299.336792,84.131851 
	C300.161499,85.002579 301.494995,85.767906 301.701904,86.766632 
	C302.097198,88.674782 301.878113,90.716019 301.866516,92.701744 
	C301.783508,106.926285 301.688507,121.150764 301.044434,135.688293 
	C300.291992,135.994232 300.092407,135.987122 299.892853,135.979996 
z"/>
<path fill="#F5CFB1" opacity="1.000000" stroke="none" 
	d="
M258.847656,254.569305 
	C265.957855,254.261993 273.025940,254.364441 280.546234,254.868515 
	C281.014740,255.590210 281.043762,255.909119 281.085541,256.226868 
	C280.015320,256.785706 278.960815,257.789215 277.872162,257.827667 
	C272.715973,258.009918 267.539032,258.117218 262.396454,257.805634 
	C261.146973,257.729950 259.999756,255.966461 258.847656,254.569305 
z"/>
<path fill="#F4D4BA" opacity="1.000000" stroke="none" 
	d="
M2.205724,17.377890 
	C3.092253,16.841269 3.896938,16.776457 4.959507,16.673100 
	C5.217391,16.634556 5.424803,16.729933 5.615840,17.095535 
	C5.873954,17.648508 5.941032,17.835878 5.996428,18.489380 
	C5.843508,24.976912 5.702271,30.998312 5.561033,37.019711 
	C4.648857,36.704128 3.736681,36.388546 2.537379,36.064209 
	C2.208129,29.986872 2.166004,23.918285 2.205724,17.377890 
z"/>
<path fill="#E9811D" opacity="1.000000" stroke="none" 
	d="
M296.705139,86.567619 
	C297.106506,86.614098 297.275940,86.740105 297.744568,87.305771 
	C297.801514,89.487862 297.559296,91.230270 297.317047,92.972687 
	C296.884277,94.629524 296.099152,96.281723 296.077271,97.943977 
	C295.955475,107.192848 296.018799,116.444145 294.995148,125.730255 
	C294.995148,121.347191 295.074921,116.962349 294.976654,112.581490 
	C294.825409,105.837921 294.552002,99.097092 293.957214,92.098648 
	C294.371857,90.391289 295.159729,88.940384 295.968964,87.111404 
	C295.990326,86.733330 296.473145,86.647141 296.705139,86.567619 
z"/>
<path fill="#F4CCAE" opacity="1.000000" stroke="none" 
	d="
M299.650146,136.310028 
	C300.092407,135.987122 300.291992,135.994232 300.791504,136.016190 
	C301.032288,141.781464 300.973145,147.531906 300.674011,153.603485 
	C300.091797,148.163116 299.749603,142.401596 299.650146,136.310028 
z"/>
<path fill="#F4CCAE" opacity="1.000000" stroke="none" 
	d="
M281.544495,256.201935 
	C281.043762,255.909119 281.014740,255.590210 280.979492,255.036896 
	C286.371002,254.670471 291.781494,254.537292 297.638214,254.590240 
	C298.084442,254.776352 298.136108,255.077515 298.172424,255.227722 
	C292.807007,255.644272 287.405243,255.910645 281.544495,256.201935 
z"/>
<path fill="#F4CCAE" opacity="1.000000" stroke="none" 
	d="
M258.452576,243.316971 
	C259.086823,243.814301 259.446930,244.587372 259.832245,245.713318 
	C259.810364,247.716751 259.763275,249.367310 259.739075,251.427567 
	C259.601807,251.894135 259.441650,251.951019 259.027924,251.979950 
	C258.575684,249.165558 258.377075,246.379135 258.452576,243.316971 
z"/>
<path fill="#F5CFB1" opacity="1.000000" stroke="none" 
	d="
M129.194214,227.763153 
	C128.774734,227.980408 128.555405,227.961792 128.007431,227.892120 
	C128.985092,226.681030 130.291412,225.521027 131.810242,224.611572 
	C131.146622,225.750534 130.270508,226.638916 129.194214,227.763153 
z"/>
<path fill="#F5CEB0" opacity="1.000000" stroke="none" 
	d="
M289.072479,19.201786 
	C288.621582,19.174309 288.170715,19.146830 287.381409,19.086769 
	C287.751221,18.040781 288.459442,17.027378 289.479309,15.897358 
	C289.790924,15.780742 290.112366,16.106482 290.180481,16.563339 
	C289.856537,17.747393 289.464508,18.474590 289.072479,19.201786 
z"/>
<path fill="#F5CFB1" opacity="1.000000" stroke="none" 
	d="
M126.673248,228.034546 
	C126.999840,228.722748 127.001534,229.469681 127.008499,230.588989 
	C126.791962,230.005341 126.570152,229.049301 126.673248,228.034546 
z"/>
<path fill="#F0B58B" opacity="1.000000" stroke="none" 
	d="
M6.008110,18.023247 
	C5.941032,17.835878 5.873954,17.648508 5.667476,17.197334 
	C6.488316,17.137171 7.448558,17.340811 8.743820,17.730684 
	C9.051144,18.120127 9.023447,18.323336 8.638473,18.809124 
	C7.523500,18.735552 6.765805,18.379400 6.008110,18.023247 
z"/>
<path fill="#EB9559" opacity="1.000000" stroke="none" 
	d="
M41.313637,258.055176 
	C41.734570,257.598816 42.510132,257.303772 43.615128,256.992004 
	C43.955502,257.181824 43.966442,257.388367 43.984428,257.905823 
	C43.217068,258.216644 42.442669,258.216583 41.313637,258.055176 
z"/>
<path fill="#E98608" opacity="1.000000" stroke="none" 
	d="
M7.209444,156.833893 
	C6.812673,153.368210 6.732026,149.608871 6.569384,145.391754 
	C6.291027,132.633377 6.094664,120.332817 6.014575,107.123917 
	C6.150911,103.265556 5.972528,100.294579 6.280854,97.375000 
	C6.419825,96.059059 7.529160,94.845581 8.198224,93.585617 
	C8.198224,93.585617 8.590680,93.814926 8.743810,94.215332 
	C9.331044,95.293465 9.765148,95.971176 10.199254,96.648895 
	C9.795089,99.576851 9.078123,102.500977 9.042169,105.433449 
	C8.903725,116.725052 9.139326,128.022415 8.916295,139.311340 
	C8.802697,145.061234 8.010835,150.797714 7.209444,156.833893 
z"/>
<path fill="#F4CAAA" opacity="1.000000" stroke="none" 
	d="
M93.037292,160.563812 
	C88.713699,158.159668 84.044312,155.800079 80.048653,152.599426 
	C69.026649,143.770401 58.284588,134.591812 47.447815,125.532326 
	C47.227669,125.348282 47.202469,124.931068 47.091240,124.272476 
	C51.146782,126.685654 55.358837,129.242081 59.216995,132.252106 
	C69.731026,140.454849 80.109932,148.831375 90.496254,157.196304 
	C91.495377,158.000992 92.172379,159.205627 93.037292,160.563812 
z"/>
<path fill="#F4CAAA" opacity="1.000000" stroke="none" 
	d="
M119.285767,155.054138 
	C120.877655,155.363953 123.005447,155.662781 123.727295,156.830612 
	C124.764610,158.508850 125.864792,161.671341 125.045288,162.717438 
	C120.920074,167.983337 116.179871,172.767471 111.508286,177.881989 
	C105.295731,172.399139 99.190346,167.010895 93.091042,161.272293 
	C99.267792,165.196793 105.438477,169.471649 112.002953,174.019318 
	C114.960487,170.556625 118.205078,166.889648 121.297302,163.098404 
	C124.092949,159.670746 119.829552,158.012253 119.285767,155.054138 
z"/>
<path fill="#E88009" opacity="1.000000" stroke="none" 
	d="
M5.996428,18.489380 
	C6.765805,18.379400 7.523500,18.735552 8.595459,19.113735 
	C8.909723,19.135765 9.034497,19.463173 9.089073,19.629086 
	C9.089849,31.755945 9.056486,43.717060 8.958176,55.677643 
	C8.944849,57.299107 8.605945,58.917892 8.112562,60.852783 
	C7.249948,60.917645 6.692562,60.667637 5.873778,60.242756 
	C5.683263,52.686802 5.754146,45.305717 5.693031,37.472172 
	C5.702271,30.998312 5.843508,24.976912 5.996428,18.489380 
z"/>
<path fill="#F4CAAA" opacity="1.000000" stroke="none" 
	d="
M10.558823,96.690460 
	C9.765148,95.971176 9.331044,95.293465 8.954882,94.299591 
	C10.264296,94.309258 11.801188,94.277908 12.723833,95.015213 
	C24.045927,104.062988 35.279575,113.221466 46.523239,122.367119 
	C46.758076,122.558144 46.839657,122.937584 47.033745,123.566704 
	C42.350784,120.772346 37.437935,117.887466 32.945343,114.452866 
	C25.461308,108.731293 18.246542,102.657509 10.558823,96.690460 
z"/>
<path fill="#EEDCCE" opacity="1.000000" stroke="none" 
	d="
M11.513941,66.305725 
	C17.181639,70.428253 22.653147,74.758507 28.262917,79.400635 
	C25.395842,77.870956 22.203886,76.269882 19.436317,74.121979 
	C16.518991,71.857857 14.006892,69.071594 11.513941,66.305725 
z"/>
<path fill="#F4C8A6" opacity="1.000000" stroke="none" 
	d="
M8.125287,93.238388 
	C7.529160,94.845581 6.419825,96.059059 6.280854,97.375000 
	C5.972528,100.294579 6.150911,103.265556 5.965738,106.665115 
	C5.305164,102.579674 4.780482,98.046669 4.472474,93.498993 
	C4.464262,93.377762 6.806313,93.097343 8.125287,93.238388 
z"/>
<path fill="#F4CAAA" opacity="1.000000" stroke="none" 
	d="
M31.860046,82.754677 
	C35.434132,85.128700 39.100574,87.813080 42.723804,90.847641 
	C39.104530,88.486885 35.528465,85.775955 31.860046,82.754677 
z"/>
<path fill="#F4CAAA" opacity="1.000000" stroke="none" 
	d="
M67.900726,112.587326 
	C70.549141,114.282669 73.262489,116.302208 75.977417,118.670105 
	C73.307892,116.982819 70.636780,114.947166 67.900726,112.587326 
z"/>
<path fill="#F4CAAA" opacity="1.000000" stroke="none" 
	d="
M105.829620,143.795425 
	C108.095230,145.158371 110.443741,146.838577 112.731216,148.862610 
	C110.417625,147.508514 108.165070,145.810593 105.829620,143.795425 
z"/>
<path fill="#F4CAAA" opacity="1.000000" stroke="none" 
	d="
M45.052368,93.389626 
	C46.563496,94.206360 48.172668,95.337448 49.746288,96.826416 
	C48.190628,96.024193 46.670525,94.864090 45.052368,93.389626 
z"/>
<path fill="#F4CAAA" opacity="1.000000" stroke="none" 
	d="
M87.824348,128.830872 
	C89.140579,129.450058 90.544662,130.374313 91.983704,131.641556 
	C90.649849,131.034988 89.281021,130.085464 87.824348,128.830872 
z"/>
<path fill="#F4CAAA" opacity="1.000000" stroke="none" 
	d="
M53.845207,100.700294 
	C55.172604,101.364029 56.565948,102.344543 57.966103,103.674362 
	C56.618996,103.021461 55.265076,102.019272 53.845207,100.700294 
z"/>
<path fill="#F4CAAA" opacity="1.000000" stroke="none" 
	d="
M76.849571,119.723465 
	C78.103615,120.121353 79.435532,120.833801 80.690620,121.894012 
	C79.385017,121.507187 78.156227,120.772598 76.849571,119.723465 
z"/>
<path fill="#F4CAAA" opacity="1.000000" stroke="none" 
	d="
M99.854866,138.674225 
	C100.455879,138.761566 101.125320,139.128479 101.760269,139.834610 
	C101.124954,139.767166 100.524124,139.360489 99.854866,138.674225 
z"/>
<path fill="#F4CAAA" opacity="1.000000" stroke="none" 
	d="
M58.826115,104.706223 
	C59.430176,104.799698 60.096626,105.169632 60.704681,105.877655 
	C60.060356,105.804726 59.474430,105.393707 58.826115,104.706223 
z"/>
<path fill="#F4CAAA" opacity="1.000000" stroke="none" 
	d="
M63.800705,108.754471 
	C64.390060,108.840775 65.042381,109.199577 65.651566,109.897621 
	C65.026840,109.833572 64.445251,109.430275 63.800705,108.754471 
z"/>
<path fill="#F4CAAA" opacity="1.000000" stroke="none" 
	d="
M92.851364,132.621155 
	C93.461281,132.728668 94.121490,133.124451 94.734688,133.858597 
	C94.092331,133.767792 93.496986,133.338593 92.851364,132.621155 
z"/>
<path fill="#F4CAAA" opacity="1.000000" stroke="none" 
	d="
M97.782501,136.866165 
	C98.362007,136.933701 99.016075,137.257309 99.612762,137.917969 
	C98.989281,137.877426 98.423180,137.499847 97.782501,136.866165 
z"/>
<path fill="#E9872D" opacity="1.000000" stroke="none" 
	d="
M43.157448,215.981583 
	C43.347702,218.765335 43.537956,221.549103 43.264221,224.852234 
	C42.527946,230.583069 42.255653,235.794495 41.983360,241.005936 
	C40.988873,238.827499 39.159760,236.659851 39.131454,234.468933 
	C38.897213,216.338470 39.030830,198.203568 38.959724,180.070389 
	C38.948128,177.113281 38.195900,174.143982 38.341904,171.207947 
	C38.411663,169.805084 39.783504,168.466965 40.982910,167.103577 
	C41.368938,171.299332 41.337643,175.491043 41.188446,180.626465 
	C41.046730,191.650055 40.939278,201.731201 41.095436,211.808258 
	C41.117153,213.209686 42.438000,214.590973 43.157448,215.981583 
z"/>
<path fill="#EA8C0C" opacity="1.000000" stroke="none" 
	d="
M41.991352,241.469788 
	C42.255653,235.794495 42.527946,230.583069 43.134377,225.251343 
	C43.613457,234.778595 43.758396,244.426132 43.866463,254.542160 
	C43.400558,255.001266 42.971527,254.991867 42.218918,254.960327 
	C41.930012,250.603348 41.964676,246.268494 41.991352,241.469788 
z"/>
<path fill="#E88015" opacity="1.000000" stroke="none" 
	d="
M289.140778,19.545254 
	C289.464508,18.474590 289.856537,17.747393 290.342590,16.724815 
	C290.780426,16.323257 291.124298,16.217081 291.922394,16.431076 
	C292.610413,18.516680 293.034576,20.280884 293.045959,22.047747 
	C293.104401,31.116991 292.969940,40.188286 293.112854,49.255558 
	C293.144836,51.284428 294.019318,53.300018 294.505920,55.321716 
	C293.996033,55.969536 293.486145,56.617355 292.664581,57.350998 
	C292.231445,55.470360 292.014099,53.504333 292.005066,51.537357 
	C291.964111,42.615574 292.120789,33.689358 291.853729,24.775305 
	C291.804199,23.121521 290.132233,21.516338 289.140778,19.545254 
z"/>
<path fill="#F4CCAE" opacity="1.000000" stroke="none" 
	d="
M297.563049,93.301651 
	C297.559296,91.230270 297.801514,89.487862 298.056091,87.362831 
	C298.711548,88.455605 299.890991,89.923485 299.911774,91.407585 
	C300.060638,102.040894 299.973846,112.677498 299.918243,123.812561 
	C299.317932,122.715851 298.329803,121.133865 298.276611,119.521049 
	C297.992096,110.895149 297.940887,102.261543 297.563049,93.301651 
z"/>
<path fill="#EA8A2E" opacity="1.000000" stroke="none" 
	d="
M178.221497,188.084000 
	C182.007462,184.271469 186.128189,180.602707 190.587036,176.853165 
	C190.947037,181.999359 183.350098,189.035233 178.221497,188.084000 
z"/>
<path fill="#E98525" opacity="1.000000" stroke="none" 
	d="
M142.037323,242.102051 
	C138.176804,238.737213 134.657913,235.283875 130.973114,231.542419 
	C131.789444,231.151550 133.204010,230.579193 133.684464,231.021484 
	C137.052811,234.122467 140.233795,237.427643 143.414307,240.725754 
	C143.462494,240.775711 142.741150,241.567810 142.037323,242.102051 
z"/>
<path fill="#F4CCAE" opacity="1.000000" stroke="none" 
	d="
M258.020996,166.652435 
	C257.294525,166.977356 256.502533,166.988068 255.313568,166.996857 
	C255.929581,166.776031 256.942535,166.557129 258.020996,166.652435 
z"/>
<path fill="#E98525" opacity="1.000000" stroke="none" 
	d="
M144.921707,245.070343 
	C145.272049,244.575287 145.698257,244.014389 146.124466,243.453506 
	C146.238892,243.557312 146.460999,243.741470 146.452164,243.753311 
	C146.134811,244.178619 145.795883,244.587830 145.162109,245.077179 
	C144.864273,245.155090 144.997589,245.004532 144.921707,245.070343 
z"/>
<path fill="#EC9852" opacity="1.000000" stroke="none" 
	d="
M294.836792,55.112617 
	C294.019318,53.300018 293.144836,51.284428 293.112854,49.255558 
	C292.969940,40.188286 293.104401,31.116991 293.045959,22.047747 
	C293.034576,20.280884 292.610413,18.516680 292.187103,16.374664 
	C292.854492,15.361975 293.711395,14.725869 294.568329,14.089762 
	C295.021515,14.858480 295.864075,15.624356 295.869690,16.396351 
	C295.960541,28.819622 295.952423,41.243683 295.920258,53.667446 
	C295.919189,54.080112 295.429565,54.491516 294.836792,55.112617 
z"/>
<path fill="#EA8C39" opacity="1.000000" stroke="none" 
	d="
M43.181908,215.514862 
	C42.438000,214.590973 41.117153,213.209686 41.095436,211.808258 
	C40.939278,201.731201 41.046730,191.650055 41.136524,181.059998 
	C41.826332,182.263824 42.952698,183.966766 42.990837,185.693741 
	C43.206837,195.475372 43.162239,205.262741 43.181908,215.514862 
z"/>
</svg>