<svg version="1.1" id="Layer_1" xmlns="http://www.w3.org/2000/svg" xmlns:xlink="http://www.w3.org/1999/xlink" x="0px" y="0px"
	 width="100%" viewBox="0 0 200 200" enable-background="new 0 0 200 200" xml:space="preserve">
<path fill="#020202" opacity="1.000000" stroke="none" 
	d="
M95.000000,201.000000 
	C63.333336,201.000000 32.166672,201.000000 1.000004,201.000000 
	C1.000003,134.333344 1.000003,67.666679 1.000001,1.000013 
	C67.666656,1.000009 134.333313,1.000009 200.999969,1.000004 
	C200.999985,67.666649 200.999985,134.333298 201.000000,200.999969 
	C165.833328,201.000000 130.666672,201.000000 95.000000,201.000000 
M170.863922,62.334728 
	C166.196182,63.145061 161.008148,62.916061 156.951370,64.946861 
	C140.003616,73.430824 123.432800,82.664627 106.630219,91.444420 
	C103.454163,93.104004 101.705223,94.990906 102.189034,98.727371 
	C102.465012,100.858711 101.916649,103.125496 102.363869,105.196457 
	C102.695900,106.733986 103.691780,108.681084 104.972733,109.377464 
	C122.945961,119.148537 140.950943,128.867325 159.112778,138.281342 
	C164.036423,140.833466 169.471542,140.205200 175.088699,138.694229 
	C174.494781,137.450455 174.325058,136.776520 173.922470,136.298828 
	C165.335007,126.109177 156.782043,115.888718 148.030960,105.840973 
	C147.013687,104.672974 144.906708,104.053047 143.243988,103.915436 
	C134.612183,103.201027 125.959038,102.747429 117.318130,102.135277 
	C116.387642,102.069366 115.488136,101.566055 114.574265,101.265640 
	C115.923828,100.117516 117.142174,99.814430 118.375420,99.730545 
	C126.685768,99.165321 135.004333,98.710587 143.307220,98.055229 
	C144.848129,97.933609 146.850586,97.516251 147.758347,96.470245 
	C156.491821,86.406685 165.057907,76.197235 173.619720,65.985802 
	C175.784790,63.403572 174.236679,62.547005 170.863922,62.334728 
M41.858936,81.655594 
	C45.732258,86.233032 49.465088,90.942162 53.560440,95.311493 
	C54.869854,96.708504 57.081207,97.828865 58.980034,98.006752 
	C67.435608,98.798882 75.928993,99.181877 84.404457,99.773735 
	C85.565636,99.854828 86.702888,100.278664 87.851219,100.543816 
	C86.436111,101.827728 85.090256,102.136391 83.729622,102.229782 
	C75.586136,102.788750 67.423187,103.135574 59.304668,103.937363 
	C57.250347,104.140259 54.786125,105.257942 53.444328,106.779167 
	C45.401634,115.897400 37.618813,125.245369 29.786705,134.548172 
	C28.810822,135.707291 28.058146,137.054352 27.202042,138.314316 
	C27.448654,138.904724 27.695269,139.495117 27.941881,140.085526 
	C33.069462,139.487366 38.853313,140.215576 43.210220,138.059814 
	C61.387592,129.065781 79.170845,119.268562 96.977005,109.543182 
	C98.440025,108.744102 99.445511,106.372108 99.846123,104.551117 
	C100.335640,102.325966 100.374557,99.809944 99.837044,97.607994 
	C99.360710,95.656631 98.275215,93.145508 96.693626,92.280968 
	C79.036934,82.629219 61.272533,73.171127 43.440506,63.845661 
	C38.383537,61.201054 32.971752,62.203270 26.257320,63.061069 
	C31.858128,69.745987 36.623688,75.433990 41.858936,81.655594 
z"/>
<path fill="#F9F9F9" opacity="1.000000" stroke="none" 
	d="
M171.274292,62.339111 
	C174.236679,62.547005 175.784790,63.403572 173.619720,65.985802 
	C165.057907,76.197235 156.491821,86.406685 147.758347,96.470245 
	C146.850586,97.516251 144.848129,97.933609 143.307220,98.055229 
	C135.004333,98.710587 126.685768,99.165321 118.375420,99.730545 
	C117.142174,99.814430 115.923828,100.117516 114.574265,101.265640 
	C115.488136,101.566055 116.387642,102.069366 117.318130,102.135277 
	C125.959038,102.747429 134.612183,103.201027 143.243988,103.915436 
	C144.906708,104.053047 147.013687,104.672974 148.030960,105.840973 
	C156.782043,115.888718 165.335007,126.109177 173.922470,136.298828 
	C174.325058,136.776520 174.494781,137.450455 175.088699,138.694229 
	C169.471542,140.205200 164.036423,140.833466 159.112778,138.281342 
	C140.950943,128.867325 122.945961,119.148537 104.972733,109.377464 
	C103.691780,108.681084 102.695900,106.733986 102.363869,105.196457 
	C101.916649,103.125496 102.465012,100.858711 102.189034,98.727371 
	C101.705223,94.990906 103.454163,93.104004 106.630219,91.444420 
	C123.432800,82.664627 140.003616,73.430824 156.951370,64.946861 
	C161.008148,62.916061 166.196182,63.145061 171.274292,62.339111 
z"/>
<path fill="#F9F9F9" opacity="1.000000" stroke="none" 
	d="
M41.624092,81.388794 
	C36.623688,75.433990 31.858128,69.745987 26.257320,63.061069 
	C32.971752,62.203270 38.383537,61.201054 43.440506,63.845661 
	C61.272533,73.171127 79.036934,82.629219 96.693626,92.280968 
	C98.275215,93.145508 99.360710,95.656631 99.837044,97.607994 
	C100.374557,99.809944 100.335640,102.325966 99.846123,104.551117 
	C99.445511,106.372108 98.440025,108.744102 96.977005,109.543182 
	C79.170845,119.268562 61.387592,129.065781 43.210220,138.059814 
	C38.853313,140.215576 33.069462,139.487366 27.941881,140.085526 
	C27.695269,139.495117 27.448654,138.904724 27.202042,138.314316 
	C28.058146,137.054352 28.810822,135.707291 29.786705,134.548172 
	C37.618813,125.245369 45.401634,115.897400 53.444328,106.779167 
	C54.786125,105.257942 57.250347,104.140259 59.304668,103.937363 
	C67.423187,103.135574 75.586136,102.788750 83.729622,102.229782 
	C85.090256,102.136391 86.436111,101.827728 87.851219,100.543816 
	C86.702888,100.278664 85.565636,99.854828 84.404457,99.773735 
	C75.928993,99.181877 67.435608,98.798882 58.980034,98.006752 
	C57.081207,97.828865 54.869854,96.708504 53.560440,95.311493 
	C49.465088,90.942162 45.732258,86.233032 41.624092,81.388794 
z"/>
</svg>